SplineFontDB: 3.2
FontName: Lavi-Bold
FullName: Lavi Bold
FamilyName: Lavi
Weight: Bold
Copyright: A creation by Ruben Holthuijsen aka Rholt (2009).\nMaintainance and modification by David Revoy for the webcomic www.peppercarrot.com.\nCorrection by Solve Svartskogen.\nAdaptation for Cyrillic glyph imported from a derivative done by Gleki "lagleki" Arxokuna ( https://github.com/lagleki ).\nImproved kerning by Karl Ove Hufthammer.\nGNU GPL V3 ( https://www.gnu.org/copyleft/gpl.html)\nRepository and sources available here: https://github.com/Deevad/peppercarrot_fonts/\n
Version: 2.1
ItalicAngle: 0
UnderlinePosition: -240
UnderlineWidth: 120
Ascent: 1638
Descent: 410
InvalidEm: 0
LayerCount: 2
Layer: 0 1 "Back" 1
Layer: 1 1 "Fore" 0
XUID: [1021 91 1847977381 15115260]
StyleMap: 0x0020
FSType: 0
OS2Version: 2
OS2_WeightWidthSlopeOnly: 0
OS2_UseTypoMetrics: 1
CreationTime: 1231154524
ModificationTime: 1740472801
PfmFamily: 65
TTFWeight: 700
TTFWidth: 5
LineGap: 122
VLineGap: 0
Panose: 3 0 0 0 0 0 0 0 0 0
OS2TypoAscent: 2220
OS2TypoAOffset: 0
OS2TypoDescent: -630
OS2TypoDOffset: 0
OS2TypoLinegap: 122
OS2WinAscent: 2220
OS2WinAOffset: 0
OS2WinDescent: 630
OS2WinDOffset: 0
HheadAscent: 2220
HheadAOffset: 0
HheadDescent: -630
HheadDOffset: 0
OS2SubXSize: 1434
OS2SubYSize: 1331
OS2SubXOff: 0
OS2SubYOff: 293
OS2SupXSize: 1434
OS2SupYSize: 1331
OS2SupXOff: 0
OS2SupYOff: 928
OS2StrikeYSize: 102
OS2StrikeYPos: 512
OS2CapHeight: 1434
OS2XHeight: 1300
OS2Vendor: 'RL  '
OS2CodePages: 20000007.00000000
OS2UnicodeRanges: 800002af.0000000b.00000000.00000000
Lookup: 258 0 0 "'kern' Horizontal Kerning in Latin lookup 0" { "'kern' Horizontal Kerning in Latin lookup F-lowercase" [307,0,2] "'kern' Horizontal Kerning in Latin lookup 0 subtable" [307,30,0] } ['kern' ('latn' <'dflt' > ) ]
MarkAttachClasses: 1
DEI: 91125
KernClass2: 2 8 "'kern' Horizontal Kerning in Latin lookup F-lowercase"
 1 F

StartChar: .notdef
Encoding: 65536 -1 0
Width: 1556
Flags: W
LayerCount: 2
Fore
SplineSet
1365.64770369 1576 m 1,0,-1
 1300.41853703 -40 l 1,1,-1
 214.352296306 -40 l 1,2,-1
 279.581462973 1576 l 1,3,-1
 1365.64770369 1576 l 1,0,-1
484.110159327 1368 m 1,4,-1
 425.985159327 168 l 1,5,-1
 1095.88984067 168 l 1,6,-1
 1154.01484067 1368 l 1,7,-1
 484.110159327 1368 l 1,4,-1
EndSplineSet
Validated: 1
EndChar

StartChar: exclam
Encoding: 33 33 4
Width: 731
GlyphClass: 2
Flags: W
LayerCount: 2
Fore
SplineSet
179.352539062 207.967773438 m 132,-1,1
 179.352539062 263.1328125 179.352539062 263.1328125 212.514648438 309.772460938 c 4,2,3
 243.724609375 353.66796875 243.724609375 353.66796875 296.58203125 375.349609375 c 4,4,5
 332.0625 389.903320312 332.0625 389.903320312 372.614257812 389.903320312 c 4,6,7
 431.989257812 389.903320312 431.989257812 389.903320312 480.819335938 357.57421875 c 4,8,9
 523.243164062 329.48828125 523.243164062 329.48828125 545 278 c 4,10,11
 559.020507812 244.8203125 559.020507812 244.8203125 559.020507812 211.990234375 c 6,12,-1
 559.020507812 208.4140625 l 6,13,14
 559.020507812 174.197265625 559.020507812 174.197265625 545.34765625 139.68359375 c 4,15,16
 533.474609375 109.337890625 533.474609375 109.337890625 507.958984375 81.8115234375 c 132,-1,17
 482.442382812 54.283203125 482.442382812 54.283203125 446.62109375 40.1572265625 c 132,-1,18
 410.801757812 26.0302734375 410.801757812 26.0302734375 371.430664062 26.0302734375 c 132,-1,19
 332.0625 26.0302734375 332.0625 26.0302734375 296.853515625 40.4736328125 c 4,20,21
 243.724609375 62.2666015625 243.724609375 62.2666015625 211.538085938 107.534179688 c 132,-1,0
 179.352539062 152.801757812 179.352539062 152.801757812 179.352539062 207.967773438 c 132,-1,1
655 1522 m 2,22,-1
 655 1488 l 1,23,-1
 624.990234375 996.60546875 l 2,24,25
 624 986 624 986 621.178710938 966.23828125 c 0,26,27
 618 949 618 949 615.276367188 929.603515625 c 0,28,29
 611 897 611 897 606.950195312 876.087890625 c 128,-1,30
 603 855 603 855 602.028320312 848.838867188 c 0,31,32
 601 842 601 842 599.782226562 835.951171875 c 0,33,34
 599 830 599 830 597.615234375 823.146484375 c 0,35,36
 595 810 595 810 591.979492188 787.930664062 c 0,37,38
 584 735 584 735 577.967773438 704.858398438 c 0,39,40
 572 675 572 675 570.650390625 666.381835938 c 0,41,42
 569 658 569 658 566.258789062 642.228515625 c 0,43,44
 563 626 563 626 560.72265625 615.947265625 c 0,45,46
 555 595 555 595 546.940429688 574.641601562 c 0,47,48
 533 542 533 542 507.654296875 519.184570312 c 0,49,50
 477 492 477 492 424.606445312 492 c 0,51,52
 372 492 372 492 337.145507812 528.30859375 c 0,53,54
 320 546 320 546 310.884765625 569.731445312 c 0,55,56
 302 593 302 593 302 619 c 2,57,-1
 302 641 l 1,58,-1
 302 644.05078125 l 1,59,-1
 367.197265625 1073.34863281 l 1,60,-1
 399.07421875 1563.45214844 l 2,61,62
 402 1614 402 1614 441.040039062 1645.25 c 0,63,64
 477 1674 477 1674 521 1674 c 0,65,66
 552 1674 552 1674 576.22265625 1664.4453125 c 0,67,68
 610 1651 610 1651 629.665039062 1621.68945312 c 0,69,70
 655 1584 655 1584 655 1522 c 2,22,-1
EndSplineSet
Validated: 524289
EndChar

StartChar: numbersign
Encoding: 35 35 6
Width: 1421
GlyphClass: 2
Flags: W
LayerCount: 2
Fore
SplineSet
782.307331788 436.000188594 m 1,0,1
 715.065966234 436.021430906 715.065966234 436.021430906 653.345848819 438 c 1,2,-1
 614.868683538 438 l 2,3,4
 607.157667427 437.060163183 607.157667427 437.060163183 570.815474912 437.003633771 c 0,5,6
 559.058488502 435.033498947 559.058488502 435.033498947 514.994420231 435.000733176 c 0,7,8
 497.176726657 433.278746651 497.176726657 433.278746651 478.737003909 432.544978763 c 1,9,10
 474.399991576 415.263637591 474.399991576 415.263637591 470.838477193 398.643237139 c 0,11,12
 467.276962811 382.022836686 467.276962811 382.022836686 465.280608298 373.079789456 c 0,13,14
 463.284253786 364.136742225 463.284253786 364.136742225 461.132205548 354.838171203 c 0,15,16
 458.98015731 345.539600182 458.98015731 345.539600182 456.666923974 335.86085277 c 0,17,18
 452.049080409 316.539437697 452.049080409 316.539437697 442.716888426 279.569600225 c 0,19,20
 433.384696443 242.599762754 433.384696443 242.599762754 414.115712505 186.355160989 c 0,21,22
 394.846728567 130.110559224 394.846728567 130.110559224 369.125715162 81.4048104361 c 0,23,24
 343.404701757 32.6990616484 343.404701757 32.6990616484 309.283267576 -0.265713747417 c 0,25,26
 268.15479584 -40 268.15479584 -40 215.927169711 -40 c 0,27,28
 163.699543581 -40 163.699543581 -40 128.849771791 -5.90783194399 c 0,29,30
 94 28.184336112 94 28.184336112 94 78 c 0,31,32
 94 137.302386968 94 137.302386968 116.87095547 190.123403173 c 0,33,34
 139.74191094 242.944419378 139.74191094 242.944419378 158.234014952 279.551237524 c 0,35,36
 188.675540049 339.813032102 188.675540049 339.813032102 209.158304833 388.093834808 c 0,37,38
 218.977289632 411.238584692 218.977289632 411.238584692 223.371701552 435 c 1,39,-1
 102 435 l 2,40,41
 73.8297427769 435 73.8297427769 435 51.7590109813 451.313149588 c 0,42,43
 34.44801446 464.108233973 34.44801446 464.108233973 22.317908457 482.660160801 c 0,44,45
 -1 518.322844324 -1 518.322844324 -1 558 c 0,46,47
 -1 573.422728523 -1 573.422728523 3.00555598591 591.447730459 c 0,48,49
 7.01111197183 609.472732396 7.01111197183 609.472732396 12.9037971873 621.258102827 c 0,50,51
 29.7141057853 654.878720023 29.7141057853 654.878720023 42.2443990675 668.753692648 c 0,52,53
 56.8237778519 684.897646901 56.8237778519 684.897646901 77.4647266001 689.494363077 c 0,54,55
 84.2255909567 691 84.2255909567 691 91 691 c 2,56,-1
 278.626610085 691 l 1,57,-1
 312.441179622 913 l 1,58,-1
 154 913 l 2,59,60
 116.214826938 913 116.214826938 913 87.5709234578 943.791655336 c 0,61,62
 65.5420264552 967.472303625 65.5420264552 967.472303625 56.5329598761 999.004036652 c 0,63,64
 51 1018.36939622 51 1018.36939622 51 1034.89606237 c 0,65,66
 51 1051.42272852 51 1051.42272852 53.983171943 1064.84700227 c 0,67,68
 61.3245225306 1097.88307991 61.3245225306 1097.88307991 85.3635138647 1135.14351648 c 0,69,70
 93.8490123843 1148.29603918 93.8490123843 1148.29603918 105.106116712 1156.52646923 c 0,71,72
 122.166687824 1169 122.166687824 1169 143 1169 c 2,73,-1
 342 1169 l 1,74,-1
 342 1433 l 2,75,76
 342 1460.1912214 342 1460.1912214 355.406366656 1482.27229589 c 0,77,78
 381.3569165 1525.01437798 381.3569165 1525.01437798 426.852801767 1537.56496702 c 0,79,80
 446.554796309 1543 446.554796309 1543 466 1543 c 0,81,82
 506.106415174 1543 506.106415174 1543 532.173393409 1525.62201451 c 0,83,84
 579.469323567 1494.0913944 579.469323567 1494.0913944 585.752515868 1428.53766269 c 0,85,86
 590.017942888 1393.68161447 590.017942888 1393.68161447 588.93329898 1376.65533572 c 0,87,88
 584.113792072 1281.72682 584.113792072 1281.72682 583.171321068 1169 c 1,89,-1
 888.083355081 1169 l 1,90,91
 889 1177.17300409 889 1177.17300409 889 1180 c 2,92,-1
 889 1184.26965643 l 1,93,94
 892.163593456 1199.03309256 892.163593456 1199.03309256 893.526805443 1234.47660421 c 0,95,96
 898 1357.48652003 898 1357.48652003 898 1399.37808823 c 0,97,98
 898 1446.13060378 898 1446.13060378 902.532959876 1461.99596335 c 0,99,100
 914.93703175 1505.41021491 914.93703175 1505.41021491 949.33574063 1525.54604449 c 0,101,102
 979.15291462 1543 979.15291462 1543 1019.61827949 1543 c 0,103,104
 1060.08364435 1543 1060.08364435 1543 1089.58485497 1524.02434694 c 0,105,106
 1127.24475943 1499.8008908 1127.24475943 1499.8008908 1140.66384847 1449.28196735 c 2,107,-1
 1142 1444.25174984 l 1,108,-1
 1142 1295.5 l 2,109,110
 1142 1267.25839869 1142 1267.25839869 1141 1240.25264704 c 0,111,112
 1140 1213.24689538 1140 1213.24689538 1140 1194.71930459 c 0,113,114
 1140 1176.19171381 1140 1176.19171381 1139.55704729 1166 c 1,115,-1
 1264 1166 l 2,116,117
 1293.80450925 1166 1293.80450925 1166 1314.73685234 1142.74184101 c 0,118,119
 1327.17581673 1128.92076947 1327.17581673 1128.92076947 1336.42809864 1111.07708292 c 0,120,121
 1345.68038056 1093.23339636 1345.68038056 1093.23339636 1350.34019028 1074.59415748 c 0,122,123
 1355 1055.9549186 1355 1055.9549186 1355 1039.11437128 c 0,124,125
 1355 1022.27382396 1355 1022.27382396 1347.95892724 1001.85471295 c 0,126,127
 1332.06663193 955.767056545 1332.06663193 955.767056545 1294.92129817 932.908389618 c 0,128,129
 1272.32016504 919 1272.32016504 919 1246 919 c 2,130,-1
 1119.85416615 919 l 1,131,-1
 1087.91525939 688 l 1,132,-1
 1212 688 l 2,133,134
 1226.4302177 688 1226.4302177 688 1239.62366292 681.865615119 c 0,135,136
 1252.81710813 675.731230239 1252.81710813 675.731230239 1261.14670017 666.963238618 c 0,137,138
 1276.33971828 650.970587981 1276.33971828 650.970587981 1284.93763784 633.11337043 c 0,139,140
 1293.5355574 615.25615288 1293.5355574 615.25615288 1297.36049687 601.868864732 c 0,141,142
 1304 578.630603781 1304 578.630603781 1304 561.452213869 c 0,143,144
 1304 529.384482024 1304 529.384482024 1284.53711682 497.32812385 c 0,145,146
 1268.24308759 470.491029262 1268.24308759 470.491029262 1244.28162632 455.745514631 c 0,147,148
 1220.32016504 441 1220.32016504 441 1194 441 c 2,149,-1
 1035.14118198 441 l 1,150,151
 1009.43829202 341.617632595 1009.43829202 341.617632595 976.506970151 241.506414125 c 0,152,153
 937.711849734 123.569248058 937.711849734 123.569248058 876.440285686 17.9286203881 c 1,154,155
 855.34347374 -10.2004622069 855.34347374 -10.2004622069 830.75885506 -25.1002311035 c 0,156,157
 806.174236381 -40 806.174236381 -40 771 -40 c 0,158,159
 745.568811817 -40 745.568811817 -40 722.779050274 -31.3359776992 c 0,160,161
 699.989288731 -22.6719553984 699.989288731 -22.6719553984 682.529306709 -5.58346235604 c 0,162,163
 664.915727297 11.6553600476 664.915727297 11.6553600476 655.957863649 34.5263387619 c 0,164,165
 647 57.3973174762 647 57.3973174762 647 83 c 0,166,167
 647 141.561981791 647 141.561981791 670.576703174 194.198342366 c 0,168,169
 694.153406349 246.834702941 694.153406349 246.834702941 714.213783584 283.170480576 c 0,170,171
 747.079722621 342.701238077 747.079722621 342.701238077 767.85134001 390.041203287 c 0,172,173
 777.839051832 412.803895349 777.839051832 412.803895349 782.307331788 436.000188594 c 1,0,1
867.566655358 918.003659921 m 1,174,-1
 863 918 l 2,175,176
 826.270605458 918 826.270605458 918 761.581700886 917.131032942 c 0,177,178
 678.932166649 916.020800468 678.932166649 916.020800468 665.353230606 916.001015465 c 0,179,180
 619.391646985 913 619.391646985 913 600.47795374 913 c 0,181,182
 581.564260495 913 581.564260495 913 579.958276155 912.974488302 c 0,183,184
 578.352291815 912.948976605 578.352291815 912.948976605 576.557655712 912.897064873 c 0,185,186
 574.763019608 912.84515314 574.763019608 912.84515314 572.811912396 912.76747199 c 0,187,188
 568.858799476 912.610083223 568.858799476 912.610083223 564.298789494 912.347411446 c 1,189,-1
 532.219454502 691 l 1,190,-1
 834.409927575 691 l 1,191,192
 834.737643728 692.769332751 834.737643728 692.769332751 835.759541543 698.90014674 c 0,193,194
 836.781439357 705.030960729 836.781439357 705.030960729 839.084561708 712.008047226 c 0,195,196
 850.820016865 786.076179239 850.820016865 786.076179239 857.33275856 838.179804626 c 0,197,198
 863.845500255 890.283430013 863.845500255 890.283430013 867.566655358 918.003659921 c 1,174,-1
EndSplineSet
Validated: 1
EndChar

StartChar: dollar
Encoding: 36 36 7
Width: 1280
GlyphClass: 2
Flags: W
LayerCount: 2
Fore
SplineSet
729 13.0724401281 m 1,0,-1
 729 -133 l 1,1,-1
 475 -133 l 1,2,-1
 475 -3.74934899378 l 1,3,4
 408.803346719 2.33301942349 408.803346719 2.33301942349 315.308842601 28.4037929518 c 0,5,6
 261.164324047 43.5018941112 261.164324047 43.5018941112 208.710370732 66.0488871455 c 256,7,8
 156.256417418 88.5958801798 156.256417418 88.5958801798 112.954241785 120.899712468 c 256,9,10
 69.6520661522 153.203544755 69.6520661522 153.203544755 41.3260330761 197.632124434 c 256,11,12
 13 242.060704113 13 242.060704113 13 298.777836974 c 0,13,14
 13 346.726210873 13 346.726210873 45.9634930238 382.588198671 c 256,15,16
 78.9269860477 418.450186468 78.9269860477 418.450186468 135 418.450186468 c 0,17,18
 165.572026666 418.450186468 165.572026666 418.450186468 196.717664333 401.508042668 c 0,19,20
 221.260171774 388.157772086 221.260171774 388.157772086 248.567158709 367.766130473 c 2,21,-1
 303.064091657 327.079821216 l 2,22,23
 360.224523398 284.41350724 360.224523398 284.41350724 436.704263916 254.264061756 c 0,24,25
 454.879754214 247.099014513 454.879754214 247.099014513 475 243.64288848 c 1,26,-1
 475 727.933440532 l 1,27,-1
 399.531854599 747.200747465 l 2,28,29
 348.767001455 760.363570834 348.767001455 760.363570834 296.754545187 781.924562131 c 256,30,31
 244.742088919 803.485553427 244.742088919 803.485553427 199.466339428 836.259390465 c 256,32,33
 154.190589937 869.033227502 154.190589937 869.033227502 119.888127456 913.915176147 c 256,34,35
 85.5856649755 958.797124792 85.5856649755 958.797124792 72.8340029027 1017.61831177 c 2,36,-1
 72 1021.4654213 l 1,37,-1
 72 1083.82844965 l 2,38,39
 72 1173.17188557 72 1173.17188557 101.640068296 1248.31778417 c 256,40,41
 131.280136593 1323.46368277 131.280136593 1323.46368277 185.498981814 1380.13871425 c 256,42,43
 239.685967711 1436.78044313 239.685967711 1436.78044313 313.646591773 1471.15840201 c 256,44,45
 387.607215835 1505.53636089 387.607215835 1505.53636089 475 1516.39459777 c 1,46,-1
 475 1664 l 1,47,-1
 729 1664 l 1,48,-1
 729 1516.69009451 l 1,49,50
 751.485346046 1515.60628663 751.485346046 1515.60628663 776 1515.60628663 c 0,51,52
 826.827576006 1515.60628663 826.827576006 1515.60628663 877.555667689 1506.30641441 c 0,53,54
 925.644403454 1497.49040966 925.644403454 1497.49040966 972.119112068 1486.36693451 c 256,55,56
 1018.59382068 1475.24345937 1018.59382068 1475.24345937 1057.43348764 1457.48380631 c 256,57,58
 1096.2731546 1439.72415326 1096.2731546 1439.72415326 1122.07177058 1412.61544215 c 0,59,60
 1153 1380.11662758 1153 1380.11662758 1153 1336.57645178 c 0,61,62
 1153 1288.62807789 1153 1288.62807789 1121.03570681 1253.85315001 c 0,63,64
 1098.47112729 1229.30445686 1098.47112729 1229.30445686 1064.51370284 1220.88975663 c 0,65,66
 1048.42964134 1216.90410229 1048.42964134 1216.90410229 1031 1216.90410229 c 2,67,-1
 1014.68050061 1216.90410229 l 1,68,69
 926.864588161 1235.13682115 926.864588161 1235.13682115 876.247608854 1247.3259417 c 256,70,71
 825.630629546 1259.51506224 825.630629546 1259.51506224 806.410996763 1262.96710272 c 0,72,73
 767.988759039 1269.86812531 767.988759039 1269.86812531 729 1272.19888097 c 1,74,-1
 729 916.025455471 l 1,75,-1
 860.111335394 882.500081851 l 2,76,77
 932.71615042 864.366957401 932.71615042 864.366957401 1002.58751468 832.680627753 c 0,78,79
 1074.30562361 800.156808232 1074.30562361 800.156808232 1130.12884501 752.420448021 c 0,80,81
 1187.12074673 703.684709009 1187.12074673 703.684709009 1222.50813585 638.573244534 c 0,82,83
 1259 571.429587553 1259 571.429587553 1259 487.381459776 c 0,84,85
 1259 415.185090492 1259 415.185090492 1234.59461762 354.116965629 c 0,86,87
 1186.90394382 234.783452374 1186.90394382 234.783452374 1071.21450128 153.058645969 c 0,88,89
 926.479295444 50.8154644223 926.479295444 50.8154644223 729 13.0724401281 c 1,0,-1
981.75859454 385.313940763 m 256,90,91
 1009 424.525054682 1009 424.525054682 1009 475 c 0,92,93
 1009 502.122123469 1009 502.122123469 994.978504466 525.996561811 c 256,94,95
 980.957008932 549.871000152 980.957008932 549.871000152 956.504545399 570.529115896 c 256,96,97
 932.052081865 591.18723164 932.052081865 591.18723164 901.04072986 606.249888328 c 256,98,99
 870.029377855 621.312545016 870.029377855 621.312545016 839.750964243 629.327419208 c 2,100,-1
 729 658.906799835 l 1,101,-1
 729 241.038338739 l 1,102,103
 764.993230371 250.327379643 764.993230371 250.327379643 801.745070603 263.247948474 c 0,104,105
 861.070506427 284.104547006 861.070506427 284.104547006 908.926608481 315.8552301 c 0,106,107
 954.51718908 346.102826844 954.51718908 346.102826844 981.75859454 385.313940763 c 256,90,91
336.312411022 1183.32278106 m 256,108,109
 322 1148.15514255 322 1148.15514255 322 1095 c 0,110,111
 322 1063.43409682 322 1063.43409682 355.68298332 1036.96889564 c 0,112,113
 372.471030061 1023.77828748 372.471030061 1023.77828748 394.550417268 1014.43700828 c 256,114,115
 416.629804474 1005.09572908 416.629804474 1005.09572908 437.568537169 999.846647117 c 2,116,-1
 475 990.811466434 l 1,117,-1
 475 1289.30747924 l 1,118,119
 412.120882371 1274.12971225 412.120882371 1274.12971225 375.320338943 1240.83398248 c 0,120,121
 350.624822045 1218.49041957 350.624822045 1218.49041957 336.312411022 1183.32278106 c 256,108,109
EndSplineSet
Validated: 1
EndChar

StartChar: percent
Encoding: 37 37 8
Width: 1659
GlyphClass: 2
Flags: W
LayerCount: 2
Fore
SplineSet
160.969496047 5.47076704541 m 0,0,1
 125 38.1769112936 125 38.1769112936 125 85.672791055 c 0,2,3
 125 105.217757951 125 105.217757951 127.330409799 122.353874239 c 0,4,5
 131.062404756 149.79621489 131.062404756 149.79621489 154.532138216 171.180248954 c 1,6,-1
 755.942106279 789.118232795 l 1,7,-1
 1047.53469395 1119.79025846 l 2,8,9
 1058.1092037 1131.36700565 1058.1092037 1131.36700565 1077.07340451 1163.30526941 c 0,10,11
 1096.03760532 1195.24353317 1096.03760532 1195.24353317 1114.02702044 1226.18019565 c 0,12,13
 1171.77725857 1325.49413184 1171.77725857 1325.49413184 1191.82503607 1356.83433791 c 0,14,15
 1211.87281357 1388.17454397 1211.87281357 1388.17454397 1224.99687197 1407.21910563 c 0,16,17
 1265.41452416 1465.86990144 1265.41452416 1465.86990144 1291.4551622 1488.21911646 c 0,18,19
 1314.82897538 1509.36188333 1314.82897538 1509.36188333 1339.38655752 1513.45481368 c 0,20,21
 1348.65767542 1515 1348.65767542 1515 1357 1515 c 2,22,-1
 1357.72629037 1515 l 1,23,24
 1401.0542398 1513.45257323 1401.0542398 1513.45257323 1434.06783209 1483.44021661 c 0,25,26
 1472 1450.32798617 1472 1450.32798617 1472 1396.67808961 c 0,27,28
 1472 1357.87239207 1472 1357.87239207 1458.77933078 1316.05806339 c 0,29,30
 1432.9577665 1234.38962753 1432.9577665 1234.38962753 1379.97078851 1149.22796961 c 0,31,32
 1331.69437912 1071.63722531 1331.69437912 1071.63722531 1279.88601545 1007.51829942 c 0,33,34
 1257.17101703 979.107662352 1257.17101703 979.107662352 1238.56315054 958.509128231 c 2,35,-1
 719.572867052 375.758313198 l 1,36,-1
 329.278725 -0.278725 l 2,37,38
 309.678588258 -19.8788617424 309.678588258 -19.8788617424 283.87551051 -25.2235037648 c 0,39,40
 264.993029334 -29 264.993029334 -29 248 -29 c 0,41,42
 196.938992095 -29 196.938992095 -29 160.969496047 5.47076704541 c 0,0,1
934 376.5 m 0,43,44
 934 447.233737744 934 447.233737744 959.344252392 514.199591752 c 0,45,46
 984.712916404 581.229947368 984.712916404 581.229947368 1031.04881037 634.240367092 c 0,47,48
 1077.38470434 687.250786817 1077.38470434 687.250786817 1143.78879017 720.125393408 c 0,49,50
 1210.19287599 753 1210.19287599 753 1292 753 c 0,51,52
 1374.66503662 753 1374.66503662 753 1441.04909756 720.674072564 c 0,53,54
 1507.43315851 688.348145129 1507.43315851 688.348145129 1553.90476452 635.714121317 c 0,55,56
 1600.37637053 583.080097505 1600.37637053 583.080097505 1625.27978979 515.291294442 c 0,57,58
 1650 448.00119892 1650 448.00119892 1650 376.974779319 c 0,59,60
 1650 304.951616972 1650 304.951616972 1625.24794847 238.097147748 c 0,61,62
 1600.37816944 170.924700445 1600.37816944 170.924700445 1554.29139631 118.199286556 c 0,63,64
 1507.52534282 64.6967443145 1507.52534282 64.6967443145 1441.71268014 32.6490610587 c 0,65,66
 1374.66503662 7.1054273576e-14 1374.66503662 7.1054273576e-14 1292.42895631 3.5527136788e-14 c 0,67,68
 1210.19287599 1.79203716459e-15 1210.19287599 1.79203716459e-15 1143.78879017 32.8746065916 c 0,69,70
 1077.38470434 65.7492131832 1077.38470434 65.7492131832 1031.04881037 118.759632908 c 0,71,72
 984.712916404 171.770052632 984.712916404 171.770052632 959.344252392 238.800408248 c 0,73,74
 934 305.766262256 934 305.766262256 934 376.5 c 0,43,44
1192.70873341 420.302000459 m 0,75,76
 1185 398.406056494 1185 398.406056494 1185 376.928315412 c 0,77,78
 1185 355.375213618 1185 355.375213618 1192.85291791 332.715671591 c 0,79,80
 1208.64073452 287.160032471 1208.64073452 287.160032471 1248.81530966 266.12877838 c 0,81,82
 1266.2533945 257 1266.2533945 257 1289 257 c 0,83,84
 1306.65953336 257 1306.65953336 257 1317.05221015 260.030327763 c 0,85,86
 1327.44488694 263.060655526 1327.44488694 263.060655526 1335.74921763 266.998621865 c 0,87,88
 1354.09176117 275.69677247 1354.09176117 275.69677247 1368.43646157 292.188712976 c 0,89,90
 1382.78116198 308.680653481 1382.78116198 308.680653481 1390.89058099 331.257682934 c 0,91,92
 1399 353.834712387 1399 353.834712387 1399 376.928315412 c 0,93,94
 1399 399.945403317 1399 399.945403317 1390.91742242 422.101515629 c 0,95,96
 1374.27051243 467.734335564 1374.27051243 467.734335564 1333.66967768 486.987509185 c 0,97,98
 1314.66425771 496 1314.66425771 496 1289 496 c 0,99,100
 1273.33414071 496 1273.33414071 496 1263.99058661 492.962054393 c 0,101,102
 1234.66292125 483.426512442 1234.66292125 483.426512442 1215.11324187 459.890387738 c 0,103,104
 1200.41746682 442.197944423 1200.41746682 442.197944423 1192.70873341 420.302000459 c 0,75,76
104.553296361 946.372801153 m 0,105,106
 67 1027.70247725 67 1027.70247725 67 1119 c 0,107,108
 67 1196.32682602 67 1196.32682602 93.5688215928 1266.62349982 c 0,109,110
 120.128202477 1336.89519507 120.128202477 1336.89519507 168.219511614 1391.69691944 c 0,111,112
 216.310820752 1446.49864381 216.310820752 1446.49864381 283.630361845 1479.036422 c 0,113,114
 351.830868048 1512 351.830868048 1512 434.292235437 1512 c 0,115,116
 516.753602827 1512 516.753602827 1512 585.328039893 1480.52320922 c 0,117,118
 653.902476958 1449.04641843 653.902476958 1449.04641843 703.240030534 1395.78428673 c 0,119,120
 752.57758411 1342.52215503 752.57758411 1342.52215503 779.833823449 1271.87843266 c 0,121,122
 807 1201.46813833 807 1201.46813833 807 1123.16771576 c 0,123,124
 807 1044.86729318 807 1044.86729318 781.062206203 974.228195182 c 0,125,126
 755.077654433 903.46175632 755.077654433 903.46175632 707.553924433 848.110588437 c 0,127,128
 660.030194433 792.759420555 660.030194433 792.759420555 592.705016077 759.379710277 c 0,129,130
 525.379837721 726 525.379837721 726 443.275320881 726 c 0,131,132
 361.170804042 726 361.170804042 726 292.116264521 758.000884168 c 0,133,134
 164.150645786 817.302024557 164.150645786 817.302024557 104.553296361 946.372801153 c 0,105,106
353.64416583 1219.71608214 m 0,135,136
 337.047685362 1200.41784904 337.047685362 1200.41784904 327.5375247 1174.66116391 c 0,137,138
 318 1148.83036785 318 1148.83036785 318 1122.81167089 c 0,139,140
 318 1096.79297394 318 1096.79297394 327.283894359 1070.1522336 c 0,141,142
 336.629486738 1043.33444678 336.629486738 1043.33444678 353.189031912 1022.04360298 c 0,143,144
 369.748577085 1000.75275919 369.748577085 1000.75275919 391.225235791 988.376379593 c 0,145,146
 412.701894497 976 412.701894497 976 438.212123957 976 c 0,147,148
 463.722353416 976 463.722353416 976 485.56562795 988.013800993 c 0,149,150
 528.882208357 1011.83792022 528.882208357 1011.83792022 546.986443514 1066.97354547 c 0,151,152
 556 1094.42392204 556 1094.42392204 556 1122 c 0,153,154
 556 1178.80293005 556 1178.80293005 523.310406025 1219.46559573 c 0,155,156
 507.785211579 1238.77742296 507.785211579 1238.77742296 485.719153082 1250.95180007 c 0,157,158
 465.6942907 1262 465.6942907 1262 440.211679551 1262 c 0,159,160
 414.729068403 1262 414.729068403 1262 392.48485735 1250.50715762 c 0,161,162
 370.240646298 1239.01431525 370.240646298 1239.01431525 353.64416583 1219.71608214 c 0,135,136
EndSplineSet
Validated: 1
EndChar

StartChar: ampersand
Encoding: 38 38 9
Width: 1247
GlyphClass: 2
Flags: W
LayerCount: 2
Fore
SplineSet
1250 12 m 0,0,1
 1250 -34.55745 1250 -34.55745 1217.278725 -67.278725 c 256,2,3
 1184.55745 -100 1184.55745 -100 1139.61617807 -100 c 256,4,5
 1094.67490614 -100 1094.67490614 -100 1064.03359614 -77.0190175036 c 0,6,7
 1040.27145749 -59.1974135158 1040.27145749 -59.1974135158 1016.5905053 -30.7802708821 c 1,8,-1
 862.687478623 174.715247692 l 1,9,-1
 812.045401798 128.039163176 l 2,10,11
 766.956445301 86.6202380221 766.956445301 86.6202380221 715.927486173 51.5378286215 c 256,12,13
 664.898527044 16.4554192209 664.898527044 16.4554192209 606.276212313 -6.77229038954 c 256,14,15
 547.653897582 -30 547.653897582 -30 482 -30 c 0,16,17
 391.753493272 -30 391.753493272 -30 305.398592919 -2.47437551245 c 256,18,19
 219.043692565 25.0512489751 219.043692565 25.0512489751 150.897014054 78.3595378104 c 256,20,21
 82.7503355432 131.667826646 82.7503355432 131.667826646 40.3751677716 210.284914222 c 256,22,23
 -2 288.902001798 -2 288.902001798 -2 389 c 0,24,25
 -2 475.965921504 -2 475.965921504 31.5725669019 539.194255836 c 256,26,27
 65.1451338038 602.422590167 65.1451338038 602.422590167 111.744460721 652.19914392 c 256,28,29
 158.343787638 701.975697672 158.343787638 701.975697672 211.064385615 746.943266535 c 0,30,31
 245.829792235 776.596113358 245.829792235 776.596113358 277.175783449 810.403344544 c 1,32,33
 254.550454515 833.262691411 254.550454515 833.262691411 232.322798448 856.125403393 c 0,34,35
 194.907095814 894.610126103 194.907095814 894.610126103 165.448230739 937.707354639 c 256,36,37
 135.989365663 980.804583176 135.989365663 980.804583176 117.994682832 1031.97696248 c 256,38,39
 100 1083.14934178 100 1083.14934178 100 1144 c 0,40,41
 100 1230.22670439 100 1230.22670439 139.880166736 1303.15043785 c 0,42,43
 178.698006599 1374.13163075 178.698006599 1374.13163075 241.466751219 1424.78710886 c 256,44,45
 304.23549584 1475.44258698 304.23549584 1475.44258698 382.658401166 1503.21736594 c 256,46,47
 461.103485558 1531 461.103485558 1531 538 1531 c 0,48,49
 629.638739783 1531 629.638739783 1531 720.430030181 1484.12443117 c 0,50,51
 771.892457953 1457.55436521 771.892457953 1457.55436521 814.645991696 1419.32283984 c 0,52,53
 872.126226005 1367.9222457 872.126226005 1367.9222457 908.063113003 1298.856041 c 256,54,55
 944 1229.7898363 944 1229.7898363 944 1152 c 0,56,57
 944 1087.13413292 944 1087.13413292 921.469003183 1031.93319072 c 256,58,59
 898.938006366 976.732248518 898.938006366 976.732248518 863.09696033 931.116371744 c 256,60,61
 827.255914294 885.500494971 827.255914294 885.500494971 783.579273729 846.617632029 c 0,62,63
 753.709210719 820.025990569 753.709210719 820.025990569 723.306666703 795.240550894 c 1,64,-1
 884.088517473 570.596750053 l 1,65,-1
 1005.74319449 739.649353181 l 2,66,67
 1025.12425369 765.490765443 1025.12425369 765.490765443 1051.2453024 775.068483306 c 0,68,69
 1072.87671157 783 1072.87671157 783 1098 783 c 0,70,71
 1146.37478008 783 1146.37478008 783 1180.44989824 754.850989341 c 0,72,73
 1218 723.831340063 1218 723.831340063 1218 670 c 0,74,75
 1218 646.931558093 1218 646.931558093 1209.74702993 624.235890398 c 256,76,77
 1201.49405986 601.540222703 1201.49405986 601.540222703 1187.65450868 584.527055203 c 1,78,-1
 1024.07778205 360.084569816 l 1,79,-1
 1230.37124907 81.4919905149 l 2,80,81
 1243.8244404 62.9938524324 1243.8244404 62.9938524324 1246.9122202 45.2391185921 c 256,82,83
 1250 27.4843847518 1250 27.4843847518 1250 12 c 0,0,1
238 392 m 0,84,85
 238 345.152097919 238 345.152097919 258.868303043 310.639135194 c 256,86,87
 279.736606086 276.126172469 279.736606086 276.126172469 314.254853335 252.552735323 c 0,88,89
 364.943882491 217.935837363 364.943882491 217.935837363 441.137719925 208.045255427 c 0,90,91
 464.597380685 205 464.597380685 205 484.234290105 205 c 256,92,93
 503.871199525 205 503.871199525 205 524.471135831 213.715357668 c 0,94,95
 577.112477443 235.986694504 577.112477443 235.986694504 646.654778655 301.18260189 c 0,96,97
 661.316200259 314.774171296 661.316200259 314.774171296 676.647632625 329.65467918 c 256,98,99
 691.97906499 344.535187064 691.97906499 344.535187064 709.750583953 361.328800855 c 1,100,-1
 724.619189755 376.979964857 l 1,101,-1
 536.513170039 648.996022778 l 1,102,103
 533.004449871 657.767823199 533.004449871 657.767823199 517.263147658 675.258158992 c 0,104,105
 511.517453911 681.642263155 511.517453911 681.642263155 505.479479255 685.940281777 c 1,106,107
 477.674246842 684.649527275 477.674246842 684.649527275 432.906182178 656.426414372 c 0,108,109
 383.838915564 625.492957321 383.838915564 625.492957321 339.524734004 577.024321239 c 0,110,111
 276.741120933 508.354744443 276.741120933 508.354744443 250.01495221 443.321067218 c 0,112,113
 238 414.084683506 238 414.084683506 238 392 c 0,84,85
360.801023795 1068.25026841 m 0,114,115
 376.661263822 1040.74237222 376.661263822 1040.74237222 397.672211798 1015.66478915 c 0,116,117
 424.875574263 983.196259757 424.875574263 983.196259757 457.943743803 961.44088506 c 0,118,119
 485.973889094 943 485.973889094 943 508 943 c 0,120,121
 523.49820962 943 523.49820962 943 544.745500752 952.443240503 c 256,122,123
 565.992791885 961.886481006 565.992791885 961.886481006 583.718793714 974.688593438 c 0,124,125
 613.345181856 996.085429319 613.345181856 996.085429319 635.012410815 1019.55826069 c 0,126,127
 680.565707117 1068.90766502 680.565707117 1068.90766502 701.319061619 1116.46743575 c 0,128,129
 710 1136.36125288 710 1136.36125288 710 1149.67326044 c 0,130,131
 710 1174.35483926 710 1174.35483926 695.228678509 1197.56691589 c 0,132,133
 677.558888047 1225.33372947 677.558888047 1225.33372947 651.181369203 1247.45680979 c 256,134,135
 624.803850359 1269.57989011 624.803850359 1269.57989011 594.255598302 1282.78994506 c 256,136,137
 563.707346244 1296 563.707346244 1296 540 1296 c 0,138,139
 508.586655014 1296 508.586655014 1296 471.773520732 1283.58626867 c 0,140,141
 434.053536807 1270.86673921 434.053536807 1270.86673921 402.425347901 1249.06893334 c 256,142,143
 370.797158996 1227.27112747 370.797158996 1227.27112747 352.398579498 1200.43986571 c 256,144,145
 334 1173.60860394 334 1173.60860394 334 1144.17119604 c 256,146,147
 334 1114.73378813 334 1114.73378813 360.801023795 1068.25026841 c 0,114,115
EndSplineSet
Validated: 1
EndChar

StartChar: quotesingle
Encoding: 39 39 10
Width: 542
GlyphClass: 2
Flags: W
LayerCount: 2
Fore
SplineSet
463 1504.59382561 m 1,0,-1
 463 1438 l 2,1,2
 463 1303.66052812 463 1303.66052812 402.142253719 1163.79447965 c 0,3,4
 340.757461646 1022.7171505 340.757461646 1022.7171505 264.777321398 969.122628353 c 0,5,6
 218.52073657 937 218.52073657 937 176 937 c 0,7,8
 109.701474566 937 109.701474566 937 64.0462146755 982.397255553 c 0,9,10
 29.2495980707 1015.80453053 29.2495980707 1015.80453053 29.2495980707 1049.08692447 c 0,11,12
 29.2495980707 1073.57476954 29.2495980707 1073.57476954 45.9299025761 1092.36939741 c 0,13,14
 157.940087841 1222.38754713 157.940087841 1222.38754713 190.821158374 1382.0955868 c 0,15,16
 203.28686552 1440.3362898 203.28686552 1440.3362898 208.395490025 1478.65097359 c 0,17,18
 215.469708888 1525.81243267 215.469708888 1525.81243267 239.810087222 1554.28071143 c 0,19,20
 272.915078953 1593 272.915078953 1593 330.5 1593 c 0,21,22
 413.267049096 1593 413.267049096 1593 450.198176902 1531.95773426 c 0,23,24
 456.049203911 1522.28676111 456.049203911 1522.28676111 463 1504.59382561 c 1,0,-1
EndSplineSet
Validated: 1
EndChar

StartChar: parenleft
Encoding: 40 40 11
Width: 720
GlyphClass: 2
Flags: W
LayerCount: 2
Fore
SplineSet
126 573 m 0,0,1
 126 676.48131415 126 676.48131415 174.953864198 852.715225263 c 0,2,3
 252.688747845 1132.56080639 252.688747845 1132.56080639 389.275894815 1357.70445524 c 0,4,5
 488.578993124 1521.39088103 488.578993124 1521.39088103 601.543174676 1591.06972199 c 0,6,7
 664.657413275 1630 664.657413275 1630 731 1630 c 0,8,9
 790.627790913 1630 790.627790913 1630 828.014171231 1595.48949509 c 0,10,11
 864.055782712 1562.45135123 864.055782712 1562.45135123 866.932314465 1499.42994949 c 0,12,13
 868 1485 868 1485 868 1470 c 0,14,15
 868 1441.97841982 868 1441.97841982 849.856520706 1419.29907071 c 1,16,17
 760.506543785 1329.94909378 760.506543785 1329.94909378 680.148473899 1234.40138874 c 0,18,19
 599.790404014 1138.85368369 599.790404014 1138.85368369 538.768686883 1035.21362444 c 0,20,21
 477.746969752 931.573565184 477.746969752 931.573565184 441.09867268 817.288744049 c 0,22,23
 405 704.717883193 405 704.717883193 405 580 c 0,24,25
 405 485.155351413 405 485.155351413 432.673277229 396.976095159 c 0,26,27
 461.08146492 306.455090312 461.08146492 306.455090312 503.870913266 225.683996805 c 0,28,29
 547.135412245 144.016178509 547.135412245 144.016178509 598.279504247 72.2177416597 c 0,30,31
 649.423596248 0.419304810942 649.423596248 0.419304810942 694.213362006 -60.4746463882 c 0,32,33
 739.003127764 -121.368597587 739.003127764 -121.368597587 769.195632318 -168.448435196 c 0,34,35
 805 -224.278974633 805 -224.278974633 805 -266 c 0,36,37
 805 -324.11697019 805 -324.11697019 767.500763425 -363.058485095 c 0,38,39
 730.001526849 -402 730.001526849 -402 669 -402 c 0,40,41
 646.209639059 -402 646.209639059 -402 627.094300839 -397.385952843 c 0,42,43
 602.422310359 -391.430644797 602.422310359 -391.430644797 579.958417515 -370.464344809 c 0,44,45
 479.566039287 -278.267262763 479.566039287 -278.267262763 396.057610362 -172.216681245 c 0,46,47
 224.303120091 45.9009843146 224.303120091 45.9009843146 159.227211458 302.137374556 c 0,48,49
 126 432.969519672 126 432.969519672 126 573 c 0,0,1
EndSplineSet
Validated: 1
EndChar

StartChar: parenright
Encoding: 41 41 12
Width: 871
GlyphClass: 2
Flags: W
LayerCount: 2
Fore
SplineSet
236 -400 m 0,0,1
 174.998473151 -400 174.998473151 -400 137.499236575 -361.058485095 c 0,2,3
 100 -322.11697019 100 -322.11697019 100 -264 c 0,4,5
 100 -240.732706172 100 -240.732706172 109.140564888 -217.252756171 c 0,6,7
 118.281129775 -193.772806169 118.281129775 -193.772806169 134.629722856 -168.280084755 c 0,8,9
 165.996872235 -119.368597587 165.996872235 -119.368597587 210.786637994 -58.4746463882 c 0,10,11
 255.576403752 2.41930481103 255.576403752 2.41930481103 306.720495753 74.2177416598 c 0,12,13
 420.563583482 234.03592251 420.563583482 234.03592251 472.326722771 398.976095159 c 0,14,15
 500 487.155351413 500 487.155351413 500 582 c 0,16,17
 500 706.717883193 500 706.717883193 463.626515124 820.145724188 c 0,18,19
 427.253030248 933.573565184 427.253030248 933.573565184 366.231313117 1037.21362444 c 0,20,21
 305.209595986 1140.85368369 305.209595986 1140.85368369 225.376191636 1235.77754862 c 0,22,23
 144.493456215 1331.94909378 144.493456215 1331.94909378 54.2279200538 1422.21462995 c 1,24,-1
 52.2084502219 1425.09958685 l 2,25,26
 38 1445.39737288 38 1445.39737288 38 1472 c 2,27,-1
 38 1499.86485481 l 1,28,29
 40.7403970968 1564.26418659 40.7403970968 1564.26418659 77.5561240609 1598.13209329 c 0,30,31
 114.371851025 1632 114.371851025 1632 174 1632 c 0,32,33
 240.342586725 1632 240.342586725 1632 301.140102815 1594.49872839 c 0,34,35
 361.937618905 1556.99745679 361.937618905 1556.99745679 415.123036975 1497.42978855 c 0,36,37
 468.308455046 1437.86212031 468.308455046 1437.86212031 515.724105185 1359.70445524 c 0,38,39
 640.669357423 1153.75074276 640.669357423 1153.75074276 718.004102861 896.353641002 c 0,40,41
 749.543186944 791.380529767 749.543186944 791.380529767 764.271593472 709.490589472 c 0,42,43
 779 627.600649177 779 627.600649177 779 575 c 0,44,45
 779 434.969519672 779 434.969519672 745.850751168 304.444352396 c 0,46,47
 680.696879909 47.9009843146 680.696879909 47.9009843146 508.942389638 -170.216681245 c 0,48,49
 425.439012854 -276.260846853 425.439012854 -276.260846853 325.279831193 -368.243768787 c 0,50,51
 302.580275707 -389.430020574 302.580275707 -389.430020574 277.905699161 -395.385952843 c 0,52,53
 258.790360941 -400 258.790360941 -400 236 -400 c 0,0,1
EndSplineSet
Validated: 1
EndChar

StartChar: asterisk
Encoding: 42 42 13
Width: 894
GlyphClass: 2
Flags: W
LayerCount: 2
Fore
SplineSet
223 844 m 2,0,-1
 199 844 l 2,1,2
 147.528335478 844 147.528335478 844 109.417149946 875.759321276 c 0,3,4
 68 910.273612898 68 910.273612898 68 969 c 0,5,6
 68 1001.22692138 68 1001.22692138 77.8022047379 1025.52238598 c 0,7,8
 91.94728356 1060.5819742 91.94728356 1060.5819742 124.450189686 1077.44258307 c 2,9,-1
 271.514098745 1155.83042139 l 1,10,-1
 128.674259129 1235.81357307 l 1,11,12
 85.8077525871 1264.7235426 85.8077525871 1264.7235426 73.078647805 1307.17406699 c 0,13,14
 68 1324.11094246 68 1324.11094246 68 1347.24676547 c 0,15,16
 68 1370.38258848 68 1370.38258848 74.920311739 1393.39033098 c 0,17,18
 81.840623478 1416.39807348 81.840623478 1416.39807348 100.397128269 1434.95457827 c 0,19,20
 118.953633061 1453.51108306 118.953633061 1453.51108306 142.895819818 1464.75554153 c 0,21,22
 166.838006576 1476 166.838006576 1476 193.930342074 1476 c 0,23,24
 248.155247169 1476 248.155247169 1476 274.884104333 1449.67038706 c 2,25,-1
 349.869876139 1378.07106947 l 1,26,27
 341.721146916 1450.18732309 341.721146916 1450.18732309 341.476835416 1451.97746936 c 0,28,29
 341.232523917 1453.76761564 341.232523917 1453.76761564 341.232523917 1455.49314067 c 0,0,0
 341.232523917 1457.21866571 341.232523917 1457.21866571 341.375 1458.578125 c 0,1,2
 341.375 1508.8884169 341.375 1508.8884169 389.093290349 1541.78888967 c 1,3,4
 447.30872456 1569.1451121 447.30872456 1569.1451121 462.078957914 1569.1451121 c 0,0,0
 463.154707299 1569.1451121 463.154707299 1569.1451121 464 1569 c 0,1,2
 523.127152151 1569 523.127152151 1569 548.16482445 1534.77315635 c 0,3,4
 595.641134233 1471.7133597 595.641134233 1471.7133597 597.484897378 1404.10877863 c 0,5,6
 597.682501703 1396.86328671 597.682501703 1396.86328671 597.854522816 1390.04458543 c 1,7,8
 638.883352856 1429.78201575 638.883352856 1429.78201575 646.995951509 1436.40538282 c 0,9,10
 690.863698742 1476 690.863698742 1476 728 1476 c 2,11,-1
 741 1476 l 2,12,13
 779.685612463 1475.49988092 779.685612463 1475.49988092 807.927011451 1460.10639937 c 0,14,15
 845.304311098 1439.28866286 845.304311098 1439.28866286 861.536661217 1394.84221841 c 0,16,17
 869.999999919 1372.18229066 869.999999919 1372.18229066 869.999999959 1347.08028604 c 0,18,19
 870 1321.97828142 870 1321.97828142 866.634274909 1307.71984603 c 0,20,21
 863.268549818 1293.46141065 863.268549818 1293.46141065 859.735697468 1285.32982545 c 0,22,23
 856.202845118 1277.19824025 856.202845118 1277.19824025 850.67895403 1270.44238471 c 0,24,25
 845.155062941 1263.68652917 845.155062941 1263.68652917 840.997431161 1258.99563675 c 0,26,27
 831.808451805 1248.62807273 831.808451805 1248.62807273 821.062179922 1240.26986126 c 1,28,-1
 682.889570365 1151.95334794 l 1,29,-1
 805.1120901 1086.14077745 l 2,30,31
 840.25126583 1066.97395432 840.25126583 1066.97395432 856.766218047 1035.44540918 c 0,32,33
 870 1010.18091636 870 1010.18091636 870 979 c 0,34,35
 870 923.700684708 870 923.700684708 845.102064902 889.716434215 c 0,36,37
 811.608761519 844 811.608761519 844 743 844 c 0,38,39
 707.231516127 844 707.231516127 844 661.186340637 877.813425117 c 0,40,41
 629.668093128 900.95895319 629.668093128 900.95895319 591 940.672710867 c 1,42,-1
 591 822.712552156 l 2,43,44
 591.184373217 822.096562005 591.184373217 822.096562005 594.019434567 815.035379487 c 0,45,46
 596.854495916 807.974196969 596.854495916 807.974196969 596.968914625 798.942806212 c 0,47,48
 597.083333333 789.911415455 597.083333333 789.911415455 595.820301126 784.004227334 c 0,49,50
 588.105353924 747.921501795 588.105353924 747.921501795 541.019361313 730.5290726 c 0,51,52
 502.665198201 719.981028644 502.665198201 719.981028644 493.706958538 719.981028644 c 0,0,0
 447.288060795 719.981028644 447.288060795 719.981028644 418.312707962 736.756232916 c 1,1,2
 373.285714286 765.273328911 373.285714286 765.273328911 373.285714286 805.040816327 c 0,3,4
 373.285714286 812.52201211 373.285714286 812.52201211 374.992036246 819.88867947 c 2,5,-1
 377 834.630893263 l 1,6,-1
 377 957.032656626 l 1,7,-1
 279.447742929 868.997692928 l 2,8,9
 266.408130807 857.49215282 266.408130807 857.49215282 252.962913814 850.747011105 c 0,10,11
 239.519383831 844 239.519383831 844 223 844 c 2,0,-1
EndSplineSet
Validated: 1
EndChar

StartChar: plus
Encoding: 43 43 14
Width: 1650
GlyphClass: 2
Flags: W
LayerCount: 2
Fore
SplineSet
697.866205766 639.839008801 m 1,0,1
 692.295323323 640 692.295323323 640 686.5 640 c 2,2,-1
 303.5 642 l 2,3,4
 260.704035984 642 260.704035984 642 238.463731334 646.91422534 c 0,5,6
 225.310761653 649.722820454 225.310761653 649.722820454 185.921921576 656.45341754 c 0,7,8
 150.959787494 661.206462059 150.959787494 661.206462059 119.750034739 674.582070454 c 0,9,10
 88.5402819832 687.95767885 88.5402819832 687.95767885 66.3925749728 714.258080925 c 0,11,12
 41 744.411763705 41 744.411763705 41 793 c 0,13,14
 41 848.71333955 41 848.71333955 73.6433302252 881.356669775 c 0,15,16
 102.301031103 910.014370652 102.301031103 910.014370652 150.421458351 916.613534296 c 0,17,18
 189.150280266 921.001067906 189.150280266 921.001067906 192.964787141 921.001067906 c 0,0,0
 196.779294015 921.001067906 196.779294015 921.001067906 196.888888889 921 c 0,1,2
 210.15169537 921 210.15169537 921 218.887014411 917.884630227 c 2,3,-1
 253.21546359 907 l 1,4,-1
 753 907 l 1,5,-1
 753 1410 l 2,6,7
 753 1464.90939675 753 1464.90939675 775.012992668 1502.26477824 c 0,8,9
 790.78074498 1529.02217611 790.78074498 1529.02217611 818.466920516 1541.1348779 c 0,10,11
 838.730056739 1550 838.730056739 1550 864 1550 c 0,12,13
 951.549335943 1550 951.549335943 1550 996.133661149 1492.47183844 c 0,14,15
 1016.97445993 1465.58048518 1016.97445993 1465.58048518 1024.93689701 1429.22187127 c 0,16,17
 1032.56336207 1399.30445727 1032.56336207 1399.30445727 1033.36363636 1369.4214876 c 0,18,19
 1033.36363636 1362.93309834 1033.36363636 1362.93309834 1032.22983167 1347.91399576 c 0,20,21
 1031.09602697 1332.89489319 1031.09602697 1332.89489319 1029.48257957 1309.70829672 c 0,22,23
 1027.86913217 1286.52170025 1027.86913217 1286.52170025 1026.43647594 1264.275029 c 0,24,25
 1025.00381972 1242.02835775 1025.00381972 1242.02835775 1023.75044952 1220.70141155 c 0,26,27
 1017.83128194 1119.98275044 1017.83128194 1119.98275044 1016.41564097 1050.77457536 c 0,28,29
 1015 981.566400287 1015 981.566400287 1015 921 c 2,30,-1
 1015 883.152032179 l 1,31,-1
 1482.98875916 860.998718136 l 1,32,33
 1536.31231193 860.859948646 1536.31231193 860.859948646 1565.53697325 843.325151856 c 0,34,35
 1586.26826781 830.88637512 1586.26826781 830.88637512 1596.43533141 808.518835193 c 0,36,37
 1605 789.676564292 1605 789.676564292 1605 762 c 0,38,39
 1605 698.467375776 1605 698.467375776 1578.2096072 663.433785193 c 0,40,41
 1551.4192144 628.400194611 1551.4192144 628.400194611 1497.82789617 605.258489012 c 2,42,-1
 1490.28192162 602 l 1,43,-1
 1336.1067437 602 l 1,44,45
 1156.69718563 609.886134421 1156.69718563 609.886134421 981.252611038 609.99832509 c 1,46,47
 958.131526404 452.427666787 958.131526404 452.427666787 952.865839174 413.37381983 c 0,48,49
 947.600151944 374.319972874 947.600151944 374.319972874 943.082947551 344.205276919 c 0,50,51
 935.576842702 294.164577926 935.576842702 294.164577926 931.071540741 262.6274642 c 0,52,53
 925.003093775 220.148335443 925.003093775 220.148335443 923.979838354 214.861515768 c 0,54,55
 922.956582934 209.574696093 922.956582934 209.574696093 921.903757835 202.245403947 c 0,56,57
 920.850932736 194.916111801 920.850932736 194.916111801 920.055036175 186.99339173 c 0,58,59
 918.449586999 171.012012952 918.449586999 171.012012952 917.986646684 152.957340651 c 0,60,61
 916.894993461 110.382864977 916.894993461 110.382864977 908.534959122 69.7769839017 c 0,62,63
 900.174924783 29.1711028259 900.174924783 29.1711028259 874.294635083 -2.01796424907 c 0,64,65
 842.777626694 -40 842.777626694 -40 781 -40 c 0,66,67
 747.02798276 -40 747.02798276 -40 717.386810415 -28.6515440344 c 0,68,69
 687.745638069 -17.3030880688 687.745638069 -17.3030880688 665.221275 5.221275 c 0,70,71
 642.767408183 27.6751418165 642.767408183 27.6751418165 631.383704092 57.0686476014 c 0,72,73
 620 86.4621533863 620 86.4621533863 620 120 c 2,74,-1
 620 152.993029334 l 1,75,76
 631.331651926 209.651288964 631.331651926 209.651288964 682.454557557 540.244607372 c 0,77,78
 685.64768322 560.425781628 685.64768322 560.425781628 689.873219378 580.244815277 c 0,79,80
 694.098755535 600.063848927 694.098755535 600.063848927 695.001979596 609.63880934 c 0,81,82
 695.052144586 617.662431568 695.052144586 617.662431568 697.866205766 639.839008801 c 1,0,1
EndSplineSet
Validated: 1
EndChar

StartChar: comma
Encoding: 44 44 15
Width: 720
GlyphClass: 2
Flags: W
LayerCount: 2
Fore
SplineSet
294.940594697 335.574163597 m 256,0,1
 314.933870638 342 314.933870638 342 332.317946696 342 c 256,2,3
 349.702022755 342 349.702022755 342 362.238453291 340.118503778 c 0,4,5
 432.669181364 329.548098715 432.669181364 329.548098715 460.155478275 260.832356436 c 2,6,-1
 463 253.721052123 l 1,7,-1
 463 187 l 2,8,9
 463 151.797025331 463 151.797025331 455.05323174 101.997277567 c 0,10,11
 438.108287679 -4.19103854778 438.108287679 -4.19103854778 392.690556769 -108.445375409 c 0,12,13
 369.072812879 -162.658832975 369.072812879 -162.658832975 337.431478097 -207.622835034 c 256,14,15
 305.790143314 -252.586837093 305.790143314 -252.586837093 265.212622193 -281.570780751 c 0,16,17
 219.811715245 -314 219.811715245 -314 166 -314 c 0,18,19
 125.030569684 -314 125.030569684 -314 84.43732341 -285.761107359 c 0,20,21
 46.6660948564 -259.485365311 46.6660948564 -259.485365311 33.9315166943 -224.754697596 c 0,22,23
 29.5483870968 -212.800707784 29.5483870968 -212.800707784 29.5483870968 -200.858480749 c 0,24,25
 29.5483870968 -177.016156067 29.5483870968 -177.016156067 45.9814207677 -158.571950991 c 0,26,27
 88.5426260882 -109.350069888 88.5426260882 -109.350069888 116.674848144 -62.4630267539 c 0,28,29
 169.087628413 24.8916070271 169.087628413 24.8916070271 190.819046266 130.585321131 c 0,30,31
 199.734100694 173.944904031 199.734100694 173.944904031 209.480706181 240.214069395 c 0,32,33
 213.136479018 263.611015554 213.136479018 263.611015554 225.489019071 283.535369962 c 256,34,35
 237.841559123 303.45972437 237.841559123 303.45972437 256.39443894 316.304025782 c 256,36,37
 274.947318757 329.148327193 274.947318757 329.148327193 294.940594697 335.574163597 c 256,0,1
EndSplineSet
Validated: 1
EndChar

StartChar: hyphen
Encoding: 45 45 16
AltUni2: 0000ad.ffffffff.0
Width: 893
GlyphClass: 2
Flags: W
LayerCount: 2
Fore
SplineSet
338.1328125 462.06640625 m 0,0,1
 208.237304688 462.06640625 208.237304688 462.06640625 138.481445312 479.74609375 c 0,2,3
 102.080078125 488.97265625 102.080078125 488.97265625 78.0283203125 503.924804688 c 0,4,5
 45.0673828125 524.416015625 45.0673828125 524.416015625 36.6708984375 554.012695312 c 0,6,7
 34.251953125 562.5390625 34.251953125 562.5390625 34.251953125 569.99609375 c 128,-1,8
 34.251953125 577.454101562 34.251953125 577.454101562 35.44140625 583.740234375 c 0,9,10
 50.1923828125 664.834960938 50.1923828125 664.834960938 113.532226562 699.97265625 c 0,11,12
 148.438476562 719.336914062 148.438476562 719.336914062 194 723 c 1,13,14
 485.5625 741.5859375 485.5625 741.5859375 553.633789062 741.5859375 c 2,15,-1
 555.32421875 741.5859375 l 2,16,17
 699.181640625 741.5859375 699.181640625 741.5859375 768.93359375 721.56640625 c 0,18,19
 811.771484375 709.274414062 811.771484375 709.274414062 836.19140625 687.283203125 c 0,20,21
 861.458984375 664.528320312 861.458984375 664.528320312 861.458984375 635.7890625 c 0,22,23
 861.458984375 615.33984375 861.458984375 615.33984375 849.41015625 595.400390625 c 0,24,25
 817.877929688 543.697265625 817.877929688 543.697265625 779.122070312 516.186523438 c 0,26,27
 736.145507812 485.680664062 736.145507812 485.680664062 684.088867188 480.409179688 c 0,28,29
 502.915039062 462.06640625 502.915039062 462.06640625 338.1328125 462.06640625 c 0,0,1
EndSplineSet
Validated: 524289
EndChar

StartChar: period
Encoding: 46 46 17
Width: 731
GlyphClass: 2
Flags: W
LayerCount: 2
Fore
SplineSet
186.352539062 186.967773438 m 128,-1,1
 186.352539062 242.1328125 186.352539062 242.1328125 219.514648438 288.772460938 c 0,2,3
 250.724609375 332.66796875 250.724609375 332.66796875 303.58203125 354.349609375 c 0,4,5
 339.0625 368.903320312 339.0625 368.903320312 379.614257812 368.903320312 c 0,6,7
 438.989257812 368.903320312 438.989257812 368.903320312 487.819335938 336.57421875 c 0,8,9
 530.243164062 308.48828125 530.243164062 308.48828125 552 257 c 0,10,11
 566.020507812 223.8203125 566.020507812 223.8203125 566.020507812 190.990234375 c 2,12,-1
 566.020507812 187.4140625 l 2,13,14
 566.020507812 153.197265625 566.020507812 153.197265625 552.34765625 118.68359375 c 0,15,16
 540.474609375 88.337890625 540.474609375 88.337890625 514.958984375 60.8115234375 c 128,-1,17
 489.442382812 33.283203125 489.442382812 33.283203125 453.62109375 19.1572265625 c 128,-1,18
 417.801757812 5.0302734375 417.801757812 5.0302734375 378.430664062 5.0302734375 c 128,-1,19
 339.0625 5.0302734375 339.0625 5.0302734375 303.853515625 19.4736328125 c 0,20,21
 250.724609375 41.2666015625 250.724609375 41.2666015625 218.538085938 86.5341796875 c 128,-1,0
 186.352539062 131.801757812 186.352539062 131.801757812 186.352539062 186.967773438 c 128,-1,1
EndSplineSet
Validated: 524289
EndChar

StartChar: slash
Encoding: 47 47 18
Width: 944
GlyphClass: 2
Flags: W
LayerCount: 2
Fore
SplineSet
88.7794519941 -51.6142889939 m 256,0,1
 79 -27.2575436072 79 -27.2575436072 79 -0.438815343355 c 0,2,3
 79 49.9403537522 79 49.9403537522 101.532640988 110.027396386 c 0,4,5
 117.096481515 151.530971124 117.096481515 151.530971124 142.748143237 202.945813158 c 1,6,-1
 454.07042322 912.588980732 l 1,7,8
 502.726286661 1011.70277663 502.726286661 1011.70277663 562.04232415 1189.64244877 c 0,9,10
 600.148990826 1303.9624488 600.148990826 1303.9624488 643.782984294 1462.91485358 c 1,11,12
 660.628364614 1511.04451163 660.628364614 1511.04451163 697.221503113 1533.33474828 c 0,13,14
 726.221958016 1551 726.221958016 1551 765 1551 c 0,15,16
 791.845246399 1551 791.845246399 1551 816.904996523 1542.19522293 c 0,17,18
 854.560638134 1528.96486236 854.560638134 1528.96486236 880.052250735 1499.03934473 c 0,19,20
 898.989408845 1476.80833613 898.989408845 1476.80833613 904.72273268 1451.84494486 c 0,21,22
 908 1437.57543754 908 1437.57543754 908 1425.88809309 c 256,23,24
 908 1414.20074865 908 1414.20074865 907.745410379 1406.22101634 c 256,25,26
 907.490820758 1398.24128404 907.490820758 1398.24128404 906.9862167 1390.13259246 c 256,27,28
 906.481612642 1382.02390089 906.481612642 1382.02390089 905.725265069 1373.72678003 c 256,29,30
 904.968917496 1365.42965917 904.968917496 1365.42965917 903.969556767 1357.00406889 c 256,31,32
 902.970196039 1348.57847861 902.970196039 1348.57847861 901.721660889 1339.95594817 c 0,33,34
 883.576162958 1214.64100753 883.576162958 1214.64100753 818.273886414 1047.46717957 c 0,35,36
 746.443818623 863.582206028 746.443818623 863.582206028 665.027440005 711.539789473 c 1,37,-1
 386.243619361 75.0776715556 l 1,38,39
 374.363781706 53.0151159104 374.363781706 53.0151159104 365.501975539 21.0141491984 c 256,40,41
 356.640169373 -10.9868175136 356.640169373 -10.9868175136 340.646600584 -44.7510182894 c 256,42,43
 324.653031796 -78.5152190653 324.653031796 -78.5152190653 296.969262369 -102.979945535 c 0,44,45
 264.130779685 -132 264.130779685 -132 209.898064701 -132 c 256,46,47
 155.665349716 -132 155.665349716 -132 117.493940065 -94.5488056261 c 0,48,49
 98.5589039882 -75.9710343805 98.5589039882 -75.9710343805 88.7794519941 -51.6142889939 c 256,0,1
EndSplineSet
Validated: 1
EndChar

StartChar: zero
Encoding: 48 48 19
Width: 1366
GlyphClass: 2
Flags: W
LayerCount: 2
Fore
SplineSet
78.5962746791 563.268272374 m 0,0,1
 75 661.351378042 75 661.351378042 75 765.554979967 c 0,2,3
 75 833.569900937 75 833.569900937 91.3933565624 946.616555839 c 0,4,5
 103.023852643 1024.94932739 103.023852643 1024.94932739 142.61987851 1121.98528803 c 0,6,7
 176.175723316 1206.58872974 176.175723316 1206.58872974 227.089405622 1279.87514216 c 0,8,9
 278.924377092 1354.48767798 278.924377092 1354.48767798 348.803259527 1409.11749077 c 0,10,11
 418.682141962 1463.74730356 418.682141962 1463.74730356 506.298091912 1495.40144913 c 0,12,13
 594.629765969 1529 594.629765969 1529 700 1529 c 0,14,15
 806.394829228 1529 806.394829228 1529 890.255041633 1489.39437875 c 0,16,17
 1048.12535025 1414.83516324 1048.12535025 1414.83516324 1138.05616462 1237.39857305 c 0,18,19
 1218.73894022 1078.20868145 1218.73894022 1078.20868145 1242.71858572 886.470606935 c 0,20,21
 1254 796.265910101 1254 796.265910101 1254 718.040532708 c 0,22,23
 1254 554.294635104 1254 554.294635104 1200.88336815 405.689036532 c 0,24,25
 1173.65455063 329.510359786 1173.65455063 329.510359786 1131.46403831 259.305139969 c 0,26,27
 1089.273526 189.099920153 1089.273526 189.099920153 1031.46025052 132.091579718 c 0,28,29
 973.646975048 75.0832392823 973.646975048 75.0832392823 899.031592625 35.4958771624 c 0,30,31
 824.416210201 -4.09148495752 824.416210201 -4.09148495752 730.342324585 -19 c 1,32,-1
 639 -19 l 2,33,34
 408.612180331 -19 408.612180331 -19 275.605727056 92.0857192856 c 0,35,36
 211.788835242 145.384977743 211.788835242 145.384977743 171.798921183 220.31113145 c 0,37,38
 133.542718037 291.988958836 133.542718037 291.988958836 107.867633698 378.587062771 c 0,39,40
 82.1925493582 465.185166706 82.1925493582 465.185166706 78.5962746791 563.268272374 c 0,0,1
335.679816207 884.711165205 m 0,41,42
 326 811.905119021 326 811.905119021 326 760.357142857 c 0,43,44
 326 607.939412436 326 607.939412436 328.101905774 575.801443212 c 0,45,46
 331.634286424 521.79162888 331.634286424 521.79162888 338.930977656 482.022395609 c 0,47,48
 349.758852314 423.00711603 349.758852314 423.00711603 369.03824412 376.794221719 c 0,49,50
 398.228740458 306.82431106 398.228740458 306.82431106 459.416647196 271.242198775 c 0,51,52
 480.367067136 259.059069225 480.367067136 259.059069225 506.355780334 250.136173697 c 0,53,54
 559.178971556 232 559.178971556 232 639 232 c 0,55,56
 700.752935886 232 700.752935886 232 750.794085198 251.97256398 c 0,57,58
 800.835234511 271.94512796 800.835234511 271.94512796 841.178277598 306.909098636 c 0,59,60
 899.180222806 357.177451149 899.180222806 357.177451149 939.826360552 438.549645845 c 0,61,62
 977.811855574 514.595323687 977.811855574 514.595323687 992.533592176 602.08450121 c 0,63,64
 1004 663.306928698 1004 663.306928698 1004 695.357142857 c 0,65,66
 1004 703.231959738 1004 703.231959738 1002.27206158 716.068073746 c 0,67,68
 998 747.80338831 998 747.80338831 998 831.857142857 c 0,69,70
 998 892.31849762 998 892.31849762 981.348266787 955.051353765 c 0,71,72
 964.696533574 1017.78420991 964.696533574 1017.78420991 940.476279589 1078.50784669 c 0,73,74
 917.445082955 1136.25034682 917.445082955 1136.25034682 882.332521212 1180.28762277 c 0,75,76
 848.704390056 1222.46316389 848.704390056 1222.46316389 803.401471561 1247.23158194 c 0,77,78
 758.098553065 1272 758.098553065 1272 694.51405443 1272 c 0,79,80
 602.861844973 1272 602.861844973 1272 528.924511237 1228.07317878 c 0,81,82
 459.969944615 1187.10666339 459.969944615 1187.10666339 414.347830331 1112.15604707 c 0,83,84
 383.948820559 1062.21481673 383.948820559 1062.21481673 364.217846806 1004.72253829 c 0,85,86
 343.245615362 940.036062453 343.245615362 940.036062453 335.679816207 884.711165205 c 0,41,42
EndSplineSet
Validated: 1
EndChar

StartChar: one
Encoding: 49 49 20
Width: 1013
GlyphClass: 2
Flags: W
LayerCount: 2
Fore
SplineSet
609.819893368 1511.19370299 m 0,0,1
 626.657675415 1514 626.657675415 1514 643 1514 c 0,2,3
 670.690907421 1514 670.690907421 1514 695.234794645 1503.42773313 c 0,4,5
 719.778681868 1493.39661243 719.778681868 1493.39661243 737.521117188 1474.54221782 c 0,6,7
 773 1436.83979171 773 1436.83979171 773 1383.47125958 c 2,8,-1
 773 1374.89978827 l 1,9,-1
 772.027474489 263.929239217 l 1,10,11
 872.217876293 245.709001148 872.217876293 245.709001148 877.138482334 244.387924923 c 0,12,13
 882.059088374 243.066848697 882.059088374 243.066848697 888.716943733 241.043412187 c 0,14,15
 897.37616967 238.41172481 897.37616967 238.41172481 905.212622193 233.100767505 c 0,16,17
 943.846859877 206.917391007 943.846859877 206.917391007 959.45767585 162.482082701 c 0,18,19
 967 141.013281868 967 141.013281868 967 122.698248254 c 0,20,21
 967 104.383214641 967 104.383214641 960.809850065 85.4581227966 c 0,22,23
 947.396124859 44.448456765 947.396124859 44.448456765 915.122115914 20.4833745576 c 0,24,25
 892.782248423 3 892.782248423 3 865 3 c 2,26,-1
 221 3 l 2,27,28
 194.427753032 3 194.427753032 3 166.200350724 6.60349816699 c 0,29,30
 137.972948416 10.206996334 137.972948416 10.206996334 111.668634449 23.7146170197 c 0,31,32
 85.364320482 37.2222377053 85.364320482 37.2222377053 67.682160241 64.1298728547 c 0,33,34
 50 91.037508004 50 91.037508004 50 131 c 0,35,36
 50 150.107103264 50 150.107103264 54.6034163058 172.466553892 c 0,37,38
 59.2068326117 194.82600452 59.2068326117 194.82600452 71.5771590495 215.20065983 c 0,39,40
 83.9474854874 235.575315139 83.9474854874 235.575315139 103.434774843 249.816026591 c 0,41,42
 126.949685823 267 126.949685823 267 159 267 c 2,43,-1
 494 267 l 1,44,-1
 494 1091.69557089 l 1,45,46
 360.131743255 1008.86547038 360.131743255 1008.86547038 245.260626505 999.535729461 c 0,47,48
 228.7368719 998.193683228 228.7368719 998.193683228 212 998.193683228 c 2,49,-1
 171.091257808 998.193683228 l 1,50,-1
 164.636068713 1000.34366577 l 2,51,52
 81 1028.19971846 81 1028.19971846 81 1117.39984211 c 0,53,54
 81 1155.25023223 81 1155.25023223 103.980982496 1184.01112096 c 0,55,56
 123.484893777 1208.42042644 123.484893777 1208.42042644 152.25036434 1225.29553103 c 0,57,58
 181.015834903 1242.17063563 181.015834903 1242.17063563 212.579576031 1253.72003158 c 0,59,60
 244.143317158 1265.26942752 244.143317158 1265.26942752 274.149723252 1275.12711237 c 0,61,62
 304.156129347 1284.98479721 304.156129347 1284.98479721 322.983860204 1291.85735642 c 0,63,64
 352.64583212 1302.68466532 352.64583212 1302.68466532 366.473339797 1312.0201944 c 0,65,66
 420.941139135 1349.70973602 420.941139135 1349.70973602 469.721275 1395.49628909 c 0,67,68
 520.424481395 1443.08789915 520.424481395 1443.08789915 568.970195388 1490.59342045 c 1,69,70
 587.857210016 1505.70303215 587.857210016 1505.70303215 609.819893368 1511.19370299 c 0,0,1
EndSplineSet
Validated: 1
EndChar

StartChar: two
Encoding: 50 50 21
Width: 1315
GlyphClass: 2
Flags: W
LayerCount: 2
Fore
SplineSet
113.306497875 37.6231807716 m 0,0,1
 75 70.117958439 75 70.117958439 75 122.444233652 c 0,2,3
 75 162.762706812 75 162.762706812 118.680638434 214.299835172 c 0,4,5
 155.32657376 257.536984181 155.32657376 257.536984181 214.042148782 310.726380767 c 0,6,7
 272.757723804 363.915777354 272.757723804 363.915777354 345.800545775 425.425333058 c 0,8,9
 418.843367747 486.934888761 418.843367747 486.934888761 494.677741617 554.851207349 c 0,10,11
 570.512115488 622.767525936 570.512115488 622.767525936 643.212807438 696.102907753 c 0,12,13
 714.820396237 768.337530504 714.820396237 768.337530504 770.727292403 843.164472345 c 0,14,15
 825.752450111 916.811277265 825.752450111 916.811277265 858.376225056 989.857750098 c 0,16,17
 891 1062.90422293 891 1062.90422293 891 1132.29890301 c 0,18,19
 891 1164.3038535 891 1164.3038535 873.112970802 1185.52572867 c 0,20,21
 851.976309313 1210.60309544 851.976309313 1210.60309544 817.87143566 1227.20000865 c 0,22,23
 783.766562007 1243.79692186 783.766562007 1243.79692186 741.469493 1251.39846093 c 0,24,25
 699.172423994 1259 699.172423994 1259 662 1259 c 0,26,27
 609.689089813 1259 609.689089813 1259 563.798156511 1235.76331093 c 0,28,29
 517.907223209 1212.52662185 517.907223209 1212.52662185 477.036263732 1174.93047171 c 0,30,31
 436.165304256 1137.33432158 436.165304256 1137.33432158 401.016694218 1092.23309586 c 0,32,33
 346.567882392 1022.36665876 346.567882392 1022.36665876 334.222198677 1007.62439766 c 0,34,35
 312.775519836 982.014431747 312.775519836 982.014431747 283.463698419 973.171843664 c 0,36,37
 259.69013815 966 259.69013815 966 232.820436113 966 c 0,38,39
 180.857952763 966 180.857952763 966 142.928976381 997.028396301 c 0,40,41
 105 1028.0567926 105 1028.0567926 105 1074.48605567 c 2,42,-1
 105 1080.82750796 l 1,43,44
 106 1091.02705166 106 1091.02705166 106 1097.20322118 c 0,45,46
 106 1113.12982096 106 1113.12982096 116.251225347 1134.04144176 c 1,47,-1
 219.73100301 1265.61572021 l 2,48,49
 273.069434108 1333.01308612 273.069434108 1333.01308612 336.768947371 1387.1552502 c 0,50,51
 400.468460634 1441.29741428 400.468460634 1441.29741428 478.944297466 1475.68646979 c 0,52,53
 560.013506318 1514 560.013506318 1514 662 1514 c 0,54,55
 747.279309494 1514 747.279309494 1514 833.527433915 1490.96478665 c 0,56,57
 919.775558336 1469.1336313 919.775558336 1469.1336313 990.74448217 1423.77267071 c 0,58,59
 1061.713406 1378.41171012 1061.713406 1378.41171012 1106.856703 1307.28390472 c 0,60,61
 1152 1236.15609932 1152 1236.15609932 1152 1139.3904487 c 0,62,63
 1152 1048.08242029 1152 1048.08242029 1121.06176852 957.591500451 c 0,64,65
 1063.64332355 789.648872429 1063.64332355 789.648872429 925.590918341 621.430693245 c 0,66,67
 861.533875806 543.376572832 861.533875806 543.376572832 792.363915378 472.519952394 c 0,68,69
 723.574000459 402.052644602 723.574000459 402.052644602 655.236106617 339.68552964 c 0,70,71
 632.942069359 319.339354092 632.942069359 319.339354092 611.662390136 300.212439831 c 1,72,73
 686.144358527 304.192156086 686.144358527 304.192156086 761.342073486 304.425560299 c 0,74,75
 771.298988744 307.283791067 771.298988744 307.283791067 782.16637287 307.283791067 c 0,76,77
 793.033756996 307.283791067 793.033756996 307.283791067 798.944631232 307.095472508 c 0,78,79
 804.855505468 306.907153949 804.855505468 306.907153949 811.761420899 306.52623786 c 0,80,81
 825.044575433 305.793566381 825.044575433 305.793566381 855.022287717 303.695489689 c 0,82,83
 885 301.597412997 885 301.597412997 915.753216844 301.597412997 c 0,84,85
 946.506433688 301.597412997 946.506433688 301.597412997 960.100888765 300.958050912 c 0,86,87
 973.695343842 300.318688827 973.695343842 300.318688827 987.341699373 299.043255617 c 0,88,89
 1014.60661587 296.49498697 1014.60661587 296.49498697 1042.15677028 291.425064837 c 0,90,91
 1097.38613956 281.2614702 1097.38613956 281.2614702 1144.0235179 263.473815201 c 0,92,93
 1190.66089623 245.686160201 1190.66089623 245.686160201 1223.04378158 214.416877907 c 0,94,95
 1261 177.765921818 1261 177.765921818 1261 124.254508272 c 0,96,97
 1261 70.7430947258 1261 70.7430947258 1224.9693252 40.4595678381 c 0,98,99
 1208.52984811 24.9565390158 1208.52984811 24.9565390158 1188.26442367 16.4782695804 c 0,100,101
 1167.99899922 8.00000014498 1167.99899922 8.00000014498 1146 8 c 0,102,103
 1137.94857252 8 1137.94857252 8 1129.96981523 9.42697986614 c 0,104,105
 1090 14 1090 14 1044.06617547 14 c 0,106,107
 998.132350936 14 998.132350936 14 951.140341289 23.0952276737 c 0,108,109
 904.148331642 32.1904553473 904.148331642 32.1904553473 859.988366485 35.0455227651 c 0,110,111
 804.162322011 36.9999999773 804.162322011 36.9999999773 782 37 c 2,112,-1
 774.054362812 37 l 2,113,114
 773.449788589 36.9472971348 773.449788589 36.9472971348 772.62254102 36.9322291113 c 0,115,116
 771.795293451 36.9171610877 771.795293451 36.9171610877 770.938787431 36.8687811928 c 0,117,118
 755.619120959 36.003447106 755.619120959 36.003447106 634.994519105 36.0000141146 c 0,119,120
 573.412093866 33.0000000168 573.412093866 33.0000000168 503.824405107 33.0000000084 c 0,121,122
 434.236716349 33 434.236716349 33 374.338556016 23.3390063979 c 1,123,124
 308.968593028 16.4058285053 308.968593028 16.4058285053 239.877015347 3 c 1,125,-1
 206 3 l 2,126,127
 151.61299575 3 151.61299575 3 113.306497875 37.6231807716 c 0,0,1
EndSplineSet
Validated: 1
EndChar

StartChar: three
Encoding: 51 51 22
Width: 1306
GlyphClass: 2
Flags: W
LayerCount: 2
Fore
SplineSet
69.2380119435 242.694641494 m 0,0,1
 38 283.439874464 38 283.439874464 38 330 c 0,2,3
 38 356.14925913 38 356.14925913 47.9289196898 379.553141256 c 0,4,5
 57.8578393796 402.957023382 57.8578393796 402.957023382 74.5718086042 421.124381235 c 0,6,7
 91.2857778287 439.291739088 91.2857778287 439.291739088 114.997784714 449.6657421 c 0,8,9
 138.618945628 460 138.618945628 460 165 460 c 0,10,11
 213.515476322 460 213.515476322 460 261.082988968 444.144162452 c 0,12,13
 344.526273358 416.329734321 344.526273358 416.329734321 452.724941756 358.849191735 c 0,14,15
 552.582977797 305.799610088 552.582977797 305.799610088 646.566203954 280.087218026 c 0,16,17
 694.402242258 267 694.402242258 267 745 267 c 0,18,19
 805.204025241 267 805.204025241 267 865.441658192 279.876885305 c 0,20,21
 896.83377345 286.587518639 896.83377345 286.587518639 918.843921687 294.88822085 c 0,22,23
 940.854069924 303.188923062 940.854069924 303.188923062 952.956630723 309.673336608 c 0,24,25
 965.059191522 316.157750154 965.059191522 316.157750154 975.165316873 323.647553224 c 0,26,27
 994.800421043 338.199427302 994.800421043 338.199427302 1005.90021052 356.684157361 c 0,28,29
 1017 375.168887419 1017 375.168887419 1017 399.75 c 0,30,31
 1017 432.825629733 1017 432.825629733 1002.42408224 460.789478704 c 0,32,33
 971.00689263 521.06325084 971.00689263 521.06325084 896.986799391 569.179276994 c 0,34,35
 884.257345123 577.453932263 884.257345123 577.453932263 843.174152545 590.603823319 c 0,36,37
 802.090959966 603.753714375 802.090959966 603.753714375 719.408531676 621.497397372 c 0,38,39
 562.928052987 655.07817223 562.928052987 655.07817223 518.216129083 674.179569599 c 0,40,41
 477.348431135 691.638673791 477.348431135 691.638673791 440.298078123 707.164034784 c 1,42,43
 420.567981433 721.155329311 420.567981433 721.155329311 412.848966042 729.220092267 c 0,44,45
 399.533896354 743.131566117 399.533896354 743.131566117 391.970922565 757.075799042 c 0,46,47
 384.407948775 771.020031967 384.407948775 771.020031967 383.703974387 785.9464889 c 0,48,49
 383 800.872945833 383 800.872945833 383 816.4375 c 2,50,-1
 383 830.265625 l 2,51,52
 383 845.674029019 383 845.674029019 385.30462153 852.834055862 c 0,53,54
 394.267009245 880.678513528 394.267009245 880.678513528 410.759862771 892.975184661 c 2,55,-1
 847.459288729 1226.00588836 l 1,56,57
 805.293682714 1224.4251852 805.293682714 1224.4251852 763.222927671 1221.59140813 c 0,58,59
 665.326748923 1214.997365 665.326748923 1214.997365 564 1215 c 0,60,61
 543.0155317 1215 543.0155317 1215 516.663665897 1213.68240671 c 0,62,63
 490.311800094 1212.36481342 490.311800094 1212.36481342 475.773194888 1211.90877086 c 0,64,65
 446.801643063 1211 446.801643063 1211 418.200043279 1211 c 0,66,67
 293.079691165 1211 293.079691165 1211 214.441644694 1238.18352224 c 0,68,69
 165.062713386 1255.25278244 165.062713386 1255.25278244 132.945976202 1287.99925957 c 0,70,71
 96 1325.66966668 96 1325.66966668 96 1384 c 0,72,73
 96 1409.05322546 96 1409.05322546 104.888217346 1431.96945936 c 0,74,75
 113.776434692 1454.88569325 113.776434692 1454.88569325 131.479526992 1474.00475983 c 0,76,77
 149.182619293 1493.12382641 149.182619293 1493.12382641 173.787958645 1503.56191321 c 0,78,79
 198.393297996 1514 198.393297996 1514 226 1514 c 2,80,-1
 244 1514 l 2,81,82
 270.973325066 1514 270.973325066 1514 314.036026666 1509.89710811 c 0,83,84
 378.502472368 1503.75492828 378.502472368 1503.75492828 491.109052167 1490.73681529 c 0,85,86
 532.319345159 1486 532.319345159 1486 586.238943036 1486 c 0,87,88
 706.306467343 1486 706.306467343 1486 837.806467343 1497 c 0,89,90
 969.306467343 1508 969.306467343 1508 1105 1508 c 0,91,92
 1132.37959154 1508 1132.37959154 1508 1159.70111358 1503.75771979 c 0,93,94
 1180.21563859 1502.00180608 1180.21563859 1502.00180608 1210.44891084 1489.84730963 c 0,95,96
 1240.68218309 1478.31618559 1240.68218309 1478.31618559 1251.57578087 1472.49927829 c 0,97,98
 1262.46937864 1466.68237099 1262.46937864 1466.68237099 1269.95076886 1460.73079074 c 0,99,100
 1295 1440.80367763 1295 1440.80367763 1295 1349.58270286 c 0,101,102
 1295 1328.56645665 1295 1328.56645665 1277.50754719 1304.17957444 c 1,103,-1
 1265.07422301 1285.30653218 l 1,104,-1
 786.030418667 866.803586319 l 1,105,106
 884.631506787 839.806887055 884.631506787 839.806887055 947.059974094 817.786713366 c 0,107,108
 1081.66510524 769.770917376 1081.66510524 769.770917376 1160.41457318 682.608535366 c 0,109,110
 1216.64836753 620.199440974 1216.64836753 620.199440974 1253.32418377 550.090496892 c 0,111,112
 1290 479.981552809 1290 479.981552809 1290 393.280393527 c 0,113,114
 1290 323.308791345 1290 323.308791345 1265.76472777 266.095372925 c 0,115,116
 1230.49036762 182.821427951 1230.49036762 182.821427951 1155.3791992 123.919438416 c 0,117,118
 1131.40742914 105.120836573 1131.40742914 105.120836573 1104.18928918 89.4710229 c 0,119,120
 1000.93776491 30.1037362841 1000.93776491 30.1037362841 869.397115955 10.009743305 c 0,121,122
 807.231341746 0 807.231341746 0 748 0 c 0,123,124
 684.692152716 0 684.692152716 0 575.982520309 20.7065966489 c 0,125,126
 460.169653997 42.7661902322 460.169653997 42.7661902322 347.156448673 81.1099563241 c 0,127,128
 289.493558991 100.674151038 289.493558991 100.674151038 235.949933361 124.296338816 c 0,129,130
 182.406307732 147.918526593 182.406307732 147.918526593 139.243529037 177.800450305 c 0,131,132
 96.0807503433 207.682374016 96.0807503433 207.682374016 69.2380119435 242.694641494 c 0,0,1
EndSplineSet
Validated: 1
EndChar

StartChar: four
Encoding: 52 52 23
Width: 1045
GlyphClass: 2
Flags: W
LayerCount: 2
Fore
SplineSet
354.759393769 1448.60455992 m 0,0,1
 370 1419.63376983 370 1419.63376983 370 1383 c 0,2,3
 370 1148.76519465 370 1148.76519465 299.841418182 939.534762798 c 1,4,5
 346.554774453 932.37891978 346.554774453 932.37891978 410.378499106 923.452524724 c 0,6,7
 643.679699263 890.822986241 643.679699263 890.822986241 768.518592702 851.765105853 c 1,8,-1
 784.00375997 1414.69648066 l 2,9,10
 784.467082224 1457.62795535 784.467082224 1457.62795535 834.998380798 1485.92548255 c 0,11,12
 851.983349053 1495.43706478 851.983349053 1495.43706478 870.44658292 1500.22382911 c 256,13,14
 888.868956341 1505 888.868956341 1505 904 1505 c 0,15,16
 951.959765115 1505 951.959765115 1505 983.538969206 1474.99975611 c 0,17,18
 1012.24503271 1449.1347053 1012.24503271 1449.1347053 1021.95577974 1409.66244968 c 2,19,-1
 1023 1405.41790196 l 1,20,-1
 1023 1401.02060662 l 2,21,22
 1023 1393.07082922 1023 1393.07082922 1024.5 1314.71246975 c 256,23,24
 1026 1236.35411029 1026 1236.35411029 1026 1229.34862678 c 256,25,26
 1026 1222.34314327 1026 1222.34314327 1025.96823118 1217.43846441 c 256,27,28
 1025.93646235 1212.53378555 1025.93646235 1212.53378555 1025.87290793 1206.87943468 c 0,29,30
 1025.53090886 1176.45224161 1025.53090886 1176.45224161 1024.26545443 1114.9595204 c 256,31,32
 1023 1053.46679919 1023 1053.46679919 1023 1051.04122816 c 2,33,-1
 1023.00000038 1050.12371336 l 1,34,35
 1014.5474781 881.771771589 1014.5474781 881.771771589 1007.91276901 788.167654853 c 2,36,-1
 993.901984902 587.418810685 l 2,37,38
 989.744270829 530.896760063 989.744270829 530.896760063 986.640985542 511.952998327 c 256,39,40
 983.537700255 493.009236591 983.537700255 493.009236591 979.03196021 467.012200604 c 256,41,42
 974.526220164 441.015164617 974.526220164 441.015164617 968.523013672 402.10778542 c 256,43,44
 962.519807181 363.200406223 962.519807181 363.200406223 958.748357733 341.738137381 c 256,45,46
 954.976908284 320.27586854 954.976908284 320.27586854 953.725928002 313.034788524 c 256,47,48
 952.47494772 305.793708509 952.47494772 305.793708509 951.494823486 299.980682526 c 0,49,50
 944.939587664 259.665087411 944.939587664 259.665087411 933.586296604 212.285580384 c 256,51,52
 922.233005545 164.906073357 922.233005545 164.906073357 903.375270523 122.491444964 c 0,53,54
 883.260205935 77.2488435239 883.260205935 77.2488435239 851.736852342 44.0283566313 c 0,55,56
 812.80450925 3 812.80450925 3 756 3 c 0,57,58
 704.283035879 3 704.283035879 3 670.641517939 34.2944352925 c 0,59,60
 637 63.9505099555 637 63.9505099555 637 114.565401292 c 0,61,62
 637 173.54958127 637 173.54958127 655.831650038 240.853570889 c 0,63,64
 673.508838407 304.031534585 673.508838407 304.031534585 694.931272061 371.071725528 c 256,65,66
 716.353705715 438.11191647 716.353705715 438.11191647 733.176852857 505.525507466 c 256,67,68
 750 572.939098462 750 572.939098462 750 638.614138244 c 2,69,-1
 750 642.150129173 l 1,70,71
 697.097542816 663.881294642 697.097542816 663.881294642 545.045540875 683.013797949 c 0,72,73
 515.380615324 686.746496492 515.380615324 686.746496492 467.797798917 691.717236019 c 0,74,75
 265.058045639 712.89644695 265.058045639 712.89644695 181.776635878 734.128430489 c 0,76,77
 95.7658358269 756.05625203 95.7658358269 756.05625203 52.0539440809 792.606345093 c 0,78,79
 13 825.261653148 13 825.261653148 13 872.682923103 c 2,80,-1
 13 896.374095659 l 1,81,-1
 13 902.524062743 l 1,82,-1
 94.3516868323 1134.74044052 l 2,83,84
 106.572350967 1166.90953639 106.572350967 1166.90953639 117.704424041 1271.23014041 c 0,85,86
 126 1348.9694338 126 1348.9694338 126 1407.15577598 c 2,87,-1
 126 1408.43694624 l 1,88,89
 127.687742956 1432.42771201 127.687742956 1432.42771201 138.623700648 1450.93383063 c 256,90,91
 149.55965834 1469.43994926 149.55965834 1469.43994926 165.490104506 1482.37975323 c 0,92,93
 181.434111797 1496.04604519 181.434111797 1496.04604519 201.623834894 1503.52372041 c 256,94,95
 221.809789784 1511 221.809789784 1511 243 1511 c 256,96,97
 264.22746517 1511 264.22746517 1511 278.612902284 1506.91254969 c 256,98,99
 292.998339399 1502.82509939 292.998339399 1502.82509939 301.930350279 1498.69137694 c 0,100,101
 320.425691949 1490.13175805 320.425691949 1490.13175805 333.600125645 1476.95732435 c 256,102,103
 346.774559342 1463.78289066 346.774559342 1463.78289066 354.759393769 1448.60455992 c 0,0,1
EndSplineSet
Validated: 1
EndChar

StartChar: five
Encoding: 53 53 24
Width: 1380
GlyphClass: 2
Flags: W
LayerCount: 2
Fore
SplineSet
215.984759594 117.771040541 m 256,0,1
 154.695216726 147.878184406 154.695216726 147.878184406 113.619752988 187.828292973 c 0,2,3
 65 235.115997934 65 235.115997934 65 296.62859763 c 256,4,5
 65 358.141197327 65 358.141197327 105.490744385 393.570598663 c 256,6,7
 145.981488769 429 145.981488769 429 206 429 c 0,8,9
 267.65969202 429 267.65969202 429 329.56702841 404.450539018 c 256,10,11
 391.474364801 379.901078035 391.474364801 379.901078035 453.987441622 352.117488337 c 256,12,13
 516.500518443 324.333898639 516.500518443 324.333898639 581.030345764 302.666949319 c 256,14,15
 645.560173084 281 645.560173084 281 713 281 c 0,16,17
 786.459705423 281 786.459705423 281 871.647925321 298.015822968 c 0,18,19
 915.51145133 306.777292503 915.51145133 306.777292503 956.726913847 321.824537285 c 0,20,21
 1043.27012639 353.420371076 1043.27012639 353.420371076 1076.97439305 404.47813931 c 0,22,23
 1093 428.754938859 1093 428.754938859 1093 461.248849724 c 0,24,25
 1093 515.126350678 1093 515.126350678 1061.91752452 549.710180628 c 0,26,27
 1027.0104655 588.549422818 1027.0104655 588.549422818 968.807203739 614.628079382 c 0,28,29
 906.945033694 642.346152871 906.945033694 642.346152871 825.313734688 659.124261434 c 256,30,31
 743.682435682 675.902369997 743.682435682 675.902369997 656.394195343 688.474636373 c 256,32,33
 569.105955003 701.046902749 569.105955003 701.046902749 483.416464362 712.470989913 c 256,34,35
 397.72697372 723.895077078 397.72697372 723.895077078 327.175442722 742.460528286 c 256,36,37
 256.623911723 761.025979494 256.623911723 761.025979494 210.518048968 791.48509327 c 0,38,39
 179.214619802 812.165211884 179.214619802 812.165211884 164.696910717 841.526815754 c 0,40,41
 153 865.183444837 153 865.183444837 153 893.095052189 c 2,42,-1
 153 930.192026946 l 1,43,44
 161.390684646 953.823452818 161.390684646 953.823452818 171.999286091 978.958863287 c 256,45,46
 182.607887537 1004.09427376 182.607887537 1004.09427376 190.616883056 1024.60012929 c 0,47,48
 216.596425459 1091.11692808 216.596425459 1091.11692808 220.07742187 1128.39038387 c 1,49,-1
 233.00485165 1398.1879025 l 1,50,51
 233.417328054 1438.96017189 233.417328054 1438.96017189 265.066485267 1470.08713916 c 0,52,53
 293.129284056 1497.68692052 293.129284056 1497.68692052 327.811874871 1508.10608235 c 2,54,-1
 333.730367528 1510 l 1,55,-1
 495.730626051 1510 l 1,56,-1
 858.618099121 1496.96780147 l 2,57,58
 969.372806223 1492.55226655 969.372806223 1492.55226655 1015.15445837 1490.69744922 c 256,59,60
 1060.93611051 1488.84263189 1060.93611051 1488.84263189 1076.96814104 1488.21884395 c 0,61,62
 1103.4582052 1487.1881459 1103.4582052 1487.1881459 1226.82802038 1482.78208107 c 1,63,-1
 1231.9302525 1481.18763353 l 2,64,65
 1277.13412521 1467.06142331 1277.13412521 1467.06142331 1302.06706261 1430.73057168 c 256,66,67
 1327 1394.39972005 1327 1394.39972005 1327 1349 c 0,68,69
 1327 1294.93899209 1327 1294.93899209 1292.87841633 1259.33386131 c 0,70,71
 1261.56837818 1226.66251715 1261.56837818 1226.66251715 1214.93661818 1216.00382915 c 2,72,-1
 1210.54486565 1215 l 1,73,-1
 1035 1215 l 2,74,75
 906.876636966 1215 906.876636966 1215 780.376636967 1222 c 256,76,77
 653.876636967 1229 653.876636967 1229 528 1229 c 2,78,-1
 505.086985359 1229 l 1,79,80
 500.172036994 1181.64430974 500.172036994 1181.64430974 489.3457871 1125.43338558 c 256,81,82
 478.519537207 1069.22246142 478.519537207 1069.22246142 474.967383771 1044.37241321 c 0,83,84
 469.698008967 1007.50907936 469.698008967 1007.50907936 468.559275562 985.482969143 c 1,85,86
 508.738368967 974.61371353 508.738368967 974.61371353 565.709147107 962.957421547 c 0,87,88
 746.76347799 925.913480524 746.76347799 925.913480524 835.394905285 904.432877508 c 256,89,90
 924.026332581 882.952274493 924.026332581 882.952274493 997.485779026 857.224804163 c 256,91,92
 1070.94522547 831.497333832 1070.94522547 831.497333832 1136.21288726 796.711028907 c 0,93,94
 1203.71111745 760.73587746 1203.71111745 760.73587746 1254.72272473 711.341809197 c 0,95,96
 1306.8794671 660.838917198 1306.8794671 660.838917198 1336.93973355 595.022911705 c 256,97,98
 1367 529.206906212 1367 529.206906212 1367 444.544726559 c 0,99,100
 1367 365.136527459 1367 365.136527459 1335.80180387 300.314135647 c 0,101,102
 1275.70527765 175.447923748 1275.70527765 175.447923748 1135.62114235 101.243940625 c 0,103,104
 1009.73469273 34.5606151881 1009.73469273 34.5606151881 853.248390234 11.4860841325 c 0,105,106
 780.155127572 -1.42108547152e-14 780.155127572 -1.42108547152e-14 713 0 c 0,107,108
 679.524153243 0 679.524153243 0 620.488342591 7.25001183436 c 0,109,110
 487.338602233 23.6017343346 487.338602233 23.6017343346 350.83049733 65.2318656169 c 0,111,112
 277.274302462 87.6638966761 277.274302462 87.6638966761 215.984759594 117.771040541 c 256,0,1
EndSplineSet
Validated: 1
EndChar

StartChar: six
Encoding: 54 54 25
Width: 1205
GlyphClass: 2
Flags: W
LayerCount: 2
Fore
SplineSet
496.998419615 1471.46459802 m 256,0,1
 619.364379587 1524 619.364379587 1524 767 1524 c 0,2,3
 785.2551584 1524 785.2551584 1524 813.93483731 1526.47238611 c 0,4,5
 969.354776573 1539.87065674 969.354776573 1539.87065674 1032.03121645 1504.88613402 c 0,6,7
 1053.14433842 1493.10128319 1053.14433842 1493.10128319 1068.1722118 1475.16478915 c 0,8,9
 1093 1445.53162259 1093 1445.53162259 1093 1401 c 0,10,11
 1093 1374.14241459 1093 1374.14241459 1082.48340858 1350.38137735 c 256,12,13
 1071.96681715 1326.62034011 1071.96681715 1326.62034011 1052.58700308 1310.1116096 c 0,14,15
 1013.71685268 1277 1013.71685268 1277 965.118140325 1277 c 256,16,17
 916.519427974 1277 916.519427974 1277 868.519427974 1271 c 256,18,19
 820.519427974 1265 820.519427974 1265 767 1265 c 0,20,21
 682.982655941 1265 682.982655941 1265 601.945000422 1236.68105193 c 256,22,23
 520.907344902 1208.36210386 520.907344902 1208.36210386 457.679772719 1158.97998544 c 0,24,25
 394.649428095 1109.1419969 394.649428095 1109.1419969 355.925062008 1041.9018255 c 0,26,27
 332.38955893 993.99026566 332.38955893 993.99026566 323.490841991 942.408581068 c 1,28,29
 381.924540308 980.232518866 381.924540308 980.232518866 434.672139434 1002.67830573 c 256,30,31
 487.41973856 1025.12409259 487.41973856 1025.12409259 541.327878996 1038.0620463 c 256,32,33
 595.236019433 1051 595.236019433 1051 653 1051 c 0,34,35
 773.258964781 1051 773.258964781 1051 869.091687249 1005.90076811 c 256,36,37
 964.924409717 960.801536216 964.924409717 960.801536216 1032.11414873 885.654250814 c 256,38,39
 1099.30388774 810.506965411 1099.30388774 810.506965411 1134.79688067 712.100909926 c 0,40,41
 1170 614.49854317 1170 614.49854317 1170 507.813910156 c 0,42,43
 1170 440.203621929 1170 440.203621929 1144.81974606 374.831362594 c 256,44,45
 1119.63949212 309.459103259 1119.63949212 309.459103259 1076.75457795 252.152182576 c 256,46,47
 1033.86966379 194.845261892 1033.86966379 194.845261892 977.039031249 146.250232037 c 0,48,49
 861.441151993 47.4042022995 861.441151993 47.4042022995 718.760292903 7.10947532457 c 0,50,51
 646.77156936 -14 646.77156936 -14 576 -14 c 0,52,53
 461.117716494 -14 461.117716494 -14 376.87986985 20.4609372637 c 0,54,55
 292.166349516 53.3656794917 292.166349516 53.3656794917 233.674087389 110.474735962 c 256,56,57
 175.181825263 167.583792433 175.181825263 167.583792433 140.908738009 242.836287299 c 0,58,59
 76.6972750623 383.823667569 76.6972750623 383.823667569 64.5713469829 577.456931483 c 0,60,61
 59 666.423161005 59 666.423161005 59 755.870478994 c 2,62,-1
 59 877.20111719 l 1,63,64
 78.2032775048 1008.88485333 78.2032775048 1008.88485333 135.402398477 1124.97750006 c 256,65,66
 192.60151945 1241.07014678 192.60151945 1241.07014678 283.616989547 1329.99967141 c 256,67,68
 374.632459644 1418.92919603 374.632459644 1418.92919603 496.998419615 1471.46459802 c 256,0,1
330.993306311 648.661112334 m 0,69,70
 318 631.828175223 318 631.828175223 318 615.879045997 c 0,71,72
 318 540.446924521 318 540.446924521 329.545100279 469.620913962 c 0,73,74
 340.524570859 402.264885833 340.524570859 402.264885833 369.826735028 351.014705681 c 0,75,76
 397.531923273 302.557674301 397.531923273 302.557674301 444.274249219 273.778837151 c 256,77,78
 491.016575164 245 491.016575164 245 567 245 c 2,79,-1
 619.166171537 245 l 1,80,81
 679.542255549 259.206260941 679.542255549 259.206260941 749.925073036 299.976380505 c 0,82,83
 784.363439899 319.925231442 784.363439899 319.925231442 815.681596355 344.817501001 c 0,84,85
 879.619458262 395.636536146 879.619458262 395.636536146 905.13586366 451.910280409 c 0,86,87
 917 478.075383364 917 478.075383364 917 504.988074957 c 0,88,89
 917 564.598875013 917 564.598875013 899.254388262 618.448082273 c 0,90,91
 863.977017197 725.497559867 863.977017197 725.497559867 767.401825496 769.705265898 c 0,92,93
 718.697234981 792 718.697234981 792 653 792 c 0,94,95
 631.450877634 792 631.450877634 792 596.935857582 784.805631412 c 0,96,97
 524.018179284 769.606548418 524.018179284 769.606548418 444.859804458 731.391320195 c 0,98,99
 365.148134363 692.908978037 365.148134363 692.908978037 330.993306311 648.661112334 c 0,69,70
EndSplineSet
Validated: 1
EndChar

StartChar: seven
Encoding: 55 55 26
Width: 1338
GlyphClass: 2
Flags: W
LayerCount: 2
Fore
SplineSet
418 90.081402242 m 1,0,-1
 418 164.573022269 l 2,1,2
 418 265.952373863 418 265.952373863 440.725201102 366.593189555 c 0,3,4
 483.873526014 557.679842445 483.873526014 557.679842445 590.663787331 758.776700639 c 0,5,6
 683.216766015 933.063316296 683.216766015 933.063316296 813.636454738 1117.37509479 c 0,7,8
 852.345265423 1172.51403766 852.345265423 1172.51403766 889.348189808 1224.42521437 c 1,9,10
 843.568819902 1223.6927175 843.568819902 1223.6927175 778.657530753 1221.34656166 c 0,11,12
 713.746241603 1219.00040582 713.746241603 1219.00040582 666.08475354 1219.00020291 c 0,13,14
 618.423265476 1219 618.423265476 1219 598.792722601 1218.26452491 c 0,15,16
 579.162179725 1217.52904981 579.162179725 1217.52904981 553.29193196 1216.06469617 c 0,17,18
 499.725385742 1215.70001307 499.725385742 1215.70001307 458.862692871 1213.35000654 c 0,19,20
 418 1211 418 1211 380.776073669 1211 c 0,21,22
 343.552147338 1211 343.552147338 1211 300.114333811 1214.10270097 c 0,23,24
 226.550091848 1219.35728968 226.550091848 1219.35728968 172.116524664 1233.23251269 c 0,25,26
 109.145320579 1249.26154645 109.145320579 1249.26154645 67.5992671786 1281.31135908 c 0,27,28
 17 1320.34507947 17 1320.34507947 17 1386 c 0,29,30
 17 1400.42272852 17 1400.42272852 21.0403321282 1418.6042231 c 0,31,32
 30.8928426771 1462.94052057 30.8928426771 1462.94052057 61.3593142778 1487.60385472 c 0,33,34
 82.8486702091 1505 82.8486702091 1505 112 1505 c 2,35,-1
 187.488762403 1505 l 1,36,37
 344.026096066 1485.67440325 344.026096066 1485.67440325 436.24707337 1479.40695819 c 0,38,39
 515.806601052 1474 515.806601052 1474 655 1474 c 0,40,41
 717.074163474 1474 717.074163474 1474 779.049806694 1479.90244221 c 0,42,43
 841.025449913 1485.80488442 841.025449913 1485.80488442 904.525454865 1492.30488045 c 0,44,45
 968.025459816 1498.80487647 968.025459816 1498.80487647 1015.82380877 1503.35710463 c 0,46,47
 1096.07413178 1511 1096.07413178 1511 1162 1511 c 0,48,49
 1210.99993974 1511 1210.99993974 1511 1248.99110905 1483.37005868 c 0,50,51
 1293 1453.04198403 1293 1453.04198403 1293 1393.94868454 c 0,52,53
 1293 1354.39293125 1293 1354.39293125 1268.03110609 1317.58919205 c 1,54,55
 1101.3440371 1101.1444779 1101.3440371 1101.1444779 997.361029341 940.160635455 c 0,56,57
 905.618936931 798.127866183 905.618936931 798.127866183 831.915044858 656.160218414 c 0,58,59
 771.952021069 540.660084013 771.952021069 540.660084013 725.733985661 418.627811414 c 0,60,61
 719.219880811 400.766578931 719.219880811 400.766578931 715.250961106 367.755187569 c 2,62,-1
 705.759128979 287.282348705 l 2,63,64
 700.678601278 243.473954921 700.678601278 243.473954921 693.324424526 196.187500927 c 0,65,66
 676.921117712 90.7162511752 676.921117712 90.7162511752 626.767248775 37.7919711609 c 0,67,68
 592.831601202 0 592.831601202 0 540 0 c 0,69,70
 498.596241992 0 498.596241992 0 465.780949401 24.7937766243 c 0,71,72
 432.96565681 48.0210610821 432.96565681 48.0210610821 420.04232415 84.3415371887 c 2,73,-1
 418 90.081402242 l 1,0,-1
EndSplineSet
Validated: 1
EndChar

StartChar: eight
Encoding: 56 56 27
Width: 1059
GlyphClass: 2
Flags: W
LayerCount: 2
Fore
SplineSet
1046.90906511 520.444293579 m 256,0,1
 1069 472.466073102 1069 472.466073102 1069 415.258886487 c 256,2,3
 1069 358.051699872 1069 358.051699872 1045.95794118 304.030597971 c 0,4,5
 1000.36103828 197.130647839 1000.36103828 197.130647839 895.075454992 121.446653733 c 0,6,7
 793.432420171 48.3810866522 793.432420171 48.3810866522 672.394472514 20.6113390044 c 0,8,9
 611.78447368 6 611.78447368 6 554 6 c 0,10,11
 456.25338521 6 456.25338521 6 357.432703224 40.1866143086 c 0,12,13
 258.675266909 72.6719233294 258.675266909 72.6719233294 177.91333553 132.569637416 c 256,14,15
 97.1514041513 192.467351502 97.1514041513 192.467351502 45.5757020757 278.548923347 c 256,16,17
 -6 364.630495193 -6 364.630495193 -6 469.790343767 c 0,18,19
 -6 544.327174551 -6 544.327174551 12.0052600121 596.757728252 c 256,20,21
 30.0105200242 649.188281953 30.0105200242 649.188281953 59.4809824964 686.550670903 c 0,22,23
 88.613522817 723.48464517 88.613522817 723.48464517 124.28072376 748.1493135 c 256,24,25
 159.947924704 772.81398183 159.947924704 772.81398183 193.020101593 794.404121005 c 256,26,27
 226.092278482 815.99426018 226.092278482 815.99426018 256.359314278 839.291714371 c 0,28,29
 272.035724175 851.358321882 272.035724175 851.358321882 285.19673047 867.057022385 c 1,30,31
 267.676043512 884.76052837 267.676043512 884.76052837 243.158204815 905.441080669 c 256,32,33
 218.640366118 926.121632969 218.640366118 926.121632969 196.001577536 944.777377047 c 0,34,35
 157.880446774 976.191516407 157.880446774 976.191516407 128.997665827 1003.14594103 c 256,36,37
 100.114884881 1030.10036565 100.114884881 1030.10036565 76.3545924148 1063.45092565 c 0,38,39
 25 1135.53355754 25 1135.53355754 25 1232.36666828 c 0,40,41
 25 1319.44070091 25 1319.44070091 63.0065793364 1390.65441213 c 256,42,43
 101.013158673 1461.86812336 101.013158673 1461.86812336 162.888563567 1511.24650298 c 256,44,45
 224.763968462 1560.6248826 224.763968462 1560.6248826 303.428304402 1587.63507526 c 0,46,47
 381.977326772 1616 381.977326772 1616 465 1616 c 0,48,49
 530.359430633 1616 530.359430633 1616 599.394217375 1597.2696315 c 0,50,51
 740.082890939 1560.94157957 740.082890939 1560.94157957 858.320704537 1471.73010367 c 0,52,53
 917.397857242 1427.15586956 917.397857242 1427.15586956 962.614433429 1373.36453392 c 256,54,55
 1007.83100962 1319.57319827 1007.83100962 1319.57319827 1034.91550481 1256.97291946 c 256,56,57
 1062 1194.37264066 1062 1194.37264066 1062 1126.86827187 c 0,58,59
 1062 1060.72272173 1062 1060.72272173 1036.9957372 1007.17990511 c 256,60,61
 1011.9914744 953.637088496 1011.9914744 953.637088496 971.218475587 910.580516106 c 0,62,63
 931.640524999 868.785923014 931.640524999 868.785923014 881.376662547 835.351725253 c 0,64,65
 848.090028346 813.210332682 848.090028346 813.210332682 814.025799659 794.096483485 c 1,66,67
 832.594417296 772.796963224 832.594417296 772.796963224 861.487821429 745.298821072 c 256,68,69
 890.381225563 717.800678919 890.381225563 717.800678919 925.900145628 683.507058013 c 256,70,71
 961.419065692 649.213437108 961.419065692 649.213437108 992.567866539 609.519785616 c 0,72,73
 1024.81813022 568.422514055 1024.81813022 568.422514055 1046.90906511 520.444293579 c 256,0,1
769.429037524 359.483459245 m 0,74,75
 810 400.899650106 810 400.899650106 810 441.971186484 c 0,76,77
 810 448.21663191 810 448.21663191 809.41399301 452.961066197 c 0,78,79
 807.015194531 472.382236856 807.015194531 472.382236856 789.451984727 496.998255287 c 0,80,81
 780.874540842 505.629067828 780.874540842 505.629067828 765.792922824 521.053450696 c 0,82,83
 677.362553868 611.493605479 677.362553868 611.493605479 581.100507728 688.202423497 c 0,84,85
 551.055363029 712.14464818 551.055363029 712.14464818 531.29636602 724.219590796 c 256,86,87
 511.537369011 736.294533412 511.537369011 736.294533412 504.202548803 737.996906026 c 0,88,89
 481.765826559 737.823044951 481.765826559 737.823044951 453.96043916 727.447899548 c 0,90,91
 397.01001872 706.197740924 397.01001872 706.197740924 341.538969206 653.500243886 c 0,92,93
 287.307402217 601.980255247 287.307402217 601.980255247 263.539062736 543.87986985 c 0,94,95
 253 518.117716494 253 518.117716494 253 495 c 0,96,97
 253 444.906661964 253 444.906661964 280.66948229 402.563969368 c 256,98,99
 308.33896458 360.221276773 308.33896458 360.221276773 352.657445922 328.75515502 c 256,100,101
 396.975927263 297.289033268 396.975927263 297.289033268 451.483667467 280.170899981 c 256,102,103
 506.159427932 263 506.159427932 263 554 263 c 0,104,105
 601.136455155 263 601.136455155 263 664.406165192 289.841695167 c 0,106,107
 727.379107268 316.557488775 727.379107268 316.557488775 769.429037524 359.483459245 c 0,74,75
790.054952185 1078.15761995 m 0,108,109
 799 1092.46969646 799 1092.46969646 799 1106 c 0,110,111
 799 1133.54949155 799 1133.54949155 784.369622103 1162.81024734 c 256,112,113
 769.739244207 1192.07100313 769.739244207 1192.07100313 743.120309733 1220.90818215 c 256,114,115
 716.501375259 1249.74536116 716.501375259 1249.74536116 680.597919247 1275.06190066 c 0,116,117
 608.228852697 1326.09137066 608.228852697 1326.09137066 530.188715322 1347.98067748 c 0,118,119
 494.467652441 1358 494.467652441 1358 462.911831674 1358 c 256,120,121
 431.356010906 1358 431.356010906 1358 399.227718825 1347.56873634 c 256,122,123
 367.099426744 1337.13747267 367.099426744 1337.13747267 342.656316735 1317.90355004 c 256,124,125
 318.213206726 1298.66962741 318.213206726 1298.66962741 304.106603363 1272.74397799 c 256,126,127
 290 1246.81832857 290 1246.81832857 290 1214.87083186 c 256,128,129
 290 1182.92333515 290 1182.92333515 303.403672913 1160.21155605 c 256,130,131
 316.807345826 1137.49977695 316.807345826 1137.49977695 343.196797488 1116.05834747 c 2,132,-1
 555.628057872 946.114801791 l 1,133,134
 572.275352383 946.908590097 572.275352383 946.908590097 597.057511011 953.408828426 c 256,135,136
 621.839669639 959.909066755 621.839669639 959.909066755 643.751279214 969.495395944 c 0,137,138
 751.642593403 1016.6978459 751.642593403 1016.6978459 790.054952185 1078.15761995 c 0,108,109
EndSplineSet
Validated: 1
EndChar

StartChar: nine
Encoding: 57 57 28
Width: 1205
GlyphClass: 2
Flags: W
LayerCount: 2
Fore
SplineSet
713.178008218 59.8838498726 m 256,0,1
 587.477375498 7 587.477375498 7 440 7 c 0,2,3
 421.7448416 7 421.7448416 7 405.093658115 5.56455314784 c 256,4,5
 388.44247463 4.12910629568 388.44247463 4.12910629568 382.311263181 3.67186438631 c 256,6,7
 376.180051733 3.21462247694 376.180051733 3.21462247694 369.961908561 2.82081243193 c 256,8,9
 363.743765389 2.42700238692 363.743765389 2.42700238692 357.425320922 2.09557427832 c 0,10,11
 276.25480498 -2.16214939361 276.25480498 -2.16214939361 228.563162677 7.45924618861 c 0,12,13
 169.849620665 19.3042191534 169.849620665 19.3042191534 139.180157169 54.92037031 c 0,14,15
 114 84.1618431509 114 84.1618431509 114 130 c 0,16,17
 114 174.082784682 114 174.082784682 140.430230729 206.501787189 c 0,18,19
 147.035833846 214.60414037 147.035833846 214.60414037 155.083718662 221.459745954 c 0,20,21
 193.283147325 254 193.283147325 254 241.881859675 254 c 256,22,23
 290.480572026 254 290.480572026 254 338.480572026 260 c 256,24,25
 386.480572026 266 386.480572026 266 441.033421495 266 c 256,26,27
 495.586270964 266 495.586270964 266 552.746498309 279.243048421 c 0,28,29
 666.498616165 305.597471325 666.498616165 305.597471325 761.288367543 375.173787151 c 0,30,31
 853.38624868 446.813833972 853.38624868 446.813833972 892.233775272 546.2028278 c 0,32,33
 900.575423753 570.036109174 900.575423753 570.036109174 905.19881995 594.657705877 c 1,34,35
 787.97880532 525.361937427 787.97880532 525.361937427 653.838072695 496.871870321 c 0,36,37
 593.233016599 484 593.233016599 484 537 484 c 0,38,39
 416.142804622 484 416.142804622 484 325.830464119 529.61113557 c 256,40,41
 235.518123617 575.22227114 235.518123617 575.22227114 176.038654815 650.900726572 c 256,42,43
 116.559186013 726.579182003 116.559186013 726.579182003 87.7795930065 824.103668745 c 256,44,45
 59 921.628155488 59 921.628155488 59 1027.18565014 c 0,46,47
 59 1136.64513596 59 1136.64513596 124.558065629 1243.95544647 c 0,48,49
 172.358189165 1322.19823855 172.358189165 1322.19823855 249.320760066 1388.62858096 c 0,50,51
 363.902344291 1487.52982328 363.902344291 1487.52982328 505.661916666 1527.86762757 c 0,52,53
 577.186869508 1549 577.186869508 1549 648 1549 c 0,54,55
 762.83555475 1549 762.83555475 1549 847.536856302 1514.57301937 c 0,56,57
 932.709585767 1481.69890489 932.709585767 1481.69890489 991.662513526 1424.67030028 c 256,58,59
 1050.61544128 1367.64169567 1050.61544128 1367.64169567 1085.96709028 1292.36299693 c 256,60,61
 1121.31873928 1217.0842982 1121.31873928 1217.0842982 1139.52864166 1132.59915774 c 256,62,63
 1157.73854404 1048.11401727 1157.73854404 1048.11401727 1163.86927202 957.876239403 c 256,64,65
 1170 867.638461532 1170 867.638461532 1170 779.031805651 c 2,66,-1
 1170 657.684763701 l 1,67,68
 1150.73821206 525.581942881 1150.73821206 525.581942881 1089.82731136 408.403009251 c 256,69,70
 1028.91641066 291.224075622 1028.91641066 291.224075622 934.119089983 202.20394917 c 0,71,72
 838.878640938 112.767699745 838.878640938 112.767699745 713.178008218 59.8838498726 c 256,0,1
896.625761757 888.296738776 m 0,73,74
 911 904.541415067 911 904.541415067 911 919.120954003 c 0,75,76
 911 994.320963031 911 994.320963031 898.531821278 1064.92604849 c 0,77,78
 886.615132157 1132.40814611 886.615132157 1132.40814611 856.79341912 1183.77674344 c 0,79,80
 828.664028826 1232.23027532 828.664028826 1232.23027532 780.911738245 1261.11513766 c 256,81,82
 733.159447665 1290 733.159447665 1290 657 1290 c 2,83,-1
 604.827208308 1290 l 1,84,85
 560.677015219 1279.64117081 560.677015219 1279.64117081 508.326389647 1253.56734252 c 256,86,87
 455.975764074 1227.49351423 455.975764074 1227.49351423 411.475755928 1190.72839045 c 256,88,89
 366.975747781 1153.96326666 366.975747781 1153.96326666 339.48787389 1112.33927364 c 256,90,91
 312 1070.71528062 312 1070.71528062 312 1030.01192504 c 0,92,93
 312 967.828793982 312 967.828793982 324.29978328 914.341150393 c 0,94,95
 346.2938386 818.69636014 346.2938386 818.69636014 410.049887597 776.281205532 c 0,96,97
 440.240207637 756.196411816 440.240207637 756.196411816 477.329441675 748.514637071 c 0,98,99
 503.955276423 743 503.955276423 743 531.410192933 743 c 0,100,101
 596.89884514 743 596.89884514 743 700.152084234 778.55891855 c 0,102,103
 785.219326766 807.85484355 785.219326766 807.85484355 844.047153152 845.131842362 c 0,104,105
 876.78980042 865.879636361 876.78980042 865.879636361 896.625761757 888.296738776 c 0,73,74
EndSplineSet
Validated: 1
EndChar

StartChar: colon
Encoding: 58 58 29
Width: 613
GlyphClass: 2
Flags: W
LayerCount: 2
Fore
SplineSet
198.12890625 151 m 256,0,1
 198.12890625 189.178787473 198.12890625 189.178787473 212.685490933 223.355116729 c 0,2,3
 235.016569146 275.784604708 235.016569146 275.784604708 279.529919947 305.939093067 c 0,4,5
 326.857481282 338 326.857481282 338 384.12890625 338 c 0,6,7
 422.307693723 338 422.307693723 338 456.605238505 323.391786482 c 256,8,9
 490.902783286 308.783572964 490.902783286 308.783572964 516.40763125 283.278725 c 256,10,11
 541.912479214 257.773877036 541.912479214 257.773877036 556.520692732 223.476332255 c 256,12,13
 571.12890625 189.178787473 571.12890625 189.178787473 571.12890625 151 c 256,14,15
 571.12890625 112.821212527 571.12890625 112.821212527 556.448422702 78.3539902839 c 256,16,17
 541.808948407 43.9830506341 541.808948407 43.9830506341 516.234650321 19.0481099999 c 256,18,19
 490.660352234 -5.88683063428 490.660352234 -5.88683063428 456.484022979 -20.4434153171 c 256,20,21
 422.307693723 -35 422.307693723 -35 384.12890625 -35 c 256,22,23
 345.950118777 -35 345.950118777 -35 311.652573995 -20.3917864821 c 0,24,25
 242.283294407 9.1543881573 242.283294407 9.1543881573 212.809389798 78.3539902839 c 0,26,27
 198.12890625 112.821212527 198.12890625 112.821212527 198.12890625 151 c 256,0,1
190.12890625 979 m 256,28,29
 190.12890625 1017.17878747 190.12890625 1017.17878747 204.685490933 1051.35511673 c 0,30,31
 234.803612799 1122.06722894 234.803612799 1122.06722894 303.482896534 1151.31951645 c 0,32,33
 337.950118777 1166 337.950118777 1166 376.12890625 1166 c 0,34,35
 439.682211992 1166 439.682211992 1166 490.357364046 1127.1060253 c 0,36,37
 528.911617548 1097.51503051 528.911617548 1097.51503051 548.448422702 1051.64600972 c 0,38,39
 563.12890625 1017.17878747 563.12890625 1017.17878747 563.12890625 979 c 256,40,41
 563.12890625 940.821212527 563.12890625 940.821212527 548.448422702 906.353990284 c 256,42,43
 533.808948407 871.983050634 533.808948407 871.983050634 508.234650321 847.04811 c 256,44,45
 482.660352234 822.113169366 482.660352234 822.113169366 448.484022979 807.556584683 c 256,46,47
 414.307693723 793 414.307693723 793 376.12890625 793 c 0,48,49
 319.424617298 793 319.424617298 793 271.756752605 824.778908499 c 0,50,51
 226.784220306 854.76090996 226.784220306 854.76090996 204.809389798 906.353990284 c 0,52,53
 190.12890625 940.821212527 190.12890625 940.821212527 190.12890625 979 c 256,28,29
EndSplineSet
Validated: 1
EndChar

StartChar: semicolon
Encoding: 59 59 30
Width: 513
GlyphClass: 2
Flags: W
LayerCount: 2
Fore
SplineSet
294.940594697 335.574163597 m 256,0,1
 314.933870638 342 314.933870638 342 332.317946696 342 c 256,2,3
 349.702022755 342 349.702022755 342 362.238453291 340.118503778 c 0,4,5
 432.669181364 329.548098715 432.669181364 329.548098715 460.155478275 260.832356436 c 2,6,-1
 463 253.721052123 l 1,7,-1
 463 187 l 2,8,9
 463 151.797025331 463 151.797025331 455.05323174 101.997277567 c 0,10,11
 438.108287679 -4.19103854778 438.108287679 -4.19103854778 392.690556769 -108.445375409 c 0,12,13
 369.072812879 -162.658832975 369.072812879 -162.658832975 337.431478097 -207.622835034 c 256,14,15
 305.790143314 -252.586837093 305.790143314 -252.586837093 265.212622193 -281.570780751 c 0,16,17
 219.811715245 -314 219.811715245 -314 166 -314 c 0,18,19
 125.030569684 -314 125.030569684 -314 84.43732341 -285.761107359 c 0,20,21
 46.6660948564 -259.485365311 46.6660948564 -259.485365311 33.9315166943 -224.754697596 c 0,22,23
 29.5483870968 -212.800707784 29.5483870968 -212.800707784 29.5483870968 -200.858480749 c 0,24,25
 29.5483870968 -177.016156067 29.5483870968 -177.016156067 45.9814207677 -158.571950991 c 0,26,27
 88.5426260882 -109.350069888 88.5426260882 -109.350069888 116.674848144 -62.4630267539 c 0,28,29
 169.087628413 24.8916070271 169.087628413 24.8916070271 190.819046266 130.585321131 c 0,30,31
 199.734100694 173.944904031 199.734100694 173.944904031 209.480706181 240.214069395 c 0,32,33
 213.136479018 263.611015554 213.136479018 263.611015554 225.489019071 283.535369962 c 256,34,35
 237.841559123 303.45972437 237.841559123 303.45972437 256.39443894 316.304025782 c 256,36,37
 274.947318757 329.148327193 274.947318757 329.148327193 294.940594697 335.574163597 c 256,0,1
129 978 m 256,38,39
 129 1016.17878747 129 1016.17878747 143.556584683 1050.35511673 c 0,40,41
 173.674706549 1121.06722894 173.674706549 1121.06722894 242.353990284 1150.31951645 c 0,42,43
 276.821212527 1165 276.821212527 1165 315 1165 c 0,44,45
 381.990052535 1165 381.990052535 1165 433.927448808 1122.37794443 c 0,46,47
 477.04379144 1086.99482391 477.04379144 1086.99482391 493.729862096 1033.17747464 c 0,48,49
 502 1006.50391505 502 1006.50391505 502 978 c 0,50,51
 502 939.821212527 502 939.821212527 487.319516452 905.353990284 c 256,52,53
 472.680042157 870.983050634 472.680042157 870.983050634 447.105744071 846.04811 c 256,54,55
 421.531445984 821.113169366 421.531445984 821.113169366 387.355116729 806.556584683 c 256,56,57
 353.178787473 792 353.178787473 792 315 792 c 0,58,59
 258.295711048 792 258.295711048 792 210.627846355 823.778908499 c 0,60,61
 165.655314056 853.76090996 165.655314056 853.76090996 143.680483548 905.353990284 c 0,62,63
 129 939.821212527 129 939.821212527 129 978 c 256,38,39
EndSplineSet
Validated: 1
EndChar

StartChar: less
Encoding: 60 60 31
Width: 1038
GlyphClass: 2
Flags: W
LayerCount: 2
Fore
SplineSet
885 1268 m 0,0,1
 932.318746901 1268 932.318746901 1268 966.159373451 1231.90333168 c 0,2,3
 1000 1195.80666336 1000 1195.80666336 1000 1146.46247554 c 0,4,5
 1000 1097.11828773 1000 1097.11828773 960.496353046 1042.18352868 c 0,6,7
 895.933354362 952.400608636 895.933354362 952.400608636 755.884510909 847.919725425 c 0,8,9
 639.919345964 761.406030942 639.919345964 761.406030942 508.157619953 679.054952185 c 0,10,11
 484.915587277 664.528681763 484.915587277 664.528681763 465.115196198 652.066988003 c 1,12,13
 509.037896722 619.300340493 509.037896722 619.300340493 569.768292084 576.334618604 c 0,14,15
 630.498687447 533.368896715 630.498687447 533.368896715 753.924516186 441.050390666 c 0,16,17
 880.355451531 346.484162603 880.355451531 346.484162603 937.171355758 281.25108738 c 0,18,19
 983.489643069 228.070831577 983.489643069 228.070831577 994.255927953 206.420968568 c 0,20,21
 1000.50458716 193.855574174 1000.50458716 193.855574174 1000.50458716 182.20612743 c 0,22,23
 1000 159.917135239 1000 159.917135239 1000 148.5 c 0,24,25
 1000 110.244702249 1000 110.244702249 967.685805617 75.6223511247 c 0,26,27
 935.371611234 41 935.371611234 41 886.5 41 c 0,28,29
 853.902185682 41 853.902185682 41 819.61314779 60.3747904128 c 0,30,31
 779.657561306 82.9514260235 779.657561306 82.9514260235 682.823424326 167.26390736 c 2,32,-1
 555.381915516 277.713313263 l 2,33,34
 487.191973429 336.582328014 487.191973429 336.582328014 365.179080905 424.836712725 c 0,35,36
 243.166188381 513.091097436 243.166188381 513.091097436 168.848414612 525.551562499 c 0,37,38
 117.818712775 534.107440651 117.818712775 534.107440651 87.144603848 547.147641548 c 0,39,40
 56.4704949213 560.187842444 56.4704949213 560.187842444 42.6941206859 580.852403797 c 0,41,42
 22.8717948718 610.585892518 22.8717948718 610.585892518 22.8717948718 642.04799474 c 0,43,44
 22.8717948718 688.748546218 22.8717948718 688.748546218 66.3917743939 726.295195217 c 0,45,46
 115.426787392 768.599912313 115.426787392 768.599912313 222.531745861 822.740880331 c 2,47,-1
 342.55477858 883.252483319 l 2,48,49
 410.010299749 917.206604713 410.010299749 917.206604713 426.480501193 928.622316856 c 1,50,-1
 807.11085375 1244.14484595 l 1,51,52
 842.893584826 1268 842.893584826 1268 885 1268 c 0,0,1
EndSplineSet
Validated: 1
EndChar

StartChar: equal
Encoding: 61 61 32
Width: 1187
GlyphClass: 2
Flags: W
LayerCount: 2
Fore
SplineSet
87.509487278 326 m 1,0,-1
 138.993358246 592 l 1,1,-1
 1117.49051272 592 l 1,2,-1
 1066.00664175 326 l 1,3,-1
 87.509487278 326 l 1,0,-1
86.6355653175 768 m 1,4,-1
 139.576741788 1018 l 1,5,-1
 1118.36443468 1018 l 1,6,-1
 1065.42325821 768 l 1,7,-1
 86.6355653175 768 l 1,4,-1
EndSplineSet
Validated: 1
EndChar

StartChar: greater
Encoding: 62 62 33
Width: 1032
GlyphClass: 2
Flags: W
LayerCount: 2
Fore
SplineSet
249 1240 m 0,0,1
 291.106415174 1240 291.106415174 1240 326.88914625 1216.14484595 c 1,2,-1
 707.519397465 900.622400864 l 2,3,4
 713.218974704 896.672127345 713.218974704 896.672127345 736.361459629 884.001212626 c 0,5,6
 759.503944554 871.330297907 759.503944554 871.330297907 791.468254139 855.240880331 c 2,7,-1
 911.505919962 794.721865478 l 2,8,9
 1018.57314259 740.59997272 1018.57314259 740.59997272 1067.60822561 698.295195217 c 0,10,11
 1104.38244138 666.568420827 1104.38244138 666.568420827 1110.06228687 628.432315364 c 1,12,-1
 1111.12820513 614.04799474 l 1,13,14
 1111.12820513 582.585892518 1111.12820513 582.585892518 1091.30587931 552.852403797 c 0,15,16
 1065.67477699 514.405750313 1065.67477699 514.405750313 965.151585388 497.551562499 c 0,17,18
 917.850506913 489.620842754 917.850506913 489.620842754 848.221747753 449.135481776 c 0,19,20
 812.038628527 428.096953144 812.038628527 428.096953144 771.906886895 399.068855442 c 0,21,22
 646.807325761 308.581821104 646.807325761 308.581821104 578.676575674 249.76390736 c 2,23,-1
 451.246284091 139.324461401 l 2,24,25
 354.342897907 54.9516854985 354.342897907 54.9516854985 314.38685221 32.3747904128 c 0,26,27
 299.094238683 23.7338019169 299.094238683 23.7338019169 281.733680688 18.3669009584 c 0,28,29
 255.595478799 12.9929038821 255.595478799 12.9929038821 248.025628628 12.9929038821 c 0,0,0
 198.635011809 12.9929038821 198.635011809 12.9929038821 165.756231213 48.2201688072 c 0,1,2
 134 82.2447022494 134 82.2447022494 134 120.5 c 0,3,4
 134 133.316722033 134 133.316722033 133.495117188 154.206054688 c 0,5,6
 133.495117188 163.813326979 133.495117188 163.813326979 135.978357616 169.827899077 c 0,7,8
 138.461598044 175.842471175 138.461598044 175.842471175 141.094873595 181.137628251 c 0,9,10
 150.510194442 200.070551083 150.510194442 200.070551083 196.828644242 253.25108738 c 0,11,12
 253.644548469 318.484162603 253.644548469 318.484162603 378.572930511 411.926529659 c 0,13,14
 503.501312553 505.368896715 503.501312553 505.368896715 564.231707916 548.334618604 c 0,15,16
 624.962103278 591.300340493 624.962103278 591.300340493 668.884803802 624.066988003 c 1,17,18
 649.084412723 636.528681763 649.084412723 636.528681763 609.167068736 661.477021755 c 0,19,20
 569.249724748 686.425361747 569.249724748 686.425361747 505.564817617 729.387402272 c 0,21,22
 441.879910486 772.349442797 441.879910486 772.349442797 393.834020002 808.193202365 c 0,23,24
 345.788129517 844.036961932 345.788129517 844.036961932 316.580307772 868.226678911 c 0,25,26
 287.372486026 892.416395889 287.372486026 892.416395889 261.022617509 916.940035894 c 0,27,28
 207.835234749 966.441164404 207.835234749 966.441164404 173.503646954 1014.18352868 c 0,29,30
 134 1069.11828773 134 1069.11828773 134 1118.46247554 c 0,31,32
 134 1167.80666336 134 1167.80666336 167.840626549 1203.90333168 c 0,33,34
 201.681253099 1240 201.681253099 1240 249 1240 c 0,0,1
EndSplineSet
Validated: 1
EndChar

StartChar: question
Encoding: 63 63 34
Width: 1025
GlyphClass: 2
Flags: W
LayerCount: 2
Fore
SplineSet
160.352539062 198.967773438 m 128,-1,1
 160.352539062 254.1328125 160.352539062 254.1328125 193.514648438 300.772460938 c 0,2,3
 224.724609375 344.66796875 224.724609375 344.66796875 277.58203125 366.349609375 c 0,4,5
 313.0625 380.903320312 313.0625 380.903320312 353.614257812 380.903320312 c 0,6,7
 412.989257812 380.903320312 412.989257812 380.903320312 461.819335938 348.57421875 c 0,8,9
 504.243164062 320.48828125 504.243164062 320.48828125 526 269 c 0,10,11
 540.020507812 235.8203125 540.020507812 235.8203125 540.020507812 202.990234375 c 2,12,-1
 540.020507812 199.4140625 l 2,13,14
 540.020507812 165.197265625 540.020507812 165.197265625 526.34765625 130.68359375 c 0,15,16
 514.474609375 100.337890625 514.474609375 100.337890625 488.958984375 72.8115234375 c 128,-1,17
 463.442382812 45.283203125 463.442382812 45.283203125 427.62109375 31.1572265625 c 128,-1,18
 391.801757812 17.0302734375 391.801757812 17.0302734375 352.430664062 17.0302734375 c 128,-1,19
 313.0625 17.0302734375 313.0625 17.0302734375 277.853515625 31.4736328125 c 0,20,21
 224.724609375 53.2666015625 224.724609375 53.2666015625 192.538085938 98.5341796875 c 128,-1,0
 160.352539062 143.801757812 160.352539062 143.801757812 160.352539062 198.967773438 c 128,-1,1
506.508789062 590.682617188 m 1,22,23
 505 584 505 584 503.271484375 577.814453125 c 0,24,25
 501 572 501 572 499.673828125 566.471679688 c 0,26,27
 498 561 498 561 495.827148438 555.994140625 c 0,28,29
 494 551 494 551 491.424804688 545.24609375 c 0,30,31
 489 541 489 541 486.435546875 534.11328125 c 0,32,33
 482 523 482 523 474.78515625 510.706054688 c 0,34,35
 454 471 454 471 436.166992188 461.556640625 c 0,36,-1
 404.500976562 453.171875 l 2,37,-1
 369.34375 454.158203125 l 1,38,-1
 334.752929688 457.061523438 l 2,39,40
 285.725585938 474.649414062 l 0,41,42
 259 498 259 498 255.803710938 505.078125 c 0,43,44
 249 521 249 521 238.419921875 543.06640625 c 1,45,-1
 236 623 l 1,46,47
 246 664 246 664 247.298828125 667.13671875 c 0,48,49
 254 687 254 687 261.321289062 707.227539062 c 0,50,51
 270 728 270 728 279.279296875 745.376953125 c 0,52,53
 299 780 299 780 403.513671875 846.473632812 c 0,54,55
 436 867 436 867 475.561523438 877.586914062 c 0,56,57
 539 895 539 895 595.711914062 894.637695312 c 1,58,-1
 634.033203125 893.349609375 l 1,59,60
 666 893 666 893 683 905 c 0,61,62
 719 929 719 929 733.208445341 1020.14336103 c 0,63,64
 740 1064 740 1064 739.508928571 1119.9300861 c 0,65,66
 740 1266 740 1266 703.69193415 1335.19809668 c 0,67,68
 682 1377 682 1377 646.63557812 1387.90980509 c 0,69,70
 633 1392 633 1392 616.31740881 1392.01550388 c 0,71,72
 599 1392 599 1392 580.29047916 1389.51004466 c 0,73,74
 547 1385 547 1385 530.665999261 1377.63192261 c 0,75,76
 462 1346 462 1346 346.632615207 1248.30086018 c 0,77,78
 293 1203 293 1203 278.418523079 1171.7888737 c 0,79,80
 250 1109 250 1109 217.111589667 1078.05864763 c 0,81,82
 183 1046 183 1046 141.461734694 1045.85714286 c 0,83,84
 95 1046 95 1046 59.3623728363 1082.59430614 c 0,85,86
 22 1121 22 1121 21.9655172414 1188.38882283 c 0,87,88
 22 1245 22 1245 53.0044645487 1308.45397769 c 0,89,90
 111 1427 111 1427 238.342531288 1514.96028055 c 0,91,-1
 238.601789709 1515.13743717 l 2,92,93
 432.995877392 1647.99718238 432.995877392 1647.99718238 613.520785659 1647.99718238 c 2,94,-1
 614 1647.99718238 l 2,95,96
 761 1648 761 1648 850.278725 1560.278725 c 0,97,98
 875 1536 875 1536 916.441521087 1474.68608185 c 0,99,100
 958 1414 958 1414 974.064393897 1379.01314235 c 1,101,-1
 1007.88670861 1231.04051549 l 1,102,-1
 1011 1106 l 1,103,104
 1011 1012 1011 1012 999.563938246 926.078783154 c 0,105,106
 990 855 990 855 934.573242188 777.353515625 c 0,107,108
 846 653 846 653 760.53125 652.107421875 c 0,109,110
 694 651 694 651 608.9140625 628.942382812 c 0,111,112
 563 617 563 617 518.079101562 604.28125 c 1,113,-1
 506.508789062 590.682617188 l 1,22,23
EndSplineSet
Validated: 524321
EndChar

StartChar: at
Encoding: 64 64 35
Width: 1945
GlyphClass: 2
Flags: W
LayerCount: 2
Fore
SplineSet
88 586 m 0,0,1
 88 718.121790169 88 718.121790169 118.771627331 837.035875448 c 256,2,3
 149.576797412 956.079583556 149.576797412 956.079583556 206.740025114 1057.29520692 c 256,4,5
 263.903252816 1158.51083028 263.903252816 1158.51083028 345.905706159 1239.46197012 c 256,6,7
 427.751517426 1320.25847611 427.751517426 1320.25847611 529.449187639 1377.39788876 c 256,8,9
 631.036189653 1434.47512185 631.036189653 1434.47512185 749.998881189 1464.73756093 c 256,10,11
 868.961572726 1495 868.961572726 1495 1005.45053495 1495 c 256,12,13
 1141.93949718 1495 1141.93949718 1495 1260.07420116 1459.29706724 c 0,14,15
 1495.65049761 1388.10067542 1495.65049761 1388.10067542 1641.39235773 1203.78008762 c 0,16,17
 1781.56871388 1026.49822544 1781.56871388 1026.49822544 1830.26119629 776.684620021 c 0,18,19
 1854 654.894235782 1854 654.894235782 1854 525 c 0,20,21
 1854 401.278771688 1854 401.278771688 1830.67322656 288.37718823 c 0,22,23
 1817.52260195 224.728165108 1817.52260195 224.728165108 1793.86754052 162.902436371 c 256,24,25
 1770.21247909 101.076707633 1770.21247909 101.076707633 1730.80785122 50.976537911 c 256,26,27
 1691.40322334 0.876368189245 1691.40322334 0.876368189245 1634.3487411 -30.5618159054 c 256,28,29
 1577.29425885 -62 1577.29425885 -62 1501 -62 c 0,30,31
 1434.3218143 -62 1434.3218143 -62 1385.88019231 -42.7400780052 c 256,32,33
 1337.43857032 -23.4801560104 1337.43857032 -23.4801560104 1302.98128649 8.05701902552 c 256,34,35
 1268.52400265 39.5941940614 1268.52400265 39.5941940614 1244.95919922 79.826785291 c 0,36,37
 1223.18089521 117.009255544 1223.18089521 117.009255544 1206.59756801 155.876428667 c 256,38,39
 1190.01424081 194.74360179 1190.01424081 194.74360179 1181.66991984 215.604276259 c 256,40,41
 1173.32559886 236.464950729 1173.32559886 236.464950729 1171.77466634 240.200443141 c 0,42,43
 1168.67918379 247.656055428 1168.67918379 247.656055428 1165.45885664 254.859852644 c 1,44,45
 1159.13433898 249.68087167 1159.13433898 249.68087167 1148.16538664 240.603152628 c 0,46,47
 1081.51087518 185.44100866 1081.51087518 185.44100866 1016.81435654 156.472418223 c 0,48,49
 975.559289178 138 975.559289178 138 936 138 c 2,50,-1
 771 138 l 2,51,52
 713.505380501 138 713.505380501 138 668.908855591 163.124802766 c 0,53,54
 626.35726402 187.097530411 626.35726402 187.097530411 596.168443285 225.99466482 c 256,55,56
 565.97962255 264.891799229 565.97962255 264.891799229 546.905308897 312.016574135 c 0,57,58
 502.877205238 420.791889058 502.877205238 420.791889058 497.534993023 548.350235574 c 0,59,60
 497 561.124498855 497 561.124498855 497 573 c 2,61,-1
 497 676.656054579 l 1,62,-1
 497.651710933 680.223314424 l 2,63,64
 518.505441355 794.370049365 518.505441355 794.370049365 579.980282791 869.136748408 c 256,65,66
 641.455124227 943.903447452 641.455124227 943.903447452 724.915366736 986.175518333 c 256,67,68
 808.375609245 1028.44758921 808.375609245 1028.44758921 905.507802718 1044.72379461 c 256,69,70
 1002.63999619 1061 1002.63999619 1061 1101 1061 c 0,71,72
 1120.3182776 1061 1120.3182776 1061 1154.16197751 1060.47119219 c 256,73,74
 1188.00567741 1059.94238438 1188.00567741 1059.94238438 1215.49638271 1054.86717725 c 256,75,76
 1242.98708801 1049.79197011 1242.98708801 1049.79197011 1260.75402685 1043.61868239 c 256,77,78
 1278.5209657 1037.44539467 1278.5209657 1037.44539467 1294.65838846 1028.6154841 c 0,79,80
 1335.87672893 1006.06205253 1335.87672893 1006.06205253 1348.46704012 961.995963348 c 2,81,-1
 1350 956.630603781 l 1,82,-1
 1350 951 l 2,83,84
 1350 892.647737941 1350 892.647737941 1364.45413032 599.430643105 c 0,85,86
 1365.93590512 568.313372114 1365.93590512 568.313372114 1366.91044407 553.6952879 c 2,87,-1
 1366.92528303 553.472703571 l 2,88,89
 1369.69617939 503.596568995 1369.69617939 503.596568995 1386.53817074 428.250818246 c 0,90,91
 1407.94707132 332.474157748 1407.94707132 332.474157748 1440.50490754 269.928840805 c 0,92,93
 1456.45373566 239.290302571 1456.45373566 239.290302571 1475.66613869 220.878416331 c 0,94,95
 1488.06100791 209 1488.06100791 209 1501 209 c 0,96,97
 1507.73772213 209 1507.73772213 209 1512.41937289 211.014324478 c 256,98,99
 1517.10102364 213.028648956 1517.10102364 213.028648956 1522.38803023 218.441536655 c 0,100,101
 1553.80874943 250.610368213 1553.80874943 250.610368213 1570.92893604 328.602329454 c 0,102,103
 1586.05803734 397.523790936 1586.05803734 397.523790936 1589.54445388 471.900677066 c 0,104,105
 1591 502.952327652 1591 502.952327652 1591 528.448383361 c 256,106,107
 1591 553.94443907 1591 553.94443907 1588.68062477 589.812624339 c 256,108,109
 1586.36124955 625.680809608 1586.36124955 625.680809608 1581.72808219 660.43435565 c 0,110,111
 1552.63886359 878.633574391 1552.63886359 878.633574391 1443.41750183 1018.96228602 c 0,112,113
 1370.06248314 1113.20955687 1370.06248314 1113.20955687 1258.26946615 1168.64026112 c 256,114,115
 1146.61957262 1224 1146.61957262 1224 993 1224 c 0,116,117
 853.606620891 1224 853.606620891 1224 736.351795458 1177.85151449 c 0,118,119
 570.953310216 1112.7549219 570.953310216 1112.7549219 470.947858872 976.651596373 c 0,120,121
 428.55233149 918.953019078 428.55233149 918.953019078 399.436493472 849.131543443 c 0,122,123
 351 732.978010553 351 732.978010553 351 591 c 0,124,125
 351 471.213869498 351 471.213869498 390.405547489 365.194182206 c 256,126,127
 429.811094978 259.174494915 429.811094978 259.174494915 501.4305364 180.579133873 c 256,128,129
 573.049977823 101.983772832 573.049977823 101.983772832 673.395911821 55.9918864159 c 256,130,131
 773.741845819 10 773.741845819 10 897 10 c 2,132,-1
 969.586044448 10 l 1,133,134
 992.714012735 22.1706845916 992.714012735 22.1706845916 1012.63493879 24.5853422958 c 256,135,136
 1032.55586485 27 1032.55586485 27 1058 27 c 0,137,138
 1116.29469561 27 1116.29469561 27 1150.64734781 -6.58925992338 c 256,139,140
 1185 -40.1785198468 1185 -40.1785198468 1185 -96 c 0,141,142
 1185 -160.010100684 1185 -160.010100684 1146.22557645 -197.321338441 c 0,143,144
 1112.84077894 -229.446332267 1112.84077894 -229.446332267 1066.88967431 -243.585133692 c 256,145,146
 1020.93856968 -257.723935116 1020.93856968 -257.723935116 972.364501822 -259.957225593 c 0,147,148
 927.93415846 -262 927.93415846 -262 893 -262 c 0,149,150
 773.25003423 -262 773.25003423 -262 666.891461889 -230.934872435 c 0,151,152
 454.390305665 -168.867703043 454.390305665 -168.867703043 309.852976832 -9.34131788557 c 0,153,154
 238.895311812 68.9749198031 238.895311812 68.9749198031 189.593067795 163.383472175 c 256,155,156
 140.290823779 257.792024547 140.290823779 257.792024547 114.146983036 364.458894776 c 256,157,158
 88 471.138585565 88 471.138585565 88 586 c 0,0,1
742 573 m 0,159,160
 742 537.977832647 742 537.977832647 747.327601638 502.01652159 c 256,161,162
 752.655203276 466.055210532 752.655203276 466.055210532 766.406517882 438.135874817 c 0,163,164
 778.565676394 413.449098445 778.565676394 413.449098445 800.619346104 397.276407324 c 0,165,166
 820.087174274 383 820.087174274 383 854 383 c 0,167,168
 954.4735054 383 954.4735054 383 1010.3277882 449.66478915 c 0,169,170
 1037.11926993 481.641718957 1037.11926993 481.641718957 1053.74026477 524.068995261 c 0,171,172
 1086.85575522 608.600641936 1086.85575522 608.600641936 1093.06469617 718.29193196 c 0,173,174
 1095.71341325 765.085933809 1095.71341325 765.085933809 1095.97205196 807 c 1,175,-1
 1054 807 l 2,176,177
 987.901960226 807 987.901960226 807 929.508284491 795.594985208 c 0,178,179
 825.103044717 775.203336815 825.103044717 775.203336815 778.667706309 709.10085581 c 0,180,181
 742 656.902972842 742 656.902972842 742 573 c 0,159,160
EndSplineSet
Validated: 1
EndChar

StartChar: A
Encoding: 65 65 36
Width: 1336
GlyphClass: 2
Flags: W
LayerCount: 2
Fore
SplineSet
963.681640625 143.059570312 m 1,0,-1
 963.681640625 199.510742188 l 2,1,2
 963.348632812 213.590820312 963.348632812 213.590820312 963.348632812 237.77734375 c 0,3,4
 963.348632812 286.221679688 963.348632812 286.221679688 964.681640625 376.302734375 c 0,5,6
 964.6875 430.551757812 964.6875 430.551757812 966.681640625 499.588867188 c 1,7,-1
 966.681640625 521.069335938 l 1,8,9
 960.834960938 519.836914062 960.834960938 519.836914062 951.71875 518.2109375 c 0,10,11
 942.6015625 516.584960938 942.6015625 516.584960938 853.275390625 498.771484375 c 0,12,13
 672.348632812 462.688476562 672.348632812 462.688476562 622.041015625 456.35546875 c 0,14,15
 598.73828125 453.02734375 598.73828125 453.02734375 591.994140625 452.142578125 c 0,16,17
 585.250976562 451.2578125 585.250976562 451.2578125 582.9296875 450.883789062 c 0,18,19
 578.647460938 450.193359375 578.647460938 450.193359375 575.721679688 450.071289062 c 0,20,21
 486.870117188 433.80859375 486.870117188 433.80859375 428.697265625 419.265625 c 0,22,23
 424.24609375 418.080078125 424.24609375 418.080078125 419.862304688 416.974609375 c 0,24,25
 416.758789062 408.956054688 416.758789062 408.956054688 402.778320312 376.982421875 c 1,26,-1
 390.947265625 344.4453125 l 1,27,28
 364.112304688 275.868164062 364.112304688 275.868164062 345.245117188 225.23046875 c 2,29,-1
 293.224609375 81.41015625 l 1,30,-1
 283.2890625 63.3115234375 l 1,31,32
 269.116210938 41.408203125 269.116210938 41.408203125 244.23828125 19.09765625 c 0,33,34
 205.87890625 -15 205.87890625 -15 158.681640625 -15 c 0,35,36
 128.8828125 -15 128.8828125 -15 98.501953125 0.3662109375 c 0,37,38
 39.5703125 29 39.5703125 29 26.0087890625 77.6552734375 c 2,39,-1
 24.681640625 82.41796875 l 1,40,-1
 24.681640625 111.087890625 l 1,41,-1
 25.0869140625 112.627929688 l 1,42,43
 24.181640625 116.8125 24.181640625 116.8125 24.181640625 122.31640625 c 0,44,45
 24.181640625 127.8203125 24.181640625 127.8203125 26.3642578125 133.880859375 c 0,46,47
 26.634765625 136.932617188 26.634765625 136.932617188 27.3505859375 140.083007812 c 2,48,-1
 27.3505859375 140.46484375 l 2,49,50
 27.3505859375 147.244140625 27.3505859375 147.244140625 29.4736328125 153.150390625 c 1,51,-1
 32.681640625 185.134765625 l 1,52,-1
 32.681640625 199.979492188 l 1,53,-1
 40.5751953125 207.475585938 l 1,54,55
 108.686523438 342.143554688 108.686523438 342.143554688 135.163085938 431.942382812 c 0,56,57
 196.961914062 641.142578125 196.961914062 641.142578125 216.859375 720.032226562 c 0,58,59
 236.755859375 798.921875 236.755859375 798.921875 241.360351562 814.5234375 c 0,60,61
 245.96484375 830.125 245.96484375 830.125 246.807617188 833.409179688 c 0,62,63
 247.650390625 836.693359375 247.650390625 836.693359375 248.349609375 839.499023438 c 0,64,65
 249.049804688 842.3046875 249.049804688 842.3046875 249.639648438 844.756835938 c 0,66,67
 254.831054688 866.483398438 254.831054688 866.483398438 284.462890625 955.232421875 c 0,68,69
 296.639648438 993.481445312 296.639648438 993.481445312 299.205078125 1001.03027344 c 0,70,71
 339.881835938 1155.44921875 339.881835938 1155.44921875 520.151367188 1355.99511719 c 0,72,73
 585.360351562 1429.08886719 585.360351562 1429.08886719 654.821289062 1469.28710938 c 0,74,75
 724.768554688 1510 724.768554688 1510 802.681640625 1510 c 0,76,77
 902.788085938 1510 902.788085938 1510 982.965820312 1438.49902344 c 0,78,79
 1063.14355469 1366.99707031 1063.14355469 1366.99707031 1124.90136719 1232.69824219 c 0,80,81
 1181.63671875 1109.32128906 1181.63671875 1109.32128906 1212.49023438 995.055664062 c 0,82,83
 1243.32128906 877.950195312 1243.32128906 877.950195312 1248.59375 764.47265625 c 1,84,85
 1259.94824219 656.217773438 1259.94824219 656.217773438 1259.94824219 567.0078125 c 1,86,-1
 1257.68164062 446.4609375 l 1,87,-1
 1257.68164062 445.662109375 l 1,88,89
 1250.47363281 280.254882812 1250.47363281 280.254882812 1249.53320312 265.443359375 c 0,90,91
 1247.30371094 230.310546875 1247.30371094 230.310546875 1242.67480469 181.6171875 c 0,92,93
 1242.6015625 171.294921875 1242.6015625 171.294921875 1241.68164062 161.657226562 c 2,94,-1
 1241.68164062 106.018554688 l 1,95,-1
 1240.68164062 103.169921875 l 1,96,-1
 1240.68164062 98.7646484375 l 1,97,98
 1233.73828125 67.1171875 1233.73828125 67.1171875 1217.90625 45.564453125 c 0,99,100
 1197.87792969 18.298828125 1197.87792969 18.298828125 1164.3359375 3.0537109375 c 0,101,102
 1130.79394531 -13 1130.79394531 -13 1101.51367188 -13 c 0,103,104
 1057.70507812 -13 1057.70507812 -13 1015.19042969 18.8583984375 c 0,105,106
 1001.25195312 29.302734375 1001.25195312 29.302734375 990.630859375 42.1875 c 0,107,108
 962.681640625 76.09375 962.681640625 76.09375 962.681640625 121 c 2,109,-1
 962.681640625 125.52734375 l 1,110,-1
 962.348632812 131.22265625 l 2,111,112
 962.348632812 137.377929688 962.348632812 137.377929688 963.681640625 143.059570312 c 1,0,-1
37.5595703125 118.407226562 m 1,113,-1
 37.5595703125 118.407226562 l 1,113,-1
642.380859375 1077.41699219 m 0,114,115
 597.479492188 994.934570312 597.479492188 994.934570312 550.336914062 878.060546875 c 0,116,117
 526.03125 817.782226562 526.03125 817.782226562 506.48828125 752.3125 c 0,118,119
 501.836914062 737.4296875 501.836914062 737.4296875 497.936523438 720.853515625 c 0,120,121
 494.037109375 704.278320312 494.037109375 704.278320312 490.88671875 692.377929688 c 0,122,123
 487.736328125 680.478515625 487.736328125 680.478515625 486.22265625 674.211914062 c 1,124,125
 517.501953125 677.694335938 517.501953125 677.694335938 544.692382812 684.091796875 c 0,126,127
 602.59375 695.672851562 602.59375 695.672851562 608.8828125 696.662109375 c 0,128,129
 615.172851562 697.65234375 615.172851562 697.65234375 616.71875 698.029296875 c 0,130,131
 626.470703125 700.409179688 626.470703125 700.409179688 631.360351562 700.868164062 c 0,132,133
 636.25 701.328125 636.25 701.328125 639.107421875 701.607421875 c 0,134,135
 641.96484375 701.88671875 641.96484375 701.88671875 644.91015625 701.967773438 c 0,136,137
 779.764648438 726.487304688 779.764648438 726.487304688 818.033203125 734.596679688 c 0,138,139
 856.302734375 742.706054688 856.302734375 742.706054688 883.764648438 749.932617188 c 0,140,141
 933.275390625 762.961914062 933.275390625 762.961914062 960.903320312 774.7578125 c 1,142,143
 956.580078125 902.76953125 956.580078125 902.76953125 893.678710938 1077.18164062 c 0,144,145
 860.635742188 1164.91308594 860.635742188 1164.91308594 825.908203125 1212.43457031 c 0,146,147
 806.930664062 1238.52832031 806.930664062 1238.52832031 789.1875 1249.17480469 c 0,148,149
 787.1015625 1250.42675781 787.1015625 1250.42675781 783.079101562 1251.57617188 c 1,150,151
 719.014648438 1218.19042969 719.014648438 1218.19042969 642.380859375 1077.41699219 c 0,114,115
EndSplineSet
Validated: 524289
EndChar

StartChar: B
Encoding: 66 66 37
Width: 1288
GlyphClass: 2
Flags: W
LayerCount: 2
Fore
SplineSet
91.7108633978 34.8614409739 m 0,0,1
 77.4232438389 45.7016334902 77.4232438389 45.7016334902 58.151899401 67.6337422184 c 0,2,3
 38.892578125 89.5521677656 38.892578125 89.5521677656 38.892578125 137.42267175 c 0,4,5
 38.892578125 158.994751283 38.892578125 158.994751283 41.3207582387 171.276685205 c 0,6,7
 43.7489383524 183.558619126 43.7489383524 183.558619126 45.2877068745 189.759138449 c 0,8,9
 53.8179464331 224.132024596 53.8179464331 224.132024596 80.7370998502 287.105693023 c 0,10,11
 83.3514907825 293.304350911 83.3514907825 293.304350911 85.8514907825 298.046302707 c 0,12,13
 88.3514907825 302.788254503 88.3514907825 302.788254503 89.4824199766 305.469660364 c 0,14,15
 90.6133491706 308.151066226 90.6133491706 308.151066226 91.560207527 310.223125441 c 0,16,17
 93.4401668743 314.337137914 93.4401668743 314.337137914 95.3958288284 318.046599801 c 0,18,19
 97.3514907825 321.756061687 97.3514907825 321.756061687 102.73709985 334.525210982 c 0,20,21
 120.936029654 370.916988616 120.936029654 370.916988616 126.655024196 384.95335173 c 1,22,23
 129.396007848 395.351441608 129.396007848 395.351441608 130.803529835 399.407857342 c 0,24,25
 201.246988093 613.29092294 201.246988093 613.29092294 231.715681443 839.799963335 c 0,26,27
 259.092106563 1043.3205972 259.092106563 1043.3205972 261.625628374 1240.73089083 c 1,28,29
 231.136082886 1236.50712421 231.136082886 1236.50712421 199.420360123 1229.42987594 c 0,30,31
 150.31239289 1218.47161152 150.31239289 1218.47161152 116.52756473 1212.63440968 c 0,32,33
 78.7619254379 1205.30655248 78.7619254379 1205.30655248 39.892578125 1205.30655226 c 0,34,35
 -16.73557085 1205.30655226 -16.73557085 1205.30655226 -54.2245512853 1238.12580237 c 0,36,37
 -93.107421875 1272.16531585 -93.107421875 1272.16531585 -93.107421875 1326.70051823 c 0,38,39
 -93.107421875 1360.70030537 -93.107421875 1360.70030537 -73.9069569547 1388.41433062 c 0,40,41
 -59.4170848971 1409.32906794 -59.4170848971 1409.32906794 -34.6555167791 1425.36667061 c 0,42,43
 8.91949248545 1453.64243603 8.91949248545 1453.64243603 74.4118373125 1470.48645187 c 0,44,45
 180.542732493 1497.78232111 180.542732493 1497.78232111 352.076469807 1504.95942152 c 0,46,47
 419.982722488 1508 419.982722488 1508 475.892578125 1508 c 2,48,-1
 556.892578125 1508 l 2,49,50
 757.761231084 1508 757.761231084 1508 890.297744962 1482.31462909 c 0,51,52
 924.113701667 1475.97413721 924.113701667 1475.97413721 934.990710651 1472.86642036 c 0,53,54
 947.500701797 1469.47904861 947.500701797 1469.47904861 958.047125922 1467.25795493 c 0,55,56
 968.593550047 1465.03686124 968.593550047 1465.03686124 977.593550047 1462.19374146 c 0,57,58
 986.593550047 1459.35062167 986.593550047 1459.35062167 991.453332038 1458.32714446 c 0,59,60
 1000.62722528 1456.3951091 1000.62722528 1456.3951091 1012.03439117 1451.30460434 c 0,61,62
 1023.50369328 1447.59698482 1023.50369328 1447.59698482 1034.94612712 1443.12292201 c 0,63,64
 1041.61336218 1440.96655854 1041.61336218 1440.96655854 1045.89245768 1439.27683869 c 0,65,66
 1050.17155318 1437.58711885 1050.17155318 1437.58711885 1051.98523086 1436.87938787 c 0,67,68
 1068.87953325 1430.30810821 1068.87953325 1430.30810821 1084.19774282 1422.32366569 c 0,69,70
 1112.38689318 1407.56008891 1112.38689318 1407.56008891 1123.4227115 1400.43604594 c 0,71,72
 1150.35739499 1383.0486772 1150.35739499 1383.0486772 1171.06102096 1363.42771433 c 0,73,74
 1191.76464693 1343.80675146 1191.76464693 1343.80675146 1203.60191024 1327.54028533 c 0,75,76
 1257.89257812 1252.93543056 1257.89257812 1252.93543056 1257.89257812 1149.82506586 c 0,77,78
 1257.89257812 1078.27959833 1257.89257812 1078.27959833 1217.72795645 1028.32023499 c 0,79,80
 1181.34703629 983.067285175 1181.34703629 983.067285175 1124.70289891 952.936734538 c 0,81,82
 1070.98954101 923.292862601 1070.98954101 923.292862601 1007.21762446 904.964713237 c 0,83,84
 945.351972159 887.663913891 945.351972159 887.663913891 904.538414319 878.113995512 c 0,85,86
 848.274750031 864.948924147 848.274750031 864.948924147 807.450780576 854.777205079 c 1,87,88
 869.989813105 831.090396782 869.989813105 831.090396782 931.565127245 802.153869068 c 0,89,90
 993.140441385 773.217341354 993.140441385 773.217341354 1049.66946171 736.509966567 c 0,91,92
 1107.46878613 697.96332888 1107.46878613 697.96332888 1152.72289032 650.991181336 c 0,93,94
 1187.95270702 612.834004626 1187.95270702 612.834004626 1206.69299145 579.163238285 c 0,95,96
 1209.11786407 574.567102738 1209.11786407 574.567102738 1211.1829736 571.21204344 c 0,97,98
 1213.24808313 567.856984143 1213.24808313 567.856984143 1214.43819019 565.730930439 c 0,99,100
 1215.62829724 563.604876736 1215.62829724 563.604876736 1216.72539954 561.438595462 c 0,101,102
 1217.82250183 559.272314187 1217.82250183 559.272314187 1218.82702325 557.066017098 c 0,103,104
 1219.83154466 554.859720009 1219.83154466 554.859720009 1220.741461 552.61765236 c 0,105,106
 1246.32475455 497.985734318 1246.32475455 497.985734318 1250.63320018 454.844837276 c 0,107,108
 1251.73856488 447.254294263 1251.73856488 447.254294263 1252.8155715 431.944000088 c 0,109,110
 1253.89257812 416.633705913 1253.89257812 416.633705913 1253.89257812 400.932238892 c 0,111,112
 1253.89257812 385.230771871 1253.89257812 385.230771871 1251.2485659 363.074540558 c 0,113,114
 1243.10787404 294.857362731 1243.10787404 294.857362731 1210.31223013 242.511008196 c 0,115,116
 1167.84631434 174.729570807 1167.84631434 174.729570807 1098.46903553 129.12924661 c 0,117,118
 1025.27338301 82.138019045 1025.27338301 82.138019045 946.728545951 59.7554012678 c 0,119,120
 872.027071257 37.1718525015 872.027071257 37.1718525015 780.996398602 23.0368063209 c 0,121,122
 689.965725946 8.12180387269 689.965725946 8.12180387269 605.796658932 5.06090193634 c 0,123,124
 521.627591918 2 521.627591918 2 468.63596418 2 c 0,125,126
 415.644336442 2 415.644336442 2 377.358425568 3.00001261828 c 0,127,128
 313.698338879 3.00001261828 313.698338879 3.00001261828 303.037844918 4.29219370441 c 0,129,130
 274.908658775 7.70179202478 274.908658775 7.70179202478 225.273981947 10.3821499744 c 0,131,132
 175.639305119 13.062507924 175.639305119 13.062507924 131.176102164 19 c 0,133,134
 111.537664615 19 111.537664615 19 91.7108633978 34.8614409739 c 0,0,1
364.855628383 269.997701517 m 0,135,136
 384.283760266 269.952100782 384.283760266 269.952100782 402.001673836 269 c 2,137,-1
 428.199113131 269 l 1,138,139
 457.854622747 270 457.854622747 270 490.863544349 270 c 0,140,141
 523.87246595 270 523.87246595 270 533.190151233 270.16058903 c 0,142,143
 564.56728743 270.701369677 564.56728743 270.701369677 636.192762624 274.911416555 c 0,144,145
 697.864635232 279.530971654 697.864635232 279.530971654 770.002672301 292.407735466 c 0,146,147
 818.740220056 300.883830727 818.740220056 300.883830727 851.245585627 311.624293107 c 2,148,-1
 878.178738615 320.572422609 l 2,149,150
 883.149783186 322.781775752 883.149783186 322.781775752 892.217887294 326.601867295 c 0,151,152
 917.475437119 337.242035441 917.475437119 337.242035441 934.083889558 349.320909942 c 0,153,154
 938.477519735 351.517725031 938.477519735 351.517725031 942.002624531 354.368044856 c 0,155,156
 949.55025513 360.470887854 949.55025513 360.470887854 952.932772011 363.121962286 c 0,157,158
 960.547142284 369.089785375 960.547142284 369.089785375 964.853215021 374.472376297 c 2,159,-1
 966.20391341 375.862801109 l 2,160,161
 988.89257812 399.21877949 988.89257812 399.21877949 988.89257812 435 c 0,162,163
 988.89257812 503.7914699 988.89257812 503.7914699 926.233253461 574.170423812 c 0,164,165
 895.441739788 607.625516926 895.441739788 607.625516926 855.398534153 634.927701451 c 0,166,167
 811.86073587 664.920406935 811.86073587 664.920406935 766.412282268 690.062104672 c 0,168,169
 703.868912642 725.412704896 703.868912642 725.412704896 601.071298444 759.768242859 c 0,170,171
 585.211433608 764.279647999 585.211433608 764.279647999 574.133298118 766.741455886 c 0,172,173
 563.055162628 769.203263772 563.055162628 769.203263772 552.706418084 772.134815453 c 0,174,175
 542.35767354 775.066367135 542.35767354 775.066367135 533.036503734 777.420743678 c 2,176,-1
 493.250129352 787.04232415 l 2,177,178
 486.520104451 788.179367982 486.520104451 788.179367982 480.485970064 790.482715745 c 1,179,-1
 477.895701664 791.000769425 l 1,180,181
 440.89964868 580.885032814 440.89964868 580.885032814 403.480125829 438.402879154 c 0,182,183
 377.7055238 340.261039628 377.7055238 340.261039628 353.081685081 270.79935343 c 1,184,185
 358.83656843 270.551995311 358.83656843 270.551995311 364.855628383 269.997701517 c 0,135,136
573.803626458 1248.54895254 m 0,186,187
 569.412006099 1248 569.412006099 1248 563.892578125 1248 c 2,188,-1
 534.589121684 1248 l 1,189,190
 527.7443246 1142.2859117 527.7443246 1142.2859117 525.279928782 1100.39118279 c 0,191,192
 522.815532963 1058.49645387 522.815532963 1058.49645387 520.473976346 1022.43648197 c 0,193,194
 518.132419729 986.376510072 518.132419729 986.376510072 517.114586162 959.506444196 c 1,195,196
 542.748023217 965.06586268 542.748023217 965.06586268 570.764065925 972.7066016 c 0,197,198
 661.877480825 995.484955325 661.877480825 995.484955325 773.543507 1033.38817044 c 0,199,200
 845.374217859 1057.77107229 845.374217859 1057.77107229 922.512176789 1093.76879674 c 0,201,202
 943.172785308 1103.41041405 943.172785308 1103.41041405 960.484874968 1113.40595564 c 0,203,204
 992.357848422 1132.9237014 992.357848422 1132.9237014 1013.19805485 1151.86844339 c 0,205,206
 1021.69106074 1160.52348605 1021.69106074 1160.52348605 1022.89205001 1165.30107374 c 0,207,208
 1022.82916096 1183.27546709 1022.82916096 1183.27546709 1013.97324784 1195.87843831 c 0,209,210
 985.035952781 1231.67593481 985.035952781 1231.67593481 913.702383586 1244.64567466 c 0,211,212
 852.085717485 1255.59974864 852.085717485 1255.59974864 803.769114865 1257.53241274 c 0,213,214
 767.812744098 1259 767.812744098 1259 757.892578125 1259 c 2,215,-1
 718.892578125 1259 l 2,216,217
 695.412006099 1259 695.412006099 1259 671.412006099 1256 c 1,218,-1
 653.971804978 1256 l 2,219,220
 636.478194662 1255.06087424 636.478194662 1255.06087424 627.90949378 1254.23164513 c 0,221,222
 619.340792899 1253.40241601 619.340792899 1253.40241601 616.521677175 1253.13532067 c 0,223,224
 613.702561452 1252.86822533 613.702561452 1252.86822533 610.996326276 1252.61784147 c 0,225,226
 608.290091099 1252.36745762 608.290091099 1252.36745762 605.707104568 1252.13479039 c 0,227,228
 600.529686574 1251.66842503 600.529686574 1251.66842503 595.016836774 1250.96372774 c 0,229,230
 589.503986975 1250.25903046 589.503986975 1250.25903046 585.948563868 1249.90348776 c 0,231,232
 582.393140762 1249.54794505 582.393140762 1249.54794505 580.974114327 1249.39581672 c 0,233,234
 578.195246818 1249.09790509 578.195246818 1249.09790509 573.803626458 1248.54895254 c 0,186,187
EndSplineSet
Validated: 1025
EndChar

StartChar: C
Encoding: 67 67 38
Width: 1484
GlyphClass: 2
Flags: W
LayerCount: 2
Fore
SplineSet
1253.28994693 434.257505101 m 0,0,1
 1281.32343571 447 1281.32343571 447 1310 447 c 0,2,3
 1376.89553897 447 1376.89553897 447 1412.6517727 400.071680936 c 0,4,5
 1431.07214913 375.895832089 1431.07214913 375.895832089 1439.01213064 340.866501896 c 2,6,-1
 1440 336.508254712 l 1,7,-1
 1440 330.021112106 l 1,8,-1
 1441 320.021112106 l 1,9,-1
 1441 314 l 2,10,11
 1441 210.383335729 1441 210.383335729 1306.87583145 132.472973117 c 0,12,13
 1235.96065236 91.2795970244 1235.96065236 91.2795970244 1125.13569951 55.87718153 c 0,14,15
 964.625620477 4.75932196675 964.625620477 4.75932196675 873.809597272 -5.71372615581 c 0,16,17
 743.491036532 -21.9999999268 743.491036532 -21.9999999268 698 -22 c 0,18,19
 536.853356968 -22 536.853356968 -22 410.644227725 38.8338564383 c 0,20,21
 252.162393308 111.2811619 252.162393308 111.2811619 151.488026719 273.033527905 c 0,22,23
 32 465.878996022 32 465.878996022 32 753.131075056 c 0,24,25
 32 1090.55537407 32 1090.55537407 218.641683595 1293.74955064 c 0,26,27
 306.853974984 1392.58827765 306.853974984 1392.58827765 458.603228334 1452.97339547 c 0,28,29
 599.962046209 1509 599.962046209 1509 787 1509 c 2,30,-1
 804.0155317 1509 l 1,31,32
 1006.33572107 1498.88399053 1006.33572107 1498.88399053 1116.5889379 1477.27997478 c 0,33,34
 1208.11519226 1460.00309176 1208.11519226 1460.00309176 1262.22125712 1439.96380913 c 0,35,36
 1316.32732199 1419.9245265 1316.32732199 1419.9245265 1344.17059038 1397.08070965 c 0,37,38
 1348.93589574 1393.26476911 1348.93589574 1393.26476911 1354.49002051 1388.65003487 c 0,39,40
 1378.62107807 1371.09774765 1378.62107807 1371.09774765 1392.80835853 1348.80345448 c 0,41,42
 1412 1318.64516074 1412 1318.64516074 1412 1282 c 0,43,44
 1412 1243.8667961 1412 1243.8667961 1394.92280651 1215.23305357 c 0,45,46
 1373.31088938 1178.99583045 1373.31088938 1178.99583045 1327.81026905 1162.45144731 c 0,47,48
 1305.14644571 1154.00000204 1305.14644571 1154.00000204 1279 1154 c 2,49,-1
 1234.44255 1154 l 1,50,-1
 1228.14785662 1160.29469338 l 1,51,52
 998.190288672 1241 998.190288672 1241 787 1241 c 0,53,54
 659.84583744 1241 659.84583744 1241 591.956540364 1215.90945364 c 0,55,56
 443.098082868 1159.64572823 443.098082868 1159.64572823 372.379765892 1052.73795094 c 0,57,58
 345.377821594 1011.91800541 345.377821594 1011.91800541 329.966372069 964.744350424 c 0,59,60
 299.96969697 872.92606951 299.96969697 872.92606951 299.96969697 810.178090468 c 0,61,62
 299.96969697 808.296580007 299.96969697 808.296580007 299.996381836 806.446873699 c 2,63,-1
 299.996381836 801.31598513 l 2,64,65
 299.996381836 618.904423783 299.996381836 618.904423783 327.459449959 534.757014973 c 0,66,67
 354.922518083 450.609606163 354.922518083 450.609606163 372.502837455 422.945111032 c 0,68,69
 391.660234813 392.798916603 391.660234813 392.798916603 397.117792643 385.64221205 c 0,70,71
 412.970413198 364.85406372 412.970413198 364.85406372 420.110747578 357.300401434 c 2,72,-1
 433.616240202 343.013125116 l 1,73,74
 533.687401889 245 533.687401889 245 710 245 c 0,75,76
 722.218025807 245 722.218025807 245 747.058393041 245.95539874 c 0,77,78
 771.898760275 246.91079748 771.898760275 246.91079748 783.373601097 248.234817574 c 0,79,80
 849.487331193 255.863324893 849.487331193 255.863324893 863.018795391 258.985970477 c 0,81,82
 876.550259589 262.108616062 876.550259589 262.108616062 887.068571833 264.21227851 c 0,83,84
 1014.63107547 289.915171034 1014.63107547 289.915171034 1140.8354492 359.560009586 c 0,85,86
 1150.80996726 365.76890207 1150.80996726 365.76890207 1174.12368728 383.226395928 c 0,87,88
 1225.25645815 421.515010201 1225.25645815 421.515010201 1253.28994693 434.257505101 c 0,0,1
EndSplineSet
Validated: 1
EndChar

StartChar: D
Encoding: 68 68 39
Width: 1512
GlyphClass: 2
Flags: W
LayerCount: 2
Fore
SplineSet
465.681640625 1512 m 2,0,-1
 513.681640625 1512 l 1,1,-1
 559.681640625 1511 l 1,2,3
 784.681640625 1511 784.681640625 1511 910.681640625 1472 c 0,4,5
 1032.68164062 1434 1032.68164062 1434 1210.17285156 1306.30371094 c 0,6,7
 1239.68164062 1285 1239.68164062 1285 1256.34179688 1271.47363281 c 0,8,9
 1300.68164062 1235 1300.68164062 1235 1337.06152344 1194.89355469 c 0,10,11
 1361.68164062 1167 1361.68164062 1167 1372.84570312 1152.90722656 c 0,12,13
 1442.68164062 1066 1442.68164062 1066 1481.83886719 963.264648438 c 0,14,15
 1521.68164062 858 1521.68164062 858 1521.68164062 740.171875 c 0,16,17
 1521.68164062 600 1521.68164062 600 1472.65136719 486.436523438 c 0,18,19
 1425.68164062 380 1425.68164062 380 1337.39257812 291.305664062 c 0,20,21
 1294.68164062 249 1294.68164062 249 1243.05371094 213.828125 c 0,22,23
 1192.68164062 179 1192.68164062 179 1133.72363281 150.939453125 c 0,24,25
 1018.68164062 95 1018.68164062 95 886.018554688 60.9404296875 c 0,26,27
 759.681640625 29 759.681640625 29 609.874023438 13.2177734375 c 0,28,29
 492.681640625 1 492.681640625 1 374.681640625 1 c 2,30,-1
 341.681640625 1 l 2,31,32
 337.681640625 2 337.681640625 2 332.637695312 1.4462890625 c 0,33,34
 310.681640625 -2 310.681640625 -2 304.084960938 -2.9892578125 c 128,-1,35
 297.681640625 -4 297.681640625 -4 291.681640625 -4 c 2,36,-1
 279.681640625 -4 l 2,37,38
 223.681640625 -4 223.681640625 -4 184.84765625 33.2802734375 c 0,39,40
 164.681640625 52 164.681640625 52 156.96484375 74.3681640625 c 0,41,42
 148.681640625 96 148.681640625 96 148.681640625 121.133789062 c 2,43,-1
 148.681640625 161.45703125 l 1,44,-1
 155.88671875 168.284179688 l 1,45,46
 222.681640625 293 222.681640625 293 266.41015625 429.698242188 c 0,47,48
 356.681640625 711 356.681640625 711 378.78515625 1011.70507812 c 0,49,50
 387.681640625 1133 387.681640625 1133 389.426757812 1250.88476562 c 1,51,52
 386.681640625 1250 386.681640625 1250 381.666992188 1248.9453125 c 0,53,54
 370.681640625 1246 370.681640625 1246 362.291992188 1244.25683594 c 0,55,56
 335.681640625 1238 335.681640625 1238 318.319335938 1232.58984375 c 0,57,58
 248.681640625 1213 248.681640625 1213 209.071289062 1208.18457031 c 0,59,60
 189.681640625 1206 189.681640625 1206 166.028320312 1206.03515625 c 0,61,62
 111.681640625 1206 111.681640625 1206 76.6669921875 1236.83984375 c 0,63,64
 39.681640625 1269 39.681640625 1269 39.681640625 1327.31738281 c 0,65,66
 39.681640625 1341 39.681640625 1341 42.2421875 1354.13769531 c 0,67,68
 44.681640625 1367 44.681640625 1367 49.8251953125 1379.45019531 c 0,69,70
 60.681640625 1405 60.681640625 1405 79.001953125 1422.73730469 c 0,71,72
 92.681640625 1436 92.681640625 1436 120.610351562 1453.35351562 c 0,73,74
 133.681640625 1462 133.681640625 1462 144.961914062 1466.02539062 c 0,75,76
 159.681640625 1472 159.681640625 1472 175.880859375 1477.4609375 c 0,77,78
 191.681640625 1483 191.681640625 1483 218.197265625 1489.86816406 c 0,79,80
 228.021484375 1492.14257812 228.021484375 1492.14257812 273.943359375 1499.72265625 c 0,81,82
 281.681640625 1501 281.681640625 1501 301.126953125 1503.28417969 c 0,83,84
 320.681640625 1506 320.681640625 1506 322.374023438 1506.09375 c 0,85,86
 323.681640625 1506 323.681640625 1506 325.897460938 1506.49316406 c 0,87,88
 327.681640625 1507 327.681640625 1507 329.424804688 1506.84570312 c 0,89,90
 341.681640625 1508 341.681640625 1508 348.977539062 1508 c 0,91,92
 354.681640625 1508 354.681640625 1508 384.329101562 1510 c 1,93,-1
 385.681640625 1510 l 1,94,-1
 465.565429688 1512 l 2,95,96
 465.681640625 1512 465.681640625 1512 465.681640625 1512 c 2,0,-1
604.096679688 682.130859375 m 1,97,98
 566.681640625 480 566.681640625 480 495.9921875 278.321289062 c 1,99,100
 514.681640625 278 514.681640625 278 560.609375 278 c 128,-1,101
 606.681640625 278 606.681640625 278 748.109375 299 c 128,-1,102
 889.681640625 320 889.681640625 320 989.681640625 377.5 c 128,-1,103
 1089.68164062 435 1089.68164062 435 1143.25097656 493.078125 c 0,104,105
 1280.68164062 641 1280.68164062 641 1254.68164062 782 c 0,106,107
 1221.68164062 964 1221.68164062 964 1160.68164062 1034 c 1,108,109
 1110.68164062 1100 1110.68164062 1100 1028.68164062 1160 c 1,110,111
 964.681640625 1210 964.681640625 1210 874.681640625 1244 c 8,112,113
 820.930664062 1265.49902344 820.930664062 1265.49902344 660.681640625 1270 c 1,114,115
 656.681640625 1005 656.681640625 1005 604.096679688 682.130859375 c 1,97,98
EndSplineSet
Validated: 524321
EndChar

StartChar: E
Encoding: 69 69 40
Width: 1231
GlyphClass: 2
Flags: W
LayerCount: 2
Fore
SplineSet
423.589852352 564.782567929 m 0,0,1
 396.245441529 381.504170131 396.245441529 381.504170131 354.957947672 261.441579886 c 1,2,3
 385.582518479 260 385.582518479 260 450.686086037 260 c 0,4,5
 515.789653596 260 515.789653596 260 608.893410519 265.447104295 c 0,6,7
 701.997167442 270.89420859 701.997167442 270.89420859 712.719391131 271.868956198 c 0,8,9
 923.545268104 287 923.545268104 287 977 287 c 0,10,11
 993.417175051 287 993.417175051 287 1004.39382577 284.740997563 c 0,12,13
 1058.76496214 273.551379458 1058.76496214 273.551379458 1081.15086055 246.082509221 c 0,14,15
 1115 204.109576308 1115 204.109576308 1115 152.513424576 c 0,16,17
 1115 100.917272844 1115 100.917272844 1083.11074758 64.6794860012 c 0,18,19
 1051.33846027 28.3683005112 1051.33846027 28.3683005112 995.885666189 24.1027009662 c 2,20,-1
 702.674219111 3.15902617493 l 1,21,-1
 692.242983537 2 l 1,22,-1
 193 2 l 2,23,24
 148.469066339 2 148.469066339 2 114.611735067 17.1045939134 c 0,25,26
 69.2623609292 36.2891044132 69.2623609292 36.2891044132 45.5788695214 79.0315273953 c 0,27,28
 31 105.2979268 31 105.2979268 31 138.381480423 c 2,29,-1
 31 171.561273958 l 1,30,-1
 35.6685967311 179.875394634 l 2,31,32
 114.514602959 320.289152424 114.514602959 320.289152424 160.490634686 599.494167777 c 2,33,-1
 181.562869261 726.045299171 l 1,34,35
 191.430895653 777.510786036 191.430895653 777.510786036 194.302782995 800.204691809 c 0,36,37
 243 1174.33394147 243 1174.33394147 243 1395.7616822 c 2,38,-1
 243 1402.04915575 l 1,39,40
 260.143213042 1458.94536869 260.143213042 1458.94536869 305.015447886 1483.01412368 c 0,41,42
 338.579764946 1502 338.579764946 1502 386 1502 c 0,43,44
 386.760731635 1501.99289568 386.760731635 1501.99289568 706.812057901 1496.0106279 c 1,45,-1
 1065 1506 l 1,46,47
 1145.37677398 1506 1145.37677398 1506 1179.12138558 1457.68437119 c 0,48,49
 1190.28906763 1441.69445296 1190.28906763 1441.69445296 1194.14453381 1425.36776874 c 0,50,51
 1198 1409.04108453 1198 1409.04108453 1198 1396.47603834 c 0,52,53
 1198 1336.28677313 1198 1336.28677313 1162.14522062 1307.29990749 c 0,54,55
 1118.94127511 1272.32190964 1118.94127511 1272.32190964 1081.86533247 1261.28690322 c 0,56,57
 1044.78938984 1250.2518968 1044.78938984 1250.2518968 1029.74825407 1248.82477289 c 0,58,59
 938.830188981 1240.14454802 938.830188981 1240.14454802 915.751310308 1240.14454802 c 0,0,0
 915.366210917 1240.14454802 915.366210917 1240.14454802 915 1240.14696486 c 2,1,-1
 893 1240.14696486 l 2,2,3
 864.041805384 1240.14696486 864.041805384 1240.14696486 851.339409539 1241.1558449 c 2,4,-1
 693.569426304 1247.65786904 l 1,5,-1
 505.121133914 1252.32060564 l 1,6,-1
 477.648565254 897.881163516 l 1,7,8
 517.231770281 899.503612107 517.231770281 899.503612107 568.258584963 905.1693382 c 0,9,10
 640.539174098 913.19496203 640.539174098 913.19496203 738.003670645 919.154581413 c 0,11,12
 751.829771214 920 751.829771214 920 767.536268146 920 c 0,13,14
 783.242765078 920 783.242765078 920 794.414880894 918.829587867 c 0,15,16
 893.613965739 908.541225639 893.613965739 908.541225639 921.098135534 843.251795028 c 0,17,18
 930 822.105161651 930 822.105161651 930 796.485714286 c 0,19,20
 930 748.91562296 930 748.91562296 899.848646833 717.64436239 c 0,21,22
 876.71425523 693.650693385 876.71425523 693.650693385 838.043558219 682.25664873 c 0,23,24
 814.49718995 675.245850358 814.49718995 675.245850358 791.684190242 673.996330444 c 2,25,-1
 438.092860614 648.698739381 l 1,26,27
 430.282846975 607.541211599 430.282846975 607.541211599 423.589852352 564.782567929 c 0,0,1
EndSplineSet
Validated: 1
EndChar

StartChar: F
Encoding: 70 70 41
Width: 1231
GlyphClass: 2
Flags: W
LayerCount: 2
Fore
SplineSet
1036.21784196 1507.39490345 m 0,0,1
 1106.202745 1510 1106.202745 1510 1121 1510 c 0,2,3
 1176.08717427 1510 1176.08717427 1510 1216.6193461 1480.27640732 c 0,4,5
 1263 1448.45025395 1263 1448.45025395 1263 1391.12437857 c 0,6,7
 1263 1352.78577487 1263 1352.78577487 1240.94053956 1322.42868594 c 0,8,9
 1209.56577957 1279.25236339 1209.56577957 1279.25236339 1136.16719294 1257.29424599 c 0,10,11
 1054.91866201 1232.98771827 1054.91866201 1232.98771827 916 1232.98771827 c 2,12,-1
 889.292600079 1232.98771827 l 1,13,-1
 773.35483114 1236.76111916 l 1,14,-1
 666.020412916 1241.41088533 l 1,15,16
 641.49082078 1241.49142611 641.49082078 1241.49142611 478.900023968 1246.10150494 c 1,17,-1
 456.161305189 1246.60810188 l 1,18,-1
 429.021460627 898 l 1,19,-1
 480.312828254 898 l 1,20,-1
 492.312828254 899 l 1,21,-1
 518.84670433 899 l 1,22,-1
 694.84670433 909 l 1,23,-1
 714 909 l 2,24,25
 770.326189757 909 770.326189757 909 804.86814158 883.36061308 c 0,26,27
 820.821992291 871.518579563 820.821992291 871.518579563 831.353228514 854.541082001 c 0,28,29
 851 822.868350718 851 822.868350718 851 779 c 0,30,31
 851 725.869876815 851 725.869876815 814.640555541 690.908872527 c 0,32,33
 766.970386442 645.07217147 766.970386442 645.07217147 663.977405271 640.048123608 c 0,34,35
 621.78886946 638.845057266 621.78886946 638.845057266 615.175842022 638.431743051 c 0,36,37
 613.440682126 638.323295558 613.440682126 638.323295558 561.016675863 637.012695401 c 0,38,-1
 560 637 l 1,39,-1
 537.560096111 637 l 1,40,-1
 393.492593724 633.484807902 l 1,41,42
 391.740435525 626.677045119 391.740435525 626.677045119 386.295210832 606.224063643 c 0,43,44
 380.849986139 585.771082168 380.849986139 585.771082168 374.153264007 559.674044999 c 0,45,46
 367.456541876 533.577007831 367.456541876 533.577007831 364.755691027 523.367093017 c 0,47,48
 359.225071201 502.459919515 359.225071201 502.459919515 356.523622683 493.722227991 c 0,49,50
 351.747168779 478.273041929 351.747168779 478.273041929 349.283031025 468.091853209 c 2,51,-1
 344.096573154 448.069098895 l 2,52,53
 343.069806197 441.319922915 343.069806197 441.319922915 339.580181453 431.555466136 c 0,54,55
 337.638546497 423.570057562 337.638546497 423.570057562 334.956127714 414.253968391 c 0,56,57
 330.663260314 394.235855291 330.663260314 394.235855291 326.95767585 383.796857777 c 0,58,59
 322.037327519 366.33407216 322.037327519 366.33407216 315.345930419 290.449210622 c 0,60,61
 308.65453332 214.564349084 308.65453332 214.564349084 301.960855372 188.981570955 c 2,62,-1
 295.122403686 159.625998784 l 1,63,64
 272.288610419 56.4621780658 272.288610419 56.4621780658 211.663617197 20.9079733866 c 0,65,66
 181.388450328 2 181.388450328 2 144 2 c 0,67,68
 90.1776457022 2 90.1776457022 2 53.5888228511 36.3486908398 c 0,69,70
 17 68.8942610541 17 68.8942610541 17 125.083812424 c 2,71,-1
 17 163.512215499 l 1,72,-1
 24.2241670215 170.357152796 l 1,73,74
 90.234752183 293.153602805 90.234752183 293.153602805 116.161446989 562.466280676 c 0,75,76
 125.221670867 658.123375701 125.221670867 658.123375701 148.731689004 802.721338735 c 0,77,78
 149.769512916 809.104456897 149.769512916 809.104456897 150.436656914 812.933925233 c 0,79,80
 194.999999653 1129.39086502 194.999999653 1129.39086502 195 1392.84604388 c 2,81,-1
 195 1400.40629256 l 1,82,-1
 196.725341962 1405.77768244 l 2,83,84
 213.081700169 1456.69882093 213.081700169 1456.69882093 257.693286364 1480.3151012 c 0,85,86
 291.136547257 1499 291.136547257 1499 338 1499 c 0,87,88
 338.689963229 1498.99415679 338.689963229 1498.99415679 692.345214053 1493 c 1,89,-1
 706.383471335 1493 l 1,90,91
 849.158398493 1497.90306923 849.158398493 1497.90306923 909.118973039 1501.43016185 c 0,92,93
 966.232938917 1504.7898069 966.232938917 1504.7898069 1036.21784196 1507.39490345 c 0,0,1
EndSplineSet
Validated: 1
EndChar

StartChar: G
Encoding: 71 71 42
Width: 1369
GlyphClass: 2
Flags: W
LayerCount: 2
Fore
SplineSet
1237.35035465 42.0950280289 m 0,0,1
 1223.42272852 39 1223.42272852 39 1212 39 c 0,2,3
 1149.54122161 39 1149.54122161 39 1109.74762783 95.8687153207 c 1,4,5
 888 -26 888 -26 585 -26 c 0,6,7
 434.843171833 -26 434.843171833 -26 324.004498031 28.2186290722 c 0,8,9
 183.348249065 93.4672619578 183.348249065 93.4672619578 108.95550276 239.152105031 c 0,10,11
 7 439.431285926 7 439.431285926 7 816.065697427 c 0,12,13
 7 1128.0958331 7 1128.0958331 197.426967836 1304.80748567 c 0,14,15
 348.634418263 1445.12436804 348.634418263 1445.12436804 617.12448949 1496.22350376 c 0,16,17
 706.006970666 1514 706.006970666 1514 752 1514 c 0,18,19
 841.599802202 1514 841.599802202 1514 938.550818796 1500.26160265 c 0,20,21
 1178.28959431 1466.28953435 1178.28959431 1466.28953435 1274.48949509 1361.01417123 c 0,22,23
 1318 1313.54816588 1318 1313.54816588 1318 1252.75511768 c 0,24,25
 1318 1191.96206948 1318 1191.96206948 1281.04058881 1156.48103474 c 0,26,27
 1244.08117762 1121 1244.08117762 1121 1191 1121 c 2,28,-1
 1156.49189218 1121 l 1,29,30
 1081.01800942 1150.28837242 1081.01800942 1150.28837242 1042.51406786 1169.02001966 c 0,31,32
 892.762939367 1242 892.762939367 1242 804 1242 c 2,33,-1
 791 1242 l 2,34,35
 630.292738259 1242 630.292738259 1242 496.037717183 1180.86653598 c 0,36,37
 320.608201367 1100.98413079 320.608201367 1100.98413079 276.199778924 936.865867037 c 0,38,39
 261 880.692709125 261 880.692709125 261 813.423791822 c 0,40,41
 261 618.460156059 261 618.460156059 276.449998668 533.546188009 c 0,42,43
 310.517122164 345.192953922 310.517122164 345.192953922 408.460403537 287.426491822 c 0,44,45
 478.662632375 246 478.662632375 246 569 246 c 0,46,47
 615.005888758 246 615.005888758 246 695.20996982 261.941111521 c 0,48,49
 775.414050882 277.882223042 775.414050882 277.882223042 889.526281805 310.921399033 c 0,50,51
 1003.63851273 343.960575024 1003.63851273 343.960575024 1054.26024891 376.092412023 c 0,52,53
 1062.62677786 381.40301503 1062.62677786 381.40301503 1068.88025027 386.868416483 c 0,54,55
 1077.64378994 394.527563172 1077.64378994 394.527563172 1080 398.888985284 c 1,56,-1
 1080 649.875238888 l 1,57,58
 893.649833375 669.068095888 893.649833375 669.068095888 845.572742672 678.577850093 c 0,59,60
 746.670635675 698.140904224 746.670635675 698.140904224 710.513832113 761.161867145 c 0,61,62
 691.5 794.302798818 691.5 794.302798818 691.5 833 c 0,63,64
 691.5 857.54996728 691.5 857.54996728 704.471216704 887.035480421 c 0,65,66
 709.848562586 899.258990849 709.848562586 899.258990849 719.215935459 913.021823301 c 0,67,68
 728.583308332 926.784655753 728.583308332 926.784655753 744.768658912 939.204393573 c 0,69,70
 778.385385729 965 778.385385729 965 818 965 c 2,71,-1
 825 965 l 1,72,-1
 829.12674746 965 l 1,73,-1
 946.806655047 940.652432913 l 1,74,75
 1150.20239115 923.342026153 1150.20239115 923.342026153 1176.63447004 920.308348736 c 0,76,77
 1230.78465059 914.093393776 1230.78465059 914.093393776 1239.18431235 912.179756452 c 0,78,79
 1247.5839741 910.266119128 1247.5839741 910.266119128 1248.91275244 909.885882399 c 0,80,81
 1250.24153077 909.50564567 1250.24153077 909.50564567 1252.95092855 908.74004789 c 0,82,83
 1260.91350373 906.490053478 1260.91350373 906.490053478 1279.55636492 895.48514856 c 0,84,85
 1283.93836893 892.619081071 1283.93836893 892.619081071 1287.278725 889.278725 c 0,86,87
 1310.13485288 866.422597125 1310.13485288 866.422597125 1322.06742644 846.819083415 c 0,88,89
 1334 827.215569706 1334 827.215569706 1334 808 c 2,90,-1
 1334 148 l 2,91,92
 1334 101.924461588 1334 101.924461588 1299.75342403 72.3478732524 c 0,93,94
 1276.3575339 52.1423317746 1276.3575339 52.1423317746 1237.35035465 42.0950280289 c 0,0,1
EndSplineSet
Validated: 1
EndChar

StartChar: H
Encoding: 72 72 43
Width: 1405
GlyphClass: 2
Flags: W
LayerCount: 2
Fore
SplineSet
331.561950152 77.4359083431 m 1,0,1
 273.527174155 3 273.527174155 3 188 3 c 0,2,3
 164.248624783 3 164.248624783 3 146.776874732 6.77767568676 c 0,4,5
 129.305124681 10.5553513735 129.305124681 10.5553513735 117.679486001 20.8892524219 c 0,6,7
 72 58.7803675279 72 58.7803675279 72 129.066188218 c 2,8,-1
 72 136.983831982 l 1,9,-1
 73.0078529801 151.315494349 l 1,10,11
 73.4053754678 186.658864461 73.4053754678 186.658864461 98.8198635174 246.401682372 c 1,12,-1
 121.812766915 304.155559821 l 1,13,14
 125.059178194 315.850426093 125.059178194 315.850426093 126.641530634 319.350587978 c 0,15,16
 128.33269238 323.091435931 128.33269238 323.091435931 129.051770649 326.55131911 c 0,17,18
 129.770848918 330.011202288 129.770848918 330.011202288 131 334.373293137 c 1,19,-1
 131 335.850243675 l 1,20,21
 173.117694385 528.833424962 173.117694385 528.833424962 181.01981483 791.025653076 c 2,22,-1
 183.032456455 852.081119555 l 1,23,24
 186.027671926 907.450645668 186.027671926 907.450645668 216.008534862 1398.74252335 c 1,25,26
 216.383337575 1426.24650809 216.383337575 1426.24650809 231.818374199 1448.48776759 c 0,27,28
 243.71790224 1465.63450313 243.71790224 1465.63450313 265.399194976 1479.33707343 c 0,29,30
 268.545371162 1481.69239181 268.545371162 1481.69239181 271.0340295 1483.04985971 c 0,31,32
 273.522687837 1484.40732761 273.522687837 1484.40732761 274.633258635 1485.0413804 c 0,33,34
 275.743829433 1485.67543318 275.743829433 1485.67543318 277.907634571 1486.71820365 c 0,35,36
 280.071439708 1487.76097412 280.071439708 1487.76097412 280.1503182 1487.80041333 c 0,37,38
 318.549491548 1507 318.549491548 1507 357 1507 c 0,39,40
 399.9618388 1507 399.9618388 1507 422.849188066 1493.43712636 c 0,41,42
 430.968811726 1488.62549752 430.968811726 1488.62549752 437.304422388 1485.26536761 c 0,43,44
 444.28581956 1481.56274087 444.28581956 1481.56274087 453.218324664 1474.11609189 c 1,45,-1
 455.664391548 1472.89305845 l 1,46,-1
 460.278725 1468.58589004 l 2,47,48
 476.893058452 1453.07753265 476.893058452 1453.07753265 495.800413326 1417.78005682 c 2,49,-1
 500 1409.93999616 l 1,50,-1
 500 1302.17474929 l 2,51,52
 500 1110.43305437 500 1110.43305437 488.219084108 1018.63460902 c 0,53,54
 474.237471355 905.176765274 474.237471355 905.176765274 473.826703697 901.129488359 c 1,55,-1
 878.779921021 910.982364693 l 1,56,-1
 908 912 l 1,57,-1
 1019 912 l 1,58,-1
 1019 913.577934193 l 1,59,-1
 1039.16697018 1139.91281848 l 1,60,-1
 1041 1157.05630395 l 1,61,-1
 1041 1176.16297943 l 1,62,-1
 1042 1178.03348752 l 1,63,-1
 1042 1179.73326006 l 1,64,-1
 1044.02681308 1217.35148153 l 1,65,66
 1048 1334.40109558 1048 1334.40109558 1048 1351.56939931 c 2,67,-1
 1048 1372.92978517 l 1,68,-1
 1049.03571115 1383.58496861 l 2,69,70
 1049.30148786 1391.30975283 1049.30148786 1391.30975283 1050.87238483 1396.69677454 c 0,71,72
 1052.96695501 1403.87961037 1052.96695501 1403.87961037 1054.31876086 1410.82775452 c 0,73,74
 1055.6705667 1417.77589868 1055.6705667 1417.77589868 1060.31315756 1426.45990199 c 0,75,76
 1083.78316861 1469.67479664 1083.78316861 1469.67479664 1123.74433822 1489.79917492 c 0,77,78
 1155.68872766 1507 1155.68872766 1507 1196 1507 c 0,79,80
 1254.65725449 1507 1254.65725449 1507 1291.15628598 1471.05721958 c 0,81,82
 1309.02948807 1453.45640794 1309.02948807 1453.45640794 1320.05887991 1428.21921277 c 1,83,-1
 1332 1428.21921277 l 1,84,-1
 1332 1294.68371708 l 1,85,-1
 1331 1283.29372374 l 1,86,-1
 1331 1278.55659071 l 1,87,88
 1326.45913363 1149.2554965 1326.45913363 1149.2554965 1314.36567181 1010.30276231 c 0,89,90
 1302.31062806 870.401381377 1302.31062806 870.401381377 1301.57192267 859.884069573 c 0,91,92
 1300.74209813 848.069449583 1300.74209813 848.069449583 1299.47418394 839.327838538 c 0,93,94
 1298.20626975 830.586227492 1298.20626975 830.586227492 1297.97694406 828.938547123 c 0,95,96
 1297.42952033 800.707072494 1297.42952033 800.707072494 1275.70113311 632.903938659 c 0,97,98
 1232.32954616 297.153602956 1232.32954616 297.153602956 1171.14223746 145.659083048 c 0,99,100
 1128.5499845 40.2043237159 1128.5499845 40.2043237159 1070.98528509 13.24670632 c 0,101,102
 1050.21697072 3 1050.21697072 3 1028 3 c 0,103,104
 969.567716315 3 969.567716315 3 925.878529207 36.0978690213 c 0,105,106
 877 73.1270578147 877 73.1270578147 877 128.5 c 0,107,108
 877 166.754313441 877 166.754313441 883.743566122 216.034219719 c 0,109,110
 890.487132244 265.314125997 890.487132244 265.314125997 901.153334815 324.232197337 c 2,111,-1
 923.665081556 447.296117889 l 2,112,113
 936.440666631 516.497203711 936.440666631 516.497203711 952.884119331 594.019960337 c 0,114,115
 969.32757203 671.542716963 969.32757203 671.542716963 971.006669166 682.203606847 c 0,116,117
 971.030636003 684.315759406 971.030636003 684.315759406 971.142749734 686.133656167 c 1,118,119
 902.387709054 684.592668302 902.387709054 684.592668302 844.212478682 682.802661213 c 0,120,121
 786.03724831 681.012654125 786.03724831 681.012654125 715.037983711 679.512755525 c 0,122,123
 644.038719113 678.012856925 644.038719113 678.012856925 595.306612095 676.513328706 c 0,124,125
 513.919491816 674.008978063 513.919491816 674.008978063 490.685263321 673.677060513 c 0,126,127
 456.541638328 673.189294442 456.541638328 673.189294442 442.717933633 672.631318451 c 1,128,129
 442.381418491 664.472787717 442.381418491 664.472787717 441.540198738 650.4524585 c 0,130,131
 439.953322945 624.004528609 439.953322945 624.004528609 437.97071866 572.456817211 c 0,132,133
 430.629711813 379.331867838 430.629711813 379.331867838 407.995211317 263.750090796 c 0,134,135
 388.82893507 165.878601728 388.82893507 165.878601728 357.305879314 118.852403797 c 1,136,-1
 350.072298549 104.505956028 l 1,137,-1
 340 89.7332514895 l 1,138,-1
 340 88 l 1,139,-1
 331.561950152 77.4359083431 l 1,0,1
EndSplineSet
Validated: 1
EndChar

StartChar: I
Encoding: 73 73 44
Width: 897
GlyphClass: 2
Flags: W
LayerCount: 2
Fore
SplineSet
202.540507495 1491.24967014 m 0,0,1
 220.978419824 1506 220.978419824 1506 251 1506 c 2,2,-1
 301 1506 l 2,3,4
 426.883584181 1506 426.883584181 1506 588.763786992 1498.96173031 c 2,5,-1
 794.883584181 1490 l 1,6,-1
 812.55745 1490 l 1,7,-1
 818.915747138 1483.64170286 l 1,8,9
 847.368565642 1472.45523769 847.368565642 1472.45523769 865.404902963 1452.48643566 c 0,10,11
 892.336825148 1422.66895038 892.336825148 1422.66895038 892.985512532 1377.99848919 c 1,12,-1
 894 1366.83912705 l 1,13,-1
 894 1357.48057203 l 1,14,-1
 892.955234801 1349.12245044 l 2,15,16
 892.748952322 1343.04089069 892.748952322 1343.04089069 891.969065993 1339.92134537 c 0,17,18
 891.038110734 1336.19752434 891.038110734 1336.19752434 890.651483868 1334.26439 c 0,19,20
 890.264857001 1332.33125567 890.264857001 1332.33125567 889.646604621 1329.94640518 c 0,21,22
 889.028352241 1327.5615547 889.028352241 1327.5615547 888.687956063 1326.38665716 c 0,23,24
 888.347559885 1325.21175962 888.347559885 1325.21175962 887.052173554 1321.06497964 c 0,25,26
 885.756787223 1316.91819966 885.756787223 1316.91819966 884.979385547 1314.39164422 c 0,27,28
 875.066764844 1288.64845032 875.066764844 1288.64845032 857.256301969 1274.08884957 c 0,29,30
 849.476767082 1267.9471115 849.476767082 1267.9471115 843.576136029 1262.95395516 c 0,31,32
 825.696836243 1245 825.696836243 1245 786 1245 c 2,33,-1
 640.319245815 1245 l 1,34,-1
 594.778777475 638.746085345 l 1,35,-1
 529.630359552 262 l 1,36,-1
 541.449973132 262 l 1,37,38
 634.733716249 264.521182246 634.733716249 264.521182246 643.64314864 265.295915498 c 0,39,40
 652.552581032 266.070648749 652.552581032 266.070648749 655.2183941 266.340197717 c 0,41,42
 657.884207169 266.609746685 657.884207169 266.609746685 659.048664931 266.721732208 c 0,43,44
 661.942173664 267 661.942173664 267 666 267 c 2,45,-1
 668.021112106 267 l 1,46,47
 715.358260758 262.266285135 715.358260758 262.266285135 738.189044011 227.695276925 c 0,48,49
 743.707134331 219.339630795 743.707134331 219.339630795 749.426577721 206.721477336 c 0,50,51
 757.659907376 188.557224284 757.659907376 188.557224284 758.272805627 185.598460972 c 0,52,53
 758.942806842 182.364033386 758.942806842 182.364033386 760.033165618 179.638137262 c 0,54,55
 761.123524394 176.912241139 761.123524394 176.912241139 761.873911856 174.534930722 c 0,56,57
 762.624299318 172.157620306 762.624299318 172.157620306 763.150411509 169.857978447 c 0,58,59
 766 157.402397522 766 157.402397522 766 137.558739832 c 0,60,61
 766 94.9611619447 766 94.9611619447 747.839739115 63.4600940257 c 0,62,63
 723.740734174 21.6575893006 723.740734174 21.6575893006 672.227846443 6.59997596383 c 2,64,-1
 666.754244462 5 l 1,65,-1
 659.633188005 5 l 1,66,-1
 534.667386639 -4.99453317454 l 1,67,68
 473.333910286 -6 473.333910286 -6 428 -6 c 2,69,-1
 398 -6 l 2,70,71
 220.678768302 -6 220.678768302 -6 125.483087007 7.22756986236 c 0,72,73
 119.050840061 8.12133935583 119.050840061 8.12133935583 116.309912545 8.6682957434 c 0,74,75
 113.56898503 9.21525213098 113.56898503 9.21525213098 111.634622845 9.56420049468 c 0,76,77
 109.70026066 9.91314885838 109.70026066 9.91314885838 108.842138495 10.1286302227 c 0,78,79
 107.984016329 10.344111587 107.984016329 10.344111587 106.207677591 10.8523030485 c 0,80,81
 103.129144929 11.7330382254 103.129144929 11.7330382254 98.4483143173 14.0512904298 c 0,82,83
 61.4980910866 31.917491457 61.4980910866 31.917491457 39.2490455433 75.1068148263 c 0,84,85
 17 118.296138196 17 118.296138196 17 148 c 0,86,87
 17 173.028592755 17 173.028592755 23.7740113849 193.828149979 c 0,88,89
 33.7905206049 228.152789672 33.7905206049 228.152789672 52.4798442711 249.276740254 c 0,90,91
 80.5468639106 281 80.5468639106 281 123 281 c 2,92,-1
 250.816054006 281 l 1,93,-1
 304.270049915 547.420440885 l 1,94,-1
 359.201376265 1258.58898972 l 1,95,-1
 250.230005278 1265.58646715 l 1,96,97
 213.7368104 1269.65914946 213.7368104 1269.65914946 187.239349671 1293.31632498 c 0,98,99
 167.896655963 1310.585659 167.896655963 1310.585659 155.3342579 1337.50363659 c 0,100,101
 145 1359.64728473 145 1359.64728473 145 1377.81604665 c 0,102,103
 145 1393.21152714 145 1393.21152714 147.333131732 1403.05389761 c 0,104,105
 149.666263464 1412.89626808 149.666263464 1412.89626808 150.523426459 1418.11932434 c 0,106,107
 151.380589455 1423.34238061 151.380589455 1423.34238061 153.278260875 1428.89960475 c 0,108,109
 155.597254435 1435.69064712 155.597254435 1435.69064712 162.427224393 1449.41083145 c 1,110,111
 175.136155583 1470.26030104 175.136155583 1470.26030104 188.31701668 1479.96889564 c 0,112,113
 195.178287281 1485.35989397 195.178287281 1485.35989397 202.540507495 1491.24967014 c 0,0,1
EndSplineSet
Validated: 1
EndChar

StartChar: J
Encoding: 74 74 45
Width: 984
GlyphClass: 2
Flags: W
LayerCount: 2
Fore
SplineSet
564 1247.68384731 m 1,0,-1
 562 1247.68384731 l 1,1,-1
 540.5 1246.73588104 l 1,2,-1
 447 1246.73588104 l 1,3,-1
 446.075483637 1246.74583104 l 1,4,5
 330.100526043 1249.24447529 330.100526043 1249.24447529 273.522478999 1294.29710232 c 0,6,7
 230 1328.44152308 230 1328.44152308 230 1386.08692163 c 2,8,-1
 230 1387.03488789 l 2,9,10
 230 1445.55230453 230 1445.55230453 275.694641494 1478.76198806 c 0,11,12
 316.439874464 1510 316.439874464 1510 371 1510 c 0,13,14
 498.922647741 1510 498.922647741 1510 631.784822686 1503.96081023 c 2,15,-1
 880.89414609 1493 l 1,16,-1
 887.630603781 1493 l 1,17,18
 915.772549759 1484.95944401 915.772549759 1484.95944401 934.514436416 1473.17920363 c 0,19,20
 953.256323074 1462.00069466 953.256323074 1462.00069466 966.351338072 1445.66921575 c 0,21,22
 992 1413.6814264 992 1413.6814264 992 1366.73008266 c 0,23,24
 992 1346.20436413 992 1346.20436413 985.467040124 1324.50696079 c 0,25,26
 983.502995545 1317.98393475 983.502995545 1317.98393475 980.454570983 1312.12964503 c 0,27,28
 976.107978156 1297.7339028 976.107978156 1297.7339028 962.024039697 1280.87265149 c 0,29,30
 954.099970516 1271.38597827 954.099970516 1271.38597827 946.582850054 1265.44168824 c 0,31,32
 924.935152248 1248.32340541 924.935152248 1248.32340541 895.48548411 1246.35128114 c 1,33,-1
 838.510256246 1240.53784576 l 1,34,-1
 827.993514938 512.961035858 l 2,35,36
 826.951344014 457.580557084 826.951344014 457.580557084 818.597936832 399.121015837 c 0,37,38
 811.774418805 355.954518402 811.774418805 355.954518402 809.218335849 344.074110111 c 0,39,40
 806.662252893 332.193701819 806.662252893 332.193701819 804.981461719 325.453773351 c 0,41,42
 803.300670546 318.713844883 803.300670546 318.713844883 802.506863306 315.38320877 c 0,43,44
 784.138477567 238.313605768 784.138477567 238.313605768 746.085794577 173.733153722 c 0,45,46
 716.070287833 120.944838446 716.070287833 120.944838446 668.372675915 77.946668892 c 0,47,48
 565.157928712 -13 565.157928712 -13 415 -13 c 0,49,50
 344.966317889 -13 344.966317889 -13 266.081023303 21.2979541676 c 0,51,52
 240.702218651 31.7580631209 240.702218651 31.7580631209 217.464935632 45.3494318992 c 0,53,54
 171.884392288 70.5213463317 171.884392288 70.5213463317 129.257657556 103.858528416 c 0,55,56
 86.6309228246 137.195710501 86.6309228246 137.195710501 53.188723236 176.008333413 c 0,57,58
 35.718394864 195.708788984 35.718394864 195.708788984 22.390541551 216.55829987 c 0,59,60
 14.2174066753 227.780860138 14.2174066753 227.780860138 8.19958667395 239.190240619 c 2,61,-1
 -2.06502087316 258.651243924 l 1,62,63
 -25 305.567298879 -25 305.567298879 -25 352.803695534 c 0,64,65
 -25 410.027232724 -25 410.027232724 13.9808409643 441.318636201 c 0,66,67
 49 470.35151208 49 470.35151208 104 470.35151208 c 0,68,69
 128.13067981 470.35151208 128.13067981 470.35151208 151.400953242 463.457938914 c 1,70,71
 167.869696094 457.472297207 167.869696094 457.472297207 172.101633845 455.466423784 c 2,72,-1
 191.565225157 444.108039277 l 1,73,74
 222.040449577 422.996492845 222.040449577 422.996492845 247.590918341 392.169788 c 0,75,76
 254.495957729 383.753830939 254.495957729 383.753830939 260.33387272 376.743862481 c 0,77,78
 279.253817491 354.025440531 279.253817491 354.025440531 292.394050337 331.449095607 c 0,79,80
 310.090450155 305.622003801 310.090450155 305.622003801 331.135112863 283.054553468 c 0,81,82
 338.167221114 276.388352092 338.167221114 276.388352092 341.298294062 272.47223431 c 0,83,84
 351.388133772 262.907406671 351.388133772 262.907406671 358.153921265 258.002783279 c 0,85,86
 364.919708757 253.098159887 364.919708757 253.098159887 372.488126119 248.287379514 c 0,87,88
 388.698078848 239.04774425 388.698078848 239.04774425 410.662674762 239.047744144 c 0,89,90
 450.659825601 239.04774395 450.659825601 239.04774395 473.504359769 256.881971445 c 0,91,92
 514.073848054 288.747590851 514.073848054 288.747590851 535.699407234 356.654836289 c 0,93,94
 542.424506566 377.772577899 542.424506566 377.772577899 547.700711707 405.403041682 c 0,95,96
 558.198373655 457.874214677 558.198373655 457.874214677 561.088349389 509.926605088 c 0,97,-1
 563.008732815 531.772109478 l 2,98,99
 563.07611768 538.298341504 563.07611768 538.298341504 563.53805884 543.115292488 c 0,100,101
 564 547.932243472 564 547.932243472 564 551.876610653 c 2,102,-1
 564 572.731868427 l 2,103,104
 564 581.979359938 564 581.979359938 564.789981828 591.843548354 c 1,105,-1
 564 597.834557318 l 1,106,-1
 564 1247.68384731 l 1,0,-1
EndSplineSet
Validated: 1
EndChar

StartChar: K
Encoding: 75 75 46
Width: 1331
GlyphClass: 2
Flags: W
LayerCount: 2
Fore
SplineSet
205.700763647 1064.27997403 m 0,0,1
 206 1066.83065084 206 1066.83065084 206 1069.44183743 c 2,2,-1
 207 1084.12197902 l 1,3,-1
 207 1092.17237925 l 2,4,5
 207 1106.63274794 207 1106.63274794 208 1121.78644249 c 0,6,7
 209 1136.94013703 209 1136.94013703 209 1151.84005152 c 2,8,-1
 209 1152.39068231 l 1,9,10
 210.022006816 1186.26888664 210.022006816 1186.26888664 211.522006816 1223.67957005 c 0,11,12
 213.022006816 1261.09025346 213.022006816 1261.09025346 213.767022744 1285.78656802 c 0,13,14
 215.007795832 1326.91659136 215.007795832 1326.91659136 216 1353.31327757 c 2,15,-1
 216 1398.99199695 l 1,16,-1
 217.191031226 1403.5041278 l 2,17,18
 227.867510467 1443.95115411 227.867510467 1443.95115411 256.721275 1471.278725 c 0,19,20
 291.44255 1506 291.44255 1506 343 1506 c 0,21,22
 345.077811036 1506 345.077811036 1506 361 1505 c 1,23,-1
 363.519427974 1505 l 1,24,25
 384.280424764 1502.4048754 384.280424764 1502.4048754 392.727812766 1498.78456626 c 2,26,-1
 408.8496818 1491.80041333 l 1,27,28
 437.319807561 1477.56535045 437.319807561 1477.56535045 455.019017504 1453.96640386 c 0,29,30
 473.273073311 1429.62766278 473.273073311 1429.62766278 479.223503765 1399.87551051 c 2,31,-1
 480 1395.99302933 l 1,32,-1
 480 1394.05135272 l 2,33,34
 480.125045625 1393.47895222 480.125045625 1393.47895222 481.562522812 1387.71693541 c 0,35,36
 483 1381.9549186 483 1381.9549186 483 1375 c 2,37,-1
 483 1371.76921761 l 1,38,39
 484 1359.89142042 484 1359.89142042 484 1346.66790825 c 0,40,41
 484 1333.44439608 484 1333.44439608 483.830885656 1317.55836156 c 0,42,43
 482.905021225 1230.58576056 482.905021225 1230.58576056 477.876549829 1091.42174836 c 1,44,45
 595.808948223 1182.0965349 595.808948223 1182.0965349 719.178245173 1262.52082342 c 0,46,47
 886.154688329 1371.50544799 886.154688329 1371.50544799 1060.08334128 1468.57844604 c 0,48,49
 1061.98833519 1470.05000441 1061.98833519 1470.05000441 1063.66235293 1471.44501687 c 0,50,51
 1065.33637068 1472.84002933 1065.33637068 1472.84002933 1067.36245589 1474.33209547 c 0,52,53
 1072.09952514 1477.8206065 1072.09952514 1477.8206065 1082.27829539 1483.13719677 c 0,54,55
 1092.45706564 1488.45378704 1092.45706564 1488.45378704 1101.30688924 1489.9414775 c 0,56,57
 1113.49022495 1494 1113.49022495 1494 1148 1494 c 0,58,59
 1203.41064493 1494 1203.41064493 1494 1240.8434096 1461.41154846 c 0,60,61
 1266.58726808 1439.55435227 1266.58726808 1439.55435227 1275.80896877 1404.56253274 c 0,62,63
 1280 1388.6596301 1280 1388.6596301 1280 1371.62710832 c 2,64,-1
 1280 1365.93534592 l 2,65,66
 1280 1351.96388674 1280 1351.96388674 1274.40431223 1334.53573356 c 0,67,68
 1273.63733646 1329.80256166 1273.63733646 1329.80256166 1270.39291901 1321.83754579 c 0,69,70
 1259.67959307 1291.04008662 1259.67959307 1291.04008662 1228.60947511 1271.39078337 c 1,71,-1
 820.506278116 1030.96783549 l 1,72,-1
 579.545077042 860.5701079 l 1,73,74
 596.712137024 849.099929757 596.712137024 849.099929757 624.850839857 831.833917725 c 0,75,76
 652.98954269 814.567905693 652.98954269 814.567905693 660.853517966 808.467714226 c 0,77,78
 806.613473295 702.658101589 806.613473295 702.658101589 932.23713264 577.902004128 c 0,79,80
 968.963899522 539.743903242 968.963899522 539.743903242 981.84468015 524.868685277 c 0,81,82
 1088.84811587 401.297026442 1088.84811587 401.297026442 1135.61943373 271.275017832 c 0,83,84
 1161 200.718267315 1161 200.718267315 1161 123.233887791 c 0,85,86
 1161 86.7095549113 1161 86.7095549113 1142.27132149 58.7907254396 c 0,87,88
 1125.19670966 33.3376070895 1125.19670966 33.3376070895 1090.28868132 16.7597228228 c 0,89,90
 1060.80579957 2 1060.80579957 2 1028 2 c 0,91,92
 1005.12290748 2 1005.12290748 2 984.743698031 18.0888495656 c 0,93,94
 964.515883182 34.0581770787 964.515883182 34.0581770787 931.966464372 79.0430954726 c 0,95,96
 924.568231302 88.5856070481 924.568231302 88.5856070481 917.492366755 98.6939883868 c 0,97,98
 910.416502208 108.802369725 910.416502208 108.802369725 890.675429428 136.64533483 c 0,99,100
 870.934356648 164.488299935 870.934356648 164.488299935 832.93233933 221.991352456 c 0,101,102
 794.930322011 279.494404978 794.930322011 279.494404978 767.661659818 318.228300138 c 0,103,104
 740.392997626 356.962195298 740.392997626 356.962195298 729.267229375 372.414639871 c 0,105,106
 718.141461124 387.867084445 718.141461124 387.867084445 706.765098815 403.324153305 c 0,107,108
 684.010142145 434.241323715 684.010142145 434.241323715 660.258553652 465.167871232 c 0,109,110
 607.824136553 533.441851829 607.824136553 533.441851829 540.668131786 603.285370385 c 0,111,112
 506.108876233 639.22699616 506.108876233 639.22699616 469.16440907 667.645817055 c 0,113,114
 451.935109589 681.74251663 451.935109589 681.74251663 435.28046959 692.853096406 c 1,115,116
 423.643592062 620.44590962 423.643592062 620.44590962 417.571928081 586.03981373 c 0,117,118
 411.500264101 551.63371784 411.500264101 551.63371784 408.894873601 535.752550359 c 0,119,120
 406.289483101 519.871382878 406.289483101 519.871382878 405.96082514 517.649600204 c 0,121,122
 405.632167179 515.42781753 405.632167179 515.42781753 405.262357581 513.23218608 c 0,123,124
 404.519222592 508.820049242 404.519222592 508.820049242 403.762721851 505.28971233 c 0,125,126
 402.401570482 498.937672388 402.401570482 498.937672388 401.089461166 489.752907175 c 1,127,-1
 400.089461166 486.752907175 l 1,128,129
 397.539278199 468.901626406 397.539278199 468.901626406 395.769787474 462.93634041 c 0,130,131
 385.928299066 413.086781686 385.928299066 413.086781686 384.450499784 402.645825544 c 0,132,133
 360.786417823 217.381859991 360.786417823 217.381859991 317.35644894 120.303106016 c 1,134,135
 295.860812058 74.9234281555 295.860812058 74.9234281555 263.20460033 44.6861950738 c 0,136,137
 236.366753164 19.7653369912 236.366753164 19.7653369912 196.702544351 10.9510701842 c 0,138,139
 183.422728523 8 183.422728523 8 173.200808208 8 c 0,140,141
 145.459126906 8 145.459126906 8 119.199160822 17.2682233238 c 0,142,143
 104.425265002 22.4825394955 104.425265002 22.4825394955 92.1632034208 32.6321282758 c 0,144,145
 89.0267614841 34.9725115679 89.0267614841 34.9725115679 83.6368613991 38.8224427272 c 0,146,147
 78.2469613141 42.4687352779 78.2469613141 42.4687352779 71.8074402747 50.309965342 c 0,148,149
 40.0000033408 86.2973011179 40.0000033408 86.2973011179 40 137.489622821 c 2,150,-1
 40 161.231070479 l 1,151,-1
 92.2056967866 321.198000801 l 1,152,-1
 160.198275639 634.779365997 l 2,153,154
 160.212834668 634.886025816 160.212834668 634.886025816 160.882636966 639.640439025 c 0,155,156
 161.552439264 644.394852234 161.552439264 644.394852234 161.731074381 645.917529614 c 0,157,158
 161.909709499 647.440206994 161.909709499 647.440206994 162.105850933 648.892937673 c 0,159,160
 162.301992368 650.345668352 162.301992368 650.345668352 162.528598389 651.844013033 c 0,161,162
 162.75520441 653.342357714 162.75520441 653.342357714 163.006189956 654.868729595 c 0,163,164
 163.257175501 656.395101477 163.257175501 656.395101477 163.545186316 658.031761943 c 0,165,166
 163.832517533 659.664560506 163.832517533 659.664560506 164.121704433 661.393883815 c 0,167,168
 165.196417726 667.820615984 165.196417726 667.820615984 170.698641533 720.898229136 c 0,169,170
 176.20086534 773.975842288 176.20086534 773.975842288 181.198526299 819.88830062 c 0,171,172
 184.802015887 852.992800283 184.802015887 852.992800283 193.926755319 942.046856301 c 0,173,174
 203.051494752 1031.10091232 203.051494752 1031.10091232 204.060365785 1044.24970485 c 0,175,176
 205.401527293 1061.72929723 205.401527293 1061.72929723 205.700763647 1064.27997403 c 0,0,1
EndSplineSet
Validated: 1
EndChar

StartChar: L
Encoding: 76 76 47
Width: 1134
GlyphClass: 2
Flags: W
LayerCount: 2
Fore
SplineSet
1048.09897379 16.0001201029 m 2,0,-1
 636 15 l 2,1,2
 564.912835891 15 564.912835891 15 521.528679461 16 c 1,3,-1
 476.978887894 16 l 1,4,5
 466.978887894 17 466.978887894 17 453 17 c 2,6,-1
 417.867827003 17 l 1,7,8
 394.036173847 16 394.036173847 16 348.242013255 16 c 0,9,10
 302.447852662 16 302.447852662 16 120.447852662 3 c 1,11,-1
 103 3 l 2,12,13
 38.5162217359 3 38.5162217359 3 15.3575061535 40.94622685 c 0,14,15
 -1 67.5062991802 -1 67.5062991802 -1 109.104827423 c 0,16,17
 -1 150.703355666 -1 150.703355666 9.05314895069 190.969163655 c 0,18,19
 24.5956490992 253.87671908 24.5956490992 253.87671908 44.8323020887 306.197809273 c 0,20,21
 65.0689550783 358.518899466 65.0689550783 358.518899466 79.791408064 404.141636767 c 0,22,23
 94.5138610497 449.764374069 94.5138610497 449.764374069 116.921205896 531.037544446 c 0,24,25
 139.328550742 612.310714823 139.328550742 612.310714823 155.686526296 687.474830049 c 0,26,27
 188.217177906 836.951618172 188.217177906 836.951618172 194.048984545 950.668658702 c 2,28,-1
 216.086663896 1375.32555326 l 1,29,30
 220.958267789 1445.80054382 220.958267789 1445.80054382 278.256450111 1480.08810816 c 0,31,32
 309.821752042 1500 309.821752042 1500 345 1500 c 0,33,34
 369.514320874 1500 369.514320874 1500 388.009375056 1493.8802763 c 0,35,36
 426.654547793 1481.89121498 426.654547793 1481.89121498 450.136902737 1462.07604147 c 0,37,38
 485 1432.6574281 485 1432.6574281 485 1389.9198573 c 2,39,-1
 485.000000243 1244.94056629 l 1,40,-1
 449.864059197 835.504866207 l 2,41,42
 425.912455921 562.370786084 425.912455921 562.370786084 323.681055887 285.63602906 c 1,43,44
 420.537734213 292.000937401 420.537734213 292.000937401 451.263967736 292.000937401 c 0,0,0
 451.636853595 292.000937401 451.636853595 292.000937401 452 292 c 2,1,-1
 485.493715095 292 l 1,2,-1
 650.245071132 290.000023067 l 2,3,4
 675.548615637 290.000023067 675.548615637 290.000023067 720.09597114 290.9899643 c 2,5,-1
 720.54757763 291 l 1,6,-1
 759.701319554 291 l 1,7,8
 789.173396707 289.983721477 789.173396707 289.983721477 831.949097726 288.988937733 c 0,9,10
 947.430319462 286.294375892 947.430319462 286.294375892 1021.60393346 268.129112385 c 0,11,12
 1121.81657834 243.586839159 1121.81657834 243.586839159 1155.11267475 187.627199792 c 0,13,14
 1171 160.925901825 1171 160.925901825 1171 129 c 0,15,16
 1171 67.6842672606 1171 67.6842672606 1128.36270722 37.6840516198 c 0,17,18
 1097.54479085 16.0001201029 1097.54479085 16.0001201029 1048.09897379 16.0001201029 c 2,0,-1
EndSplineSet
Validated: 1
EndChar

StartChar: M
Encoding: 77 77 48
Width: 1766
GlyphClass: 2
Flags: W
LayerCount: 2
Fore
SplineSet
432.408157821 1536 m 0,0,1
 474.832360803 1536 474.832360803 1536 517.844812872 1491 c 1,2,-1
 521.063293874 1491 l 1,3,-1
 833.342564261 1072.21488574 l 1,4,-1
 835.222495053 1070.33495495 l 1,5,-1
 878.598778918 1004.03120675 l 1,6,-1
 1310.721275 1498.278725 l 1,7,8
 1325.54578032 1513.10323032 1325.54578032 1513.10323032 1336.68967487 1522.08394163 c 0,9,10
 1347.83356942 1531.06465293 1347.83356942 1531.06465293 1359.92157048 1536.67693914 c 0,11,12
 1382.15585541 1547 1382.15585541 1547 1412.20811811 1547 c 0,13,14
 1442.26038081 1547 1442.26038081 1547 1460.24418745 1541.08949713 c 0,15,16
 1469.32835344 1538.24881778 1469.32835344 1538.24881778 1472.18204344 1537.28473295 c 0,17,18
 1475.03573344 1536.32064811 1475.03573344 1536.32064811 1476.27204652 1535.94087257 c 0,19,20
 1477.50069684 1535.56345091 1477.50069684 1535.56345091 1478.20754491 1535.31808661 c 2,21,-1
 1485.33235644 1532.15547827 l 2,22,23
 1492.11262787 1529.4433697 1492.11262787 1529.4433697 1497.94297756 1525.26900454 c 0,24,25
 1516.21529831 1516.66864933 1516.21529831 1516.66864933 1525.29738032 1506.32071692 c 0,26,27
 1529.44577864 1501.59411949 1529.44577864 1501.59411949 1532.06092914 1497.01760631 c 0,28,29
 1534.67607964 1492.44109314 1534.67607964 1492.44109314 1535.95275404 1490.80260138 c 0,30,31
 1537.22942844 1489.16410962 1537.22942844 1489.16410962 1538.7687259 1486.91330491 c 0,32,33
 1540.30802337 1484.6625002 1540.30802337 1484.6625002 1541.60608773 1482.3614983 c 0,34,35
 1544.17419728 1477.80916243 1544.17419728 1477.80916243 1545.45448262 1474.39506749 c 0,36,37
 1546.73476795 1471.15937894 1546.73476795 1471.15937894 1549.45339689 1466.00624953 c 1,38,39
 1554 1450.92469155 1554 1450.92469155 1554 1435.16313389 c 2,40,-1
 1554 1159.56173277 l 1,41,-1
 1519.93016185 336.366532609 l 1,42,-1
 1518.99951873 321.372335767 l 1,43,44
 1518.89226146 194.577053738 1518.89226146 194.577053738 1493.54997556 120.170259091 c 0,45,46
 1470.48308224 52.4441825472 1470.48308224 52.4441825472 1425.08180567 23.465606407 c 0,47,48
 1393.20863252 2 1393.20863252 2 1353 2 c 0,49,50
 1299.07221697 2 1299.07221697 2 1276.11665591 21.5122269052 c 0,51,52
 1266.70948597 29.5083213485 1266.70948597 29.5083213485 1259.84475902 35.0691028228 c 0,53,54
 1252.0050297 39.4732180988 1252.0050297 39.4732180988 1245.88829875 47.4948383061 c 0,55,56
 1244.0490909 49.6206778309 1244.0490909 49.6206778309 1239.75623121 54.2201688072 c 0,57,58
 1222 73.2447022494 1222 73.2447022494 1222 104 c 2,59,-1
 1222 170.361451844 l 1,60,-1
 1257.20129653 471.081099313 l 1,61,62
 1262.073126 527.821973695 1262.073126 527.821973695 1264.55169375 599.700438159 c 0,63,64
 1266.77956406 664.308677183 1266.77956406 664.308677183 1271.40131391 774.353374497 c 0,65,66
 1276.00700294 884.015660836 1276.00700294 884.015660836 1280 1028.56215436 c 1,67,-1
 1280 1130.85799937 l 1,68,-1
 987.278725 797.721275 l 1,69,70
 975.957698555 786.400248555 975.957698555 786.400248555 972.681760389 782.346611831 c 0,71,72
 924.670643507 725 924.670643507 725 853 725 c 0,73,74
 819.215618611 725 819.215618611 725 798.12773694 735.965698469 c 2,75,-1
 786.414705727 742.03912206 l 1,76,77
 773.514410728 746.631146713 773.514410728 746.631146713 760.537194368 759.154660407 c 0,78,79
 754.383715889 765.093004184 754.383715889 765.093004184 751.046207573 771.211770061 c 0,80,81
 747.708699258 777.330535939 747.708699258 777.330535939 745.936916134 779.988210625 c 0,82,83
 744.16513301 782.64588531 744.16513301 782.64588531 739.587610714 790.275089138 c 0,84,85
 735.010088417 797.904292966 735.010088417 797.904292966 727.584193074 809.414430748 c 0,86,87
 716.676238383 826.321760519 716.676238383 826.321760519 690.088529303 869.817805046 c 0,88,89
 663.500820223 913.313849573 663.500820223 913.313849573 660.65531597 917.91888667 c 0,90,91
 657.809811717 922.523923767 657.809811717 922.523923767 655.008288911 927.028307203 c 0,92,93
 652.206766105 931.532690638 652.206766105 931.532690638 649.447898682 935.938657381 c 0,94,95
 646.689031259 940.344624124 646.689031259 940.344624124 643.973276732 944.651414421 c 0,96,97
 638.543013689 953.263019022 638.543013689 953.263019022 627.809301077 970.034444978 c 0,98,99
 580.620129034 1046.27037176 580.620129034 1046.27037176 576.009704353 1052.97271569 c 0,100,101
 571.399279672 1059.67505962 571.399279672 1059.67505962 566.603870985 1066.39917691 c 0,102,103
 556.333862765 1080.79977221 556.333862765 1080.79977221 539.620086577 1102.99796253 c 1,104,-1
 494 645.982452358 l 1,105,-1
 494 637.549491548 l 1,106,-1
 491.265550989 632.080593525 l 1,107,108
 489.442349388 616.643401047 489.442349388 616.643401047 479.232713224 561.88262526 c 0,109,110
 466.530803512 493.75420044 466.530803512 493.75420044 457.693242853 452.185847757 c 0,111,112
 448.855682194 410.617495073 448.855682194 410.617495073 447.771734653 405.415763451 c 0,113,114
 445.61779502 395.079270704 445.61779502 395.079270704 442.761038972 379.138322245 c 0,115,116
 439.904282924 363.197373786 439.904282924 363.197373786 438.260048146 358.264668785 c 0,117,118
 436.377309446 352.616451918 436.377309446 352.616451918 436.104202353 350.917450084 c 0,119,120
 435.831095261 349.21844825 435.831095261 349.21844825 435.38633709 346.759289106 c 0,121,122
 434.621979515 342.532999308 434.621979515 342.532999308 433.778715948 339.159945114 c 0,123,124
 432.351222623 333.449971945 432.351222623 333.449971945 430.494641931 321.630178985 c 0,125,126
 400.387449437 133.818644856 400.387449437 133.818644856 330.295762861 66.3038585219 c 0,127,128
 288.453589128 26 288.453589128 26 234 26 c 2,129,-1
 223.763283651 26 l 1,130,-1
 183.590542927 32.4794743103 l 1,131,132
 176.244076831 36.1527073584 176.244076831 36.1527073584 174.544522671 37.1155810746 c 0,133,134
 168.896045489 39.006377178 168.896045489 39.006377178 163.964229344 42.0233136633 c 2,135,-1
 149.329551032 50.3234141371 l 1,136,137
 103 80.6116742752 103 80.6116742752 103 149.81175627 c 2,138,-1
 103 181.417473921 l 1,139,-1
 107.107223345 189.306795988 l 2,140,141
 142.860874123 257.983866207 142.860874123 257.983866207 170.79304866 385.729722742 c 0,142,143
 198.725223197 513.475579276 198.725223197 513.475579276 223.129704445 642.366920856 c 0,144,145
 247.293839377 769.987895349 247.293839377 769.987895349 265.14974696 974.986146133 c 0,146,147
 283.005654543 1179.98439692 283.005654543 1179.98439692 283 1378.35157985 c 2,148,-1
 283 1426.3054674 l 1,149,-1
 284.022384171 1430.50518851 l 2,150,151
 293.178789818 1468.11761565 293.178789818 1468.11761565 319.632875601 1494.02232381 c 0,152,153
 340.421622129 1515.49716758 340.421622129 1515.49716758 370.642089741 1527.94088954 c 0,154,155
 389.98395484 1536 389.98395484 1536 432.408157821 1536 c 0,0,1
EndSplineSet
Validated: 1
EndChar

